<svg width="40" height="41" viewBox="0 0 40 41" fill="none" xmlns="http://www.w3.org/2000/svg">
<g id="cryptocurrency 1">
<g id="Group 48095496">
<g id="Group">
<path id="Vector" opacity="0.97" fill-rule="evenodd" clip-rule="evenodd" d="M19.3017 8.64048C21.1367 8.57057 22.9033 8.88182 24.6014 9.57423C25.3035 9.90419 25.9849 10.2659 26.6455 10.6594C27.9485 10.0095 29.0589 10.245 29.9767 11.366C30.6206 12.5878 30.444 13.6729 29.4468 14.6215C28.4537 15.2591 27.461 15.2591 26.4689 14.6215C25.6328 13.8773 25.3552 12.9604 25.6361 11.8708C22.8388 10.0844 19.8525 9.68901 16.6771 10.6846C15.9057 10.7881 15.5776 10.46 15.6929 9.70041C15.7374 9.56906 15.8132 9.4597 15.92 9.37234C17.0162 8.95635 18.1434 8.7124 19.3017 8.64048Z" fill="url(#paint0_linear_33_1176)"/>
</g>
<g id="Group_2">
<path id="Vector_2" opacity="0.97" fill-rule="evenodd" clip-rule="evenodd" d="M11.5287 10.3057C12.9802 10.2024 13.9139 10.8417 14.33 12.2237C14.5008 13.3539 14.1054 14.2203 13.1439 14.823C12.5187 15.1162 11.871 15.175 11.2007 14.9997C11.1586 15.0165 11.1165 15.0334 11.0745 15.0502C9.33419 17.8529 8.95564 20.8309 9.93885 23.9839C10.0426 24.7551 9.71449 25.0832 8.95462 24.9681C8.82327 24.9236 8.71391 24.8478 8.62655 24.741C7.65313 22.018 7.65313 19.2925 8.62655 16.5644C9.00235 15.6782 9.43137 14.8201 9.91361 13.9902C9.30971 12.8125 9.47795 11.761 10.4183 10.8357C10.7599 10.5891 11.13 10.4125 11.5287 10.3057Z" fill="url(#paint1_linear_33_1176)"/>
</g>
<g id="Group_3">
<path id="Vector_3" opacity="0.985" fill-rule="evenodd" clip-rule="evenodd" d="M19.2512 14.0918C22.1314 13.9292 24.3102 15.0732 25.7874 17.524C27.057 20.2039 26.7877 22.7107 24.9798 25.0445C22.8527 27.2482 20.3374 27.8454 17.4341 26.8363C14.5592 25.4704 13.2049 23.1908 13.371 19.9972C13.6629 17.7215 14.7986 16.0138 16.778 14.8742C17.5616 14.4642 18.386 14.2035 19.2512 14.0918ZM19.8064 18.1802C20.0037 18.1682 20.1888 18.2102 20.3616 18.3063C21.0261 18.9709 21.6907 19.6355 22.3552 20.3C22.5235 20.5692 22.5235 20.8384 22.3552 21.1076C21.6907 21.7722 21.0261 22.4367 20.3616 23.1013C20.0924 23.2695 19.8232 23.2695 19.554 23.1013C18.8894 22.4367 18.2249 21.7722 17.5603 21.1076C17.3921 20.8384 17.3921 20.5692 17.5603 20.3C18.2249 19.6355 18.8894 18.9709 19.554 18.3063C19.6456 18.2681 19.7297 18.2261 19.8064 18.1802Z" fill="url(#paint2_linear_33_1176)"/>
</g>
<g id="Group_4">
<path id="Vector_4" opacity="0.97" fill-rule="evenodd" clip-rule="evenodd" d="M30.557 16.3628C31.1544 16.3965 31.4825 16.7162 31.5412 17.3218C32.4962 20.9206 31.9831 24.2939 30.0018 27.4416C30.6026 28.6098 30.4344 29.6529 29.497 30.571C28.5002 31.2576 27.4907 31.2745 26.4687 30.6214C25.5729 29.8229 25.329 28.8556 25.7368 27.7192C26.4214 26.4702 27.4477 26.0496 28.8157 26.4574C30.5644 23.6219 30.9514 20.6104 29.9765 17.4227C29.8579 16.8853 30.0513 16.532 30.557 16.3628Z" fill="url(#paint3_linear_33_1176)"/>
</g>
<g id="Group_5">
<path id="Vector_5" opacity="0.97" fill-rule="evenodd" clip-rule="evenodd" d="M11.4783 26.3061C12.8672 26.1544 13.8009 26.7264 14.2796 28.0222C14.3832 28.5116 14.3749 28.9995 14.2543 29.4859C15.9605 30.6713 17.8617 31.2602 19.9578 31.2524C21.08 31.2505 22.1735 31.0738 23.2385 30.7225C24.0097 30.6188 24.3378 30.9468 24.2228 31.7067C24.1471 31.917 24.0041 32.06 23.7937 32.1357C20.0703 33.2844 16.5624 32.8217 13.2701 30.7477C11.9675 31.389 10.8571 31.1535 9.93889 30.0411C9.40865 29.078 9.4423 28.1358 10.0398 27.2146C10.4319 26.7626 10.9114 26.4598 11.4783 26.3061Z" fill="url(#paint4_linear_33_1176)"/>
</g>
</g>
</g>
<defs>
<linearGradient id="paint0_linear_33_1176" x1="30.1991" y1="8.68914" x2="28.399" y2="17.6552" gradientUnits="userSpaceOnUse">
<stop stop-color="#0E3739"/>
<stop offset="0.25" stop-color="#102A41"/>
<stop offset="1" stop-color="#000102"/>
</linearGradient>
<linearGradient id="paint1_linear_33_1176" x1="14.2996" y1="10.4273" x2="3.71101" y2="20.6591" gradientUnits="userSpaceOnUse">
<stop stop-color="#0E3739"/>
<stop offset="0.25" stop-color="#102A41"/>
<stop offset="1" stop-color="#000102"/>
</linearGradient>
<linearGradient id="paint2_linear_33_1176" x1="26.432" y1="14.1959" x2="19.2232" y2="29.9892" gradientUnits="userSpaceOnUse">
<stop stop-color="#0E3739"/>
<stop offset="0.25" stop-color="#102A41"/>
<stop offset="1" stop-color="#000102"/>
</linearGradient>
<linearGradient id="paint3_linear_33_1176" x1="31.9382" y1="16.4956" x2="21.3221" y2="26.7092" gradientUnits="userSpaceOnUse">
<stop stop-color="#0E3739"/>
<stop offset="0.25" stop-color="#102A41"/>
<stop offset="1" stop-color="#000102"/>
</linearGradient>
<linearGradient id="paint4_linear_33_1176" x1="24.0886" y1="26.3405" x2="22.2886" y2="35.3047" gradientUnits="userSpaceOnUse">
<stop stop-color="#0E3739"/>
<stop offset="0.25" stop-color="#102A41"/>
<stop offset="1" stop-color="#000102"/>
</linearGradient>
</defs>
</svg>
