<svg width="40" height="41" viewBox="0 0 40 41" fill="none" xmlns="http://www.w3.org/2000/svg">
<g id="customer-service (1) 1">
<g id="Group 48095498">
<g id="Group">
<path id="Vector" opacity="0.969" fill-rule="evenodd" clip-rule="evenodd" d="M19.7154 9.08496C24.3704 9.20031 27.782 11.3029 29.95 15.3927C30.2017 15.9312 30.3975 16.4878 30.5375 17.0624C31.6333 17.028 32.4888 17.4609 33.1039 18.3611C34.2775 20.5095 34.2981 22.6739 33.1658 24.8544C32.7574 25.5514 32.1905 26.0771 31.4651 26.4313C30.6953 26.6576 29.9429 26.606 29.2079 26.2767C27.6949 28.4714 25.6644 29.9659 23.1166 30.7602C22.9548 30.811 22.7898 30.842 22.6219 30.853C22.6895 31.491 22.4422 31.9548 21.8798 32.2444C20.7075 32.3435 19.5326 32.3641 18.3549 32.3062C17.7954 32.221 17.4553 31.9015 17.3345 31.3477C17.2546 30.8524 17.3165 30.3783 17.52 29.9254C17.66 29.744 17.8353 29.61 18.0457 29.5234C20.3849 29.7486 22.5906 29.3157 24.6626 28.2247C26.5727 27.0771 27.9228 25.459 28.7132 23.3702C28.8976 22.1208 29.0934 20.8737 29.3007 19.6288C28.9206 15.953 27.0861 13.2939 23.7969 11.6514C19.8894 10.1242 16.3954 10.7736 13.3148 13.5993C11.7206 15.2772 10.8239 17.2767 10.6247 19.5979C10.9305 21.4907 11.2191 23.3872 11.4905 25.2873C11.4773 25.7374 11.2712 26.0568 10.8721 26.2458C9.09159 26.9784 7.72079 26.5146 6.75969 24.8544C5.7338 22.8614 5.67196 20.8413 6.57417 18.794C7.1995 17.7034 8.13742 17.1262 9.38793 17.0624C10.2537 14.1246 12.0265 11.9086 14.7062 10.4145C16.2878 9.60856 17.9575 9.16537 19.7154 9.08496Z" fill="url(#paint0_linear_33_1016)"/>
</g>
<g id="Group_2">
<path id="Vector_2" opacity="0.983" fill-rule="evenodd" clip-rule="evenodd" d="M19.9011 12.4863C23.4883 12.6229 25.931 14.3544 27.2293 17.681C28.1933 21.1355 27.3172 24.0111 24.601 26.3078C22.1947 27.9327 19.6283 28.2316 16.9018 27.2045C16.1769 27.5618 15.4657 27.9431 14.7683 28.3485C14.2092 28.4699 13.9207 28.2432 13.9026 27.6683C14.0362 26.9175 14.2011 26.1754 14.3973 25.442C12.7354 23.6306 12.0655 21.497 12.3875 19.0415C12.9283 15.9031 14.7114 13.8314 17.7367 12.8265C18.456 12.6399 19.1775 12.5265 19.9011 12.4863ZM15.9433 18.7323C15.5686 18.8117 15.2491 18.9973 14.9848 19.2888C14.5427 20.0339 14.6354 20.7039 15.2631 21.2987C16.2958 21.8077 17.0276 21.5295 17.4584 20.4638C17.5378 19.3784 17.0328 18.8012 15.9433 18.7323ZM19.8393 18.7323C19.6055 18.7866 19.3788 18.8794 19.159 19.0105C18.419 19.6773 18.3571 20.3988 18.9735 21.175C19.8627 21.8046 20.6151 21.6707 21.2307 20.773C21.5378 19.5742 21.074 18.894 19.8393 18.7323ZM23.6734 18.7323C23.3303 18.8061 23.0315 18.971 22.7767 19.227C22.1892 20.1853 22.3851 20.9377 23.3642 21.4842C24.2433 21.6786 24.8514 21.359 25.1885 20.5257C25.3013 19.4115 24.7963 18.8138 23.6734 18.7323Z" fill="url(#paint1_linear_33_1016)"/>
</g>
</g>
</g>
<defs>
<linearGradient id="paint0_linear_33_1016" x1="33.7005" y1="9.29445" x2="22.6174" y2="38.6371" gradientUnits="userSpaceOnUse">
<stop stop-color="#0E3739"/>
<stop offset="0.25" stop-color="#102A41"/>
<stop offset="1" stop-color="#000102"/>
</linearGradient>
<linearGradient id="paint1_linear_33_1016" x1="27.4449" y1="12.6295" x2="18.5808" y2="31.3499" gradientUnits="userSpaceOnUse">
<stop stop-color="#0E3739"/>
<stop offset="0.25" stop-color="#102A41"/>
<stop offset="1" stop-color="#000102"/>
</linearGradient>
</defs>
</svg>
