<svg width="24" height="24" viewBox="0 0 24 24" fill="none" xmlns="http://www.w3.org/2000/svg">
<g id="deposit (6) 1">
<g id="Group">
<path id="Vector" opacity="0.974" fill-rule="evenodd" clip-rule="evenodd" d="M12.8204 0.257641C13.7791 0.131707 14.5369 0.459832 15.0938 1.24202C15.5464 2.12496 15.4839 2.96871 14.9063 3.77327C13.9949 4.64591 13.0028 4.74747 11.9298 4.07795C11.0401 3.21821 10.8917 2.24165 11.4845 1.14827C11.8274 0.692051 12.2727 0.395177 12.8204 0.257641Z" fill="url(#paint0_linear_33_1213)"/>
</g>
<g id="Group_2">
<path id="Vector_2" opacity="0.971" fill-rule="evenodd" clip-rule="evenodd" d="M7.61719 2.13264C9.37702 1.9998 10.4786 2.78105 10.9219 4.47639C10.9453 4.66325 10.9531 4.85074 10.9453 5.03889C9.0547 5.03889 7.16405 5.03889 5.27344 5.03889C5.35097 3.49344 6.13223 2.52469 7.61719 2.13264Z" fill="url(#paint1_linear_33_1213)"/>
</g>
<g id="Group_3">
<path id="Vector_3" opacity="0.987" fill-rule="evenodd" clip-rule="evenodd" d="M3.91415 5.78906C7.96101 5.78906 12.0079 5.78906 16.0548 5.78906C15.8806 6.73017 15.6853 7.66767 15.4688 8.60156C15.4376 8.69531 15.4376 8.78906 15.4688 8.88281C17.0943 10.1754 18.0083 11.8629 18.211 13.9453C16.0379 13.9028 14.3582 14.7778 13.172 16.5703C12.3323 18.0788 12.2308 19.6335 12.8673 21.2344C10.2367 22.0776 7.7211 21.812 5.3204 20.4375C2.39096 18.5092 1.30502 15.8295 2.06259 12.3984C2.54671 10.9524 3.38264 9.75712 4.5704 8.8125C4.32489 7.81158 4.10613 6.80377 3.91415 5.78906ZM9.86727 10.1953C10.0513 10.1741 10.1997 10.2366 10.3126 10.3828C10.336 10.5697 10.3438 10.7572 10.336 10.9453C11.0416 11.0206 11.612 11.3331 12.047 11.8828C12.1116 12.2401 11.9631 12.4042 11.6016 12.375C10.9627 11.7113 10.1971 11.5082 9.30477 11.7656C8.53476 12.0035 8.24573 12.5113 8.43759 13.2891C8.58866 13.5808 8.81526 13.7917 9.11727 13.9219C9.67687 14.0443 10.2394 14.1536 10.8048 14.25C11.8882 14.5989 12.396 15.3412 12.3282 16.4766C12.1338 17.1712 11.7041 17.6634 11.0391 17.9531C10.8139 18.0334 10.5874 18.1037 10.3595 18.1641C10.3439 18.336 10.3282 18.5078 10.3126 18.6797C10.1464 18.9473 9.94326 18.9785 9.70321 18.7734C9.63913 18.5766 9.6157 18.3735 9.6329 18.1641C8.90751 18.1178 8.29035 17.8365 7.78134 17.3203C7.57944 16.929 7.69663 16.718 8.1329 16.6875C9.01134 17.5443 9.99571 17.6849 11.086 17.1094C11.5468 16.7893 11.7108 16.3596 11.5782 15.8203C11.4298 15.4219 11.1563 15.1485 10.7579 15C10.1332 14.875 9.50826 14.75 8.8829 14.625C7.92323 14.1822 7.52479 13.44 7.68759 12.3984C7.83721 11.9518 8.11063 11.6002 8.5079 11.3438C8.84868 11.1599 9.20807 11.0271 9.58602 10.9453C9.6247 10.7755 9.64813 10.6036 9.65634 10.4297C9.70438 10.3272 9.7747 10.249 9.86727 10.1953Z" fill="url(#paint2_linear_33_1213)"/>
</g>
<g id="Group_4">
<path id="Vector_4" opacity="0.975" fill-rule="evenodd" clip-rule="evenodd" d="M17.0859 14.7421C19.3559 14.5988 20.9575 15.5519 21.8906 17.6014C22.5705 19.8272 21.9846 21.6319 20.1328 23.0155C18.9592 23.7206 17.7093 23.8925 16.3828 23.5311C14.5631 22.9145 13.5084 21.6567 13.2187 19.7577C13.0853 17.5001 14.0462 15.9142 16.1016 14.9999C16.4301 14.8905 16.7582 14.8045 17.0859 14.7421ZM17.6016 16.2889C17.8366 16.2819 17.985 16.3913 18.0469 16.6171C18.0703 17.3669 18.0781 18.1169 18.0703 18.8671C18.8361 18.8592 19.6017 18.8671 20.3672 18.8905C20.6592 19.086 20.6748 19.3047 20.4141 19.5468C19.633 19.5702 18.8517 19.578 18.0703 19.5702C18.0781 20.3203 18.0703 21.0703 18.0469 21.8202C17.8593 22.2148 17.6249 22.2461 17.3437 21.9139C17.3203 21.1329 17.3125 20.3516 17.3203 19.5702C16.5389 19.578 15.7576 19.5702 14.9766 19.5468C14.6652 19.3303 14.6652 19.1115 14.9766 18.8905C15.7576 18.8671 16.5389 18.8592 17.3203 18.8671C17.3125 18.0857 17.3203 17.3044 17.3437 16.5233C17.4097 16.4181 17.4956 16.34 17.6016 16.2889Z" fill="url(#paint3_linear_33_1213)"/>
</g>
</g>
<defs>
<linearGradient id="paint0_linear_33_1213" x1="15.3466" y1="0.270026" x2="13.0094" y2="5.37491" gradientUnits="userSpaceOnUse">
<stop stop-color="#0E3739"/>
<stop offset="0.25" stop-color="#102A41"/>
<stop offset="1" stop-color="#000102"/>
</linearGradient>
<linearGradient id="paint1_linear_33_1213" x1="10.8877" y1="2.14448" x2="9.95131" y2="6.13623" gradientUnits="userSpaceOnUse">
<stop stop-color="#0E3739"/>
<stop offset="0.25" stop-color="#102A41"/>
<stop offset="1" stop-color="#000102"/>
</linearGradient>
<linearGradient id="paint2_linear_33_1213" x1="18.0363" y1="5.93254" x2="9.53088" y2="25.1279" gradientUnits="userSpaceOnUse">
<stop stop-color="#0E3739"/>
<stop offset="0.25" stop-color="#102A41"/>
<stop offset="1" stop-color="#000102"/>
</linearGradient>
<linearGradient id="paint3_linear_33_1213" x1="22.0689" y1="14.809" x2="17.1685" y2="25.5264" gradientUnits="userSpaceOnUse">
<stop stop-color="#0E3739"/>
<stop offset="0.25" stop-color="#102A41"/>
<stop offset="1" stop-color="#000102"/>
</linearGradient>
</defs>
</svg>
