<svg width="25" height="25" viewBox="0 0 25 25" fill="none" xmlns="http://www.w3.org/2000/svg">
<g id="file (1) 1" clip-path="url(#clip0_42_1266)">
<g id="Group">
<path id="Vector" opacity="0.958" fill-rule="evenodd" clip-rule="evenodd" d="M3.75781 0.476562C6.67967 0.476562 9.60158 0.476562 12.5234 0.476562C14.3517 2.31263 16.1407 4.18763 17.8906 6.10156C17.8985 7.67994 17.9219 9.25803 17.9609 10.8359C20.5541 11.515 22.2807 13.1244 23.1406 15.6641C23.8137 18.4026 23.1496 20.7541 21.1484 22.7188C20.0362 23.6733 18.7549 24.2593 17.3047 24.4766C16.7735 24.4766 16.2422 24.4766 15.7109 24.4766C13.5014 24.1534 11.7983 23.0518 10.6016 21.1719C8.33595 21.1563 6.0703 21.1406 3.80469 21.125C2.58352 20.8882 1.84134 20.1617 1.57813 18.9453C1.54687 13.5234 1.54687 8.10158 1.57813 2.67969C1.84567 1.48249 2.57223 0.748115 3.75781 0.476562ZM3.94531 1.50781C6.5547 1.50781 9.16405 1.50781 11.7734 1.50781C11.7537 2.71237 11.7771 3.9155 11.8438 5.11719C12.118 6.07953 12.7508 6.64981 13.7422 6.82812C14.789 6.85156 15.8358 6.85939 16.8828 6.85156C16.8828 8.1328 16.8828 9.41408 16.8828 10.6953C15.0159 10.6378 13.3753 11.2081 11.9609 12.4062C9.73827 12.4067 7.51953 12.4379 5.30469 12.5C5.04767 12.7229 5.00861 12.9807 5.1875 13.2734C5.26152 13.3457 5.34749 13.4004 5.44531 13.4375C7.28905 13.4531 9.13283 13.4688 10.9766 13.4844C10.6303 13.9184 10.3491 14.395 10.1328 14.9141C8.58617 14.9531 7.0393 14.9765 5.49219 14.9844C5.12286 15.1226 5.00568 15.3804 5.14063 15.7578C5.21295 15.8458 5.29888 15.9162 5.39844 15.9688C6.85147 15.9922 8.30459 16 9.75781 15.9922C9.53933 17.1887 9.57842 18.3762 9.875 19.5547C9.92717 19.7426 9.99749 19.9222 10.0859 20.0938C8.08592 20.125 6.08595 20.125 4.08594 20.0938C3.30279 19.9648 2.81061 19.5194 2.60938 18.7578C2.57812 13.4609 2.57812 8.16406 2.60938 2.86719C2.78194 2.13998 3.22725 1.68685 3.94531 1.50781ZM12.8516 2.35156C13.9516 3.4907 15.0453 4.63914 16.1328 5.79688C15.3984 5.82814 14.6641 5.82814 13.9297 5.79688C13.3889 5.70913 13.0373 5.40444 12.875 4.88281C12.8516 4.03921 12.8437 3.19546 12.8516 2.35156ZM15.8047 11.7734C18.2858 11.6116 20.1998 12.5648 21.5469 14.6328C22.741 16.9094 22.6003 19.0969 21.125 21.1953C19.4752 23.1306 17.4049 23.8103 14.9141 23.2344C12.565 22.4634 11.1666 20.8618 10.7188 18.4297C10.4838 16.2747 11.1791 14.4857 12.8047 13.0625C13.6918 12.3634 14.6917 11.9337 15.8047 11.7734Z" fill="url(#paint0_linear_42_1266)"/>
</g>
<g id="Group_2">
<path id="Vector_2" opacity="0.924" fill-rule="evenodd" clip-rule="evenodd" d="M5.49222 9.89844C7.2423 9.89062 8.99229 9.89844 10.7422 9.92188C11.1113 10.0269 11.2442 10.2691 11.1407 10.6484C11.0531 10.8369 10.9046 10.9385 10.6953 10.9531C8.99224 10.9844 7.28908 10.9844 5.58597 10.9531C5.10273 10.833 4.96992 10.5439 5.18754 10.0859C5.28574 10.0098 5.38727 9.94729 5.49222 9.89844Z" fill="url(#paint1_linear_42_1266)"/>
</g>
<g id="Group_3">
<path id="Vector_3" opacity="0.946" fill-rule="evenodd" clip-rule="evenodd" d="M16.3202 12.7109C16.8662 12.7265 17.0849 13.0077 16.9765 13.5547C18.1014 13.844 18.7108 14.5706 18.8046 15.7344C18.7242 16.2522 18.443 16.4084 17.9608 16.2031C17.8882 16.1462 17.8336 16.0759 17.7968 15.9922C17.7079 14.9179 17.1376 14.4569 16.0858 14.6094C15.4676 14.8845 15.1942 15.3611 15.2655 16.0391C15.3937 16.5267 15.6984 16.847 16.1796 17C17.267 16.9846 18.0716 17.4455 18.5936 18.3828C19.0278 19.5763 18.7387 20.5528 17.7265 21.3125C17.4966 21.4471 17.2544 21.5487 16.9999 21.6172C16.9843 21.836 16.9686 22.0547 16.953 22.2734C16.8105 22.5595 16.5839 22.661 16.2733 22.5781C16.1738 22.5255 16.0878 22.4552 16.0155 22.3672C15.9497 22.1073 15.9263 21.8417 15.9452 21.5703C15.0186 21.3233 14.4483 20.7295 14.2343 19.7891C14.1793 19.5082 14.2106 19.2425 14.328 18.9922C14.9388 18.7104 15.2514 18.9136 15.2655 19.6016C15.5826 20.4749 16.1842 20.764 17.0702 20.4688C17.7674 19.9798 17.9158 19.3626 17.5155 18.6172C17.3215 18.3523 17.0637 18.1882 16.7421 18.125C15.201 18.0836 14.3573 17.3023 14.2108 15.7812C14.2671 14.6547 14.8296 13.9125 15.8983 13.5547C15.8466 13.1647 15.9873 12.8835 16.3202 12.7109Z" fill="url(#paint2_linear_42_1266)"/>
</g>
</g>
<defs>
<linearGradient id="paint0_linear_42_1266" x1="1.55469" y1="24.4766" x2="25.4483" y2="2.73332" gradientUnits="userSpaceOnUse">
<stop stop-color="#0D52FF"/>
<stop offset="1" stop-color="#03EADA"/>
</linearGradient>
<linearGradient id="paint1_linear_42_1266" x1="5.08618" y1="10.9766" x2="5.45836" y2="8.88052" gradientUnits="userSpaceOnUse">
<stop stop-color="#0D52FF"/>
<stop offset="1" stop-color="#03EADA"/>
</linearGradient>
<linearGradient id="paint2_linear_42_1266" x1="14.208" y1="22.6061" x2="21.7695" y2="19.0936" gradientUnits="userSpaceOnUse">
<stop stop-color="#0D52FF"/>
<stop offset="1" stop-color="#03EADA"/>
</linearGradient>
<clipPath id="clip0_42_1266">
<rect width="24" height="24" fill="white" transform="translate(0.5 0.5)"/>
</clipPath>
</defs>
</svg>
