<svg width="24" height="25" viewBox="0 0 24 25" fill="none" xmlns="http://www.w3.org/2000/svg">
<g id="help 2">
<g id="Group">
<path id="Vector" opacity="0.991" fill-rule="evenodd" clip-rule="evenodd" d="M8.92236 2.95312C9.41867 2.95312 9.91498 2.95312 10.4113 2.95312C12.9863 3.28884 14.927 4.57415 16.2334 6.80905C17.2733 8.84765 17.4132 10.9474 16.6533 13.1083C15.8991 15.0079 14.5947 16.3887 12.7401 17.2506C10.9112 18.0036 9.0532 18.08 7.1662 17.4797C6.71422 17.3077 6.27517 17.1104 5.84908 16.8879C4.63064 17.21 3.41532 17.5409 2.20312 17.8805C2.20312 17.8551 2.20312 17.8296 2.20312 17.8042C2.55088 16.63 2.88175 15.4465 3.19574 14.2537C2.93267 13.7513 2.70997 13.2296 2.52763 12.6884C2.38682 12.1938 2.27865 11.6975 2.20312 11.1995C2.20312 10.6777 2.20312 10.156 2.20312 9.63419C2.70698 6.37505 4.52677 4.23074 7.66251 3.20128C8.08337 3.09545 8.50333 3.01273 8.92236 2.95312ZM9.64774 6.3891C10.9153 6.49235 11.6725 7.16681 11.9193 8.41251C11.9869 9.07489 11.8087 9.66026 11.3848 10.1687C11.003 10.525 10.6213 10.8813 10.2395 11.2376C10.2204 11.5428 10.2141 11.8482 10.2204 12.1539C9.85134 12.1539 9.48231 12.1539 9.11325 12.1539C9.10687 11.6829 9.11325 11.212 9.13234 10.7413C9.6401 10.2973 10.1364 9.83912 10.6213 9.36694C10.9921 8.69338 10.8712 8.12709 10.2586 7.66805C9.49025 7.34598 8.92393 7.55596 8.55968 8.29797C8.51986 8.42232 8.50077 8.54956 8.50241 8.67975C8.13335 8.67975 7.76433 8.67975 7.39526 8.67975C7.53224 7.30837 8.28308 6.54484 9.64774 6.3891ZM9.11325 13.2992C9.48231 13.2992 9.85134 13.2992 10.2204 13.2992C10.2204 13.681 10.2204 14.0628 10.2204 14.4445C9.85134 14.4445 9.48231 14.4445 9.11325 14.4445C9.11325 14.0628 9.11325 13.681 9.11325 13.2992Z" fill="#03EADA"/>
</g>
<g id="Group_2">
<path id="Vector_2" opacity="0.987" fill-rule="evenodd" clip-rule="evenodd" d="M21.7499 15.4753C21.7499 15.9461 21.7499 16.417 21.7499 16.8878C21.6275 17.7833 21.3475 18.6295 20.91 19.4267C21.1761 20.4343 21.4561 21.4332 21.7499 22.4236C21.7499 22.449 21.7499 22.4745 21.7499 22.4999C21.7245 22.4999 21.699 22.4999 21.6736 22.4999C20.6832 22.2061 19.6843 21.9261 18.6767 21.66C17.8795 22.0975 17.0333 22.3775 16.1378 22.4999C15.667 22.4999 15.1961 22.4999 14.7253 22.4999C12.4895 22.1712 10.8351 21.0131 9.76221 19.0258C13.3583 18.8059 15.948 17.0879 17.5313 13.8718C17.9864 12.7989 18.2346 11.679 18.2758 10.5122C20.2631 11.5851 21.4212 13.2395 21.7499 15.4753Z" fill="#03EADA"/>
</g>
</g>
</svg>
