<svg width="28" height="29" viewBox="0 0 28 29" fill="none" xmlns="http://www.w3.org/2000/svg">
<g id="icon-wholesale 1" clip-path="url(#clip0_19_1227)">
<path id="Vector" d="M28.0002 15.5205H14.5835V28.9372H28.0002V15.5205Z" fill="url(#paint0_linear_19_1227)"/>
<path id="Vector_2" d="M28.0002 0.9375H14.5835V14.3542H28.0002V0.9375Z" fill="url(#paint1_linear_19_1227)"/>
<path id="Vector_3" d="M22.7502 0.9375H19.8335V5.60417H22.7502V0.9375Z" fill="url(#paint2_linear_19_1227)"/>
<path id="Vector_4" d="M8.16667 15.5205H5.25V20.1872H8.16667V15.5205Z" fill="url(#paint3_linear_19_1227)"/>
<path id="Vector_5" d="M22.7502 15.5205H19.8335V20.1872H22.7502V15.5205Z" fill="url(#paint4_linear_19_1227)"/>
<path id="Vector_6" d="M13.4167 15.5205H0V28.9372H13.4167V15.5205Z" fill="url(#paint5_linear_19_1227)"/>
</g>
<defs>
<linearGradient id="paint0_linear_19_1227" x1="21.3159" y1="10.0723" x2="21.2918" y2="28.9372" gradientUnits="userSpaceOnUse">
<stop stop-color="#79AAD7" stop-opacity="0"/>
<stop offset="1" stop-color="#79AAD7"/>
</linearGradient>
<linearGradient id="paint1_linear_19_1227" x1="21.3159" y1="-4.51072" x2="21.2918" y2="14.3542" gradientUnits="userSpaceOnUse">
<stop stop-color="#79AAD7" stop-opacity="0"/>
<stop offset="1" stop-color="#79AAD7"/>
</linearGradient>
<linearGradient id="paint2_linear_19_1227" x1="21.2971" y1="-0.957516" x2="21.2837" y2="5.60417" gradientUnits="userSpaceOnUse">
<stop stop-color="#79AAD7" stop-opacity="0"/>
<stop offset="1" stop-color="#79AAD7"/>
</linearGradient>
<linearGradient id="paint3_linear_19_1227" x1="6.71358" y1="13.6255" x2="6.70017" y2="20.1872" gradientUnits="userSpaceOnUse">
<stop stop-color="#79AAD7" stop-opacity="0"/>
<stop offset="1" stop-color="#79AAD7"/>
</linearGradient>
<linearGradient id="paint4_linear_19_1227" x1="21.2971" y1="13.6255" x2="21.2837" y2="20.1872" gradientUnits="userSpaceOnUse">
<stop stop-color="#79AAD7" stop-opacity="0"/>
<stop offset="1" stop-color="#79AAD7"/>
</linearGradient>
<linearGradient id="paint5_linear_19_1227" x1="6.73243" y1="10.0723" x2="6.70833" y2="28.9372" gradientUnits="userSpaceOnUse">
<stop stop-color="#79AAD7" stop-opacity="0"/>
<stop offset="1" stop-color="#79AAD7"/>
</linearGradient>
<clipPath id="clip0_19_1227">
<rect width="28" height="28" fill="white" transform="translate(0 0.9375)"/>
</clipPath>
</defs>
</svg>
