<svg width="28" height="29" viewBox="0 0 28 29" fill="none" xmlns="http://www.w3.org/2000/svg">
<g id="icon-b2b 1" clip-path="url(#clip0_17_1072)">
<path id="Vector" d="M22.4582 4.4375C19.3976 4.4375 16.9165 6.91859 16.9165 9.97917C16.9165 13.0397 19.3976 15.5208 22.4582 15.5208C25.5187 15.5208 27.9998 13.0397 27.9998 9.97917C27.9998 6.91859 25.5187 4.4375 22.4582 4.4375Z" fill="url(#paint0_linear_17_1072)"/>
<path id="Vector_2" d="M5.54167 14.3545C8.60222 14.3545 11.0833 16.8356 11.0833 19.8962C11.0833 22.9567 8.60222 25.4378 5.54167 25.4378C2.48109 25.4378 0 22.9567 0 19.8962C0 16.8356 2.48109 14.3545 5.54167 14.3545Z" fill="url(#paint1_linear_17_1072)"/>
<path id="Vector_3" d="M21.7424 7.9375H2.17425C0.973443 7.9375 0 8.85158 0 9.97917C0 11.1068 0.973443 12.0208 2.17425 12.0208H21.7424C22.9432 12.0208 23.9167 11.1068 23.9167 9.97917C23.9167 8.85158 22.9432 7.9375 21.7424 7.9375Z" fill="url(#paint2_linear_17_1072)"/>
<path id="Vector_4" d="M6.25775 17.8545H25.8259C27.0267 17.8545 28.0002 18.7686 28.0002 19.8962C28.0002 21.0237 27.0267 21.9378 25.8259 21.9378H6.25775C5.05694 21.9378 4.0835 21.0237 4.0835 19.8962C4.0835 18.7686 5.05694 17.8545 6.25775 17.8545Z" fill="url(#paint3_linear_17_1072)"/>
</g>
<defs>
<linearGradient id="paint0_linear_17_1072" x1="27.9999" y1="9.97917" x2="16.9165" y2="9.97917" gradientUnits="userSpaceOnUse">
<stop stop-color="#6ACFDA" stop-opacity="0"/>
<stop offset="1" stop-color="#6ACFDA"/>
</linearGradient>
<linearGradient id="paint1_linear_17_1072" x1="1.79256" y1="14.3545" x2="12.7515" y2="14.3545" gradientUnits="userSpaceOnUse">
<stop stop-color="#6ACFDA" stop-opacity="0"/>
<stop offset="1" stop-color="#6ACFDA"/>
</linearGradient>
<linearGradient id="paint2_linear_17_1072" x1="0" y1="9.97923" x2="23.9167" y2="9.97923" gradientUnits="userSpaceOnUse">
<stop stop-color="#6ACFDA" stop-opacity="0"/>
<stop offset="1" stop-color="#6ACFDA"/>
</linearGradient>
<linearGradient id="paint3_linear_17_1072" x1="28.0002" y1="19.8962" x2="4.0835" y2="19.8962" gradientUnits="userSpaceOnUse">
<stop stop-color="#6ACFDA" stop-opacity="0"/>
<stop offset="1" stop-color="#6ACFDA"/>
</linearGradient>
<clipPath id="clip0_17_1072">
<rect width="28" height="28" fill="white" transform="translate(0 0.9375)"/>
</clipPath>
</defs>
</svg>
