<svg width="24" height="25" viewBox="0 0 24 25" fill="none" xmlns="http://www.w3.org/2000/svg">
<g id="info 1" clip-path="url(#clip0_33_1063)">
<g id="Group">
<path id="Vector" opacity="0.986" fill-rule="evenodd" clip-rule="evenodd" d="M13.0547 0.726562C13.6953 0.726562 14.3359 0.726562 14.9766 0.726562C18.6683 1.23192 21.3637 3.13817 23.0625 6.44531C23.5361 7.49803 23.8408 8.59181 23.9766 9.72656C23.9766 10.3672 23.9766 11.0078 23.9766 11.6484C23.4881 15.2983 21.6209 17.9858 18.375 19.7109C18.3127 16.7957 18.2814 13.8738 18.2812 10.9453C18.1384 10.2322 17.7399 9.71653 17.0859 9.39844C17.973 7.91278 17.9183 6.45966 16.9219 5.03906C15.7695 3.75911 14.371 3.37629 12.7266 3.89062C10.9996 4.69596 10.2262 6.04753 10.4062 7.94531C10.5727 8.79384 10.9711 9.51258 11.6016 10.1016C11.0302 10.255 10.452 10.3878 9.86719 10.5C9.10917 10.7418 8.63259 11.2497 8.4375 12.0234C8.36662 12.772 8.35102 13.522 8.39062 14.2734C8.40905 14.8761 8.63559 15.3839 9.07031 15.7969C9.49219 16.0703 9.91406 16.3438 10.3359 16.6172C10.3515 17.1172 10.3672 17.6172 10.3828 18.1172C10.3891 18.6672 10.3657 19.2141 10.3125 19.7578C10.2627 19.8234 10.2002 19.8703 10.125 19.8984C9.69023 19.7201 9.26836 19.517 8.85938 19.2891C7.96987 20.335 7.07925 21.3818 6.1875 22.4297C4.87987 21.1142 3.57518 19.8173 2.27344 18.5391C3.31318 17.6321 4.36005 16.7337 5.41406 15.8438C3.71166 12.7696 3.56322 9.62119 4.96875 6.39844C6.67448 3.10362 9.3698 1.21299 13.0547 0.726562Z" fill="#03EADA"/>
</g>
<g id="Group_2">
<path id="Vector_2" opacity="0.976" fill-rule="evenodd" clip-rule="evenodd" d="M13.9453 4.99219C15.4164 5.0883 16.2289 5.86955 16.3828 7.33594C16.242 8.75803 15.4607 9.5393 14.0391 9.67969C12.6169 9.53883 11.8357 8.75756 11.6953 7.33594C11.829 5.95242 12.579 5.17118 13.9453 4.99219Z" fill="#03EADA"/>
</g>
<g id="Group_3">
<path id="Vector_3" opacity="0.991" fill-rule="evenodd" clip-rule="evenodd" d="M18.9609 24.7266C15.8828 24.7266 12.8047 24.7266 9.72657 24.7266C9.54006 24.6415 9.40726 24.5009 9.32814 24.3047C9.29687 23.4609 9.29687 22.6172 9.32814 21.7734C9.51118 21.3966 9.81587 21.2325 10.2422 21.2812C11.1309 21.08 11.623 20.5253 11.7188 19.6172C11.75 18.6328 11.75 17.6484 11.7188 16.6641C11.6983 16.1621 11.4874 15.7636 11.0859 15.4688C10.7188 15.2618 10.3594 15.043 10.0078 14.8125C9.91979 14.7402 9.84948 14.6543 9.79689 14.5547C9.72362 13.8535 9.70801 13.1504 9.75001 12.4453C9.75203 12.1309 9.90048 11.9199 10.1953 11.8125C12.224 11.399 14.2552 11.0005 16.2891 10.6172C16.6073 10.6315 16.8182 10.7877 16.9219 11.0859C16.9375 13.9766 16.9532 16.8672 16.9688 19.7578C17.0938 20.4923 17.5079 20.9845 18.2109 21.2344C18.4938 21.2751 18.7751 21.322 19.0547 21.375C19.206 21.4483 19.3076 21.5655 19.3594 21.7266C19.3907 22.5859 19.3907 23.4453 19.3594 24.3047C19.2803 24.5009 19.1475 24.6415 18.9609 24.7266Z" fill="#03EADA"/>
</g>
<g id="Group_4">
<path id="Vector_4" opacity="0.972" fill-rule="evenodd" clip-rule="evenodd" d="M3.39844 24.7266C3.03906 24.7266 2.67969 24.7266 2.32031 24.7266C1.08594 24.3984 0.304688 23.6172 -0.0234375 22.3828C-0.0234375 22.0234 -0.0234375 21.6641 -0.0234375 21.3047C0.146561 20.5512 0.537188 19.9341 1.14844 19.4531C1.19531 19.4219 1.24219 19.4219 1.28906 19.4531C2.60938 20.7735 3.92969 22.0937 5.25 23.4141C5.28127 23.4609 5.28127 23.5078 5.25 23.5547C4.76906 24.1659 4.1519 24.5566 3.39844 24.7266Z" fill="#03EADA"/>
</g>
</g>
<defs>
<clipPath id="clip0_33_1063">
<rect width="24" height="24" fill="white" transform="translate(0 0.75)"/>
</clipPath>
</defs>
</svg>
