<svg width="18" height="18" viewBox="0 0 18 18" fill="none" xmlns="http://www.w3.org/2000/svg">
<g id="icon_13">
<circle id="Ellipse" cx="9.00157" cy="8.87657" r="4.54258" stroke="url(#paint0_linear_39_2662)" stroke-width="0.623492"/>
<path id="Ellipse_2" opacity="0.3" fill-rule="evenodd" clip-rule="evenodd" d="M6.87939 5.84685C7.05483 5.72378 7.24151 5.61553 7.43761 5.52393L7.71225 6.11189C7.55071 6.18734 7.39681 6.27658 7.25207 6.37811L6.87939 5.84685Z" fill="#B6F2F0"/>
<path id="Ellipse_3" opacity="0.4" fill-rule="evenodd" clip-rule="evenodd" d="M5.64844 7.31309C5.74004 7.11699 5.8483 6.93032 5.97136 6.75488L6.50262 7.12756C6.40109 7.27229 6.31185 7.42619 6.2364 7.58774L5.64844 7.31309Z" fill="#B6F2F0"/>
<path id="Ellipse_4" opacity="0.6" fill-rule="evenodd" clip-rule="evenodd" d="M5.97136 10.9989C5.8483 10.8234 5.74004 10.6368 5.64844 10.4407L6.2364 10.166C6.31185 10.3276 6.40109 10.4815 6.50262 10.6262L5.97136 10.9989Z" fill="#B6F2F0"/>
<path id="Ellipse_5" opacity="0.5" fill-rule="evenodd" clip-rule="evenodd" d="M5.30273 8.87647C5.30273 8.76797 5.30742 8.66047 5.3166 8.5542L5.96313 8.61006C5.95555 8.69778 5.95168 8.78664 5.95168 8.87647C5.95168 8.96631 5.95555 9.05516 5.96313 9.14288L5.3166 9.19874C5.30742 9.09247 5.30273 8.98498 5.30273 8.87647Z" fill="#B6F2F0"/>
<path id="Ellipse_6" opacity="0.7" fill-rule="evenodd" clip-rule="evenodd" d="M7.43761 12.2297C7.24151 12.1381 7.05483 12.0298 6.87939 11.9067L7.25207 11.3755C7.39681 11.477 7.55071 11.5663 7.71225 11.6417L7.43761 12.2297Z" fill="#B6F2F0"/>
<path id="Ellipse_7" opacity="0.8" fill-rule="evenodd" clip-rule="evenodd" d="M9.00147 12.5759C8.89297 12.5759 8.78547 12.5712 8.6792 12.5621L8.73506 11.9155C8.82278 11.9231 8.91164 11.927 9.00147 11.927C9.09131 11.927 9.18016 11.9231 9.26788 11.9155L9.32374 12.5621C9.21747 12.5712 9.10998 12.5759 9.00147 12.5759Z" fill="#B6F2F0"/>
<path id="Ellipse_8" opacity="0.9" fill-rule="evenodd" clip-rule="evenodd" d="M11.1239 11.9072C10.9484 12.0303 10.7618 12.1386 10.5657 12.2302L10.291 11.6422C10.4526 11.5667 10.6065 11.4775 10.7512 11.376L11.1239 11.9072Z" fill="#B6F2F0"/>
<path id="Ellipse_9" fill-rule="evenodd" clip-rule="evenodd" d="M12.3547 10.4407C12.2631 10.6368 12.1548 10.8234 12.0317 10.9989L11.5005 10.6262C11.602 10.4815 11.6913 10.3276 11.7667 10.166L12.3547 10.4407Z" fill="#B6F2F0"/>
<path id="Oval" fill-rule="evenodd" clip-rule="evenodd" d="M9.00148 8.22751C9.35988 8.22751 9.65042 8.51805 9.65042 8.87645C9.65042 9.23485 9.35988 9.52539 9.00148 9.52539C8.64308 9.52539 8.35254 9.23485 8.35254 8.87645C8.35254 8.51805 8.64308 8.22751 9.00148 8.22751Z" fill="#B6F2F0" stroke="#B6F2F0" stroke-width="0.374095"/>
<path id="Union" fill-rule="evenodd" clip-rule="evenodd" d="M8.09307 2.51709C7.94971 2.51709 7.8335 2.63331 7.8335 2.77667V3.55539H8.61198V4.2688H9.39071V3.55539H10.1697V2.77667C10.1697 2.63331 10.0535 2.51709 9.91011 2.51709H8.09307Z" fill="#2FD9C3"/>
<path id="Vector" d="M9.65089 8.87644H12.3764C12.3764 7.31899 11.2084 5.56685 9.00195 5.50195" stroke="#B6F2F0" stroke-width="0.374095"/>
<g id="Group">
<path id="Ellipse_10" d="M3.87496 5.1123C3.09996 6.16617 2.64209 7.46769 2.64209 8.87616C2.64209 11.8744 4.71694 14.3881 7.50915 15.0597H2.64209M14.1285 5.1123C14.9035 6.16617 15.3613 7.46769 15.3613 8.87616C15.3613 11.8744 13.2865 14.3881 10.4943 15.0597H15.3613" stroke="#2FD9C3" stroke-width="0.374095" stroke-linecap="round" stroke-linejoin="round"/>
<path id="Oval_2" fill-rule="evenodd" clip-rule="evenodd" d="M4.32909 5.24222C3.97069 5.24222 3.68015 4.95168 3.68015 4.59328C3.68015 4.23488 3.97069 3.94434 4.32909 3.94434C4.68749 3.94434 4.97803 4.23488 4.97803 4.59328C4.97803 4.95168 4.68749 5.24222 4.32909 5.24222Z" fill="#2FD9C3" stroke="#2FD9C3" stroke-width="0.374095"/>
<path id="Oval_3" fill-rule="evenodd" clip-rule="evenodd" d="M13.6743 3.94431C14.0327 3.94431 14.3233 4.23485 14.3233 4.59325C14.3233 4.95165 14.0327 5.24219 13.6743 5.24219C13.3159 5.24219 13.0254 4.95165 13.0254 4.59325C13.0254 4.23485 13.3159 3.94431 13.6743 3.94431Z" fill="#2FD9C3" stroke="#2FD9C3" stroke-width="0.374095"/>
</g>
</g>
<defs>
<linearGradient id="paint0_linear_39_2662" x1="9.00157" y1="4.30727" x2="9.00157" y2="12.9156" gradientUnits="userSpaceOnUse">
<stop stop-color="#ABECD6"/>
<stop offset="1" stop-color="white"/>
</linearGradient>
</defs>
</svg>
