<svg width="29" height="29" viewBox="0 0 29 29" fill="none" xmlns="http://www.w3.org/2000/svg">
<g id="label 1" clip-path="url(#clip0_31_4451)">
<g id="Group">
<path id="Vector" opacity="0.992" fill-rule="evenodd" clip-rule="evenodd" d="M28.4727 3.31641C28.4727 7.63672 28.4727 11.957 28.4727 16.2773C28.1672 17.3027 27.4928 17.9499 26.4492 18.2188C18.4648 18.2552 10.4805 18.2552 2.49609 18.2188C1.45256 17.9499 0.778077 17.3027 0.472656 16.2773C0.472656 11.7383 0.472656 7.19922 0.472656 2.66016C0.736211 1.6219 1.39246 0.974765 2.44141 0.71875C10.2435 0.682292 18.0456 0.682292 25.8477 0.71875C27.2612 1.04766 28.1362 1.91354 28.4727 3.31641ZM21.1445 4.46484C21.8031 4.55876 22.1129 4.94158 22.0742 5.61328C22.3884 5.59748 22.6983 5.62483 23.0039 5.69531C23.563 5.98488 23.6997 6.41325 23.4141 6.98047C23.2491 7.17691 23.0395 7.29536 22.7852 7.33594C22.1836 7.35415 21.582 7.37241 20.9805 7.39062C20.5736 7.64345 20.4916 7.98065 20.7344 8.40234C20.8207 8.48662 20.921 8.55044 21.0352 8.59375C22.5542 8.65905 23.3927 9.44294 23.5508 10.9453C23.5354 11.8334 23.1525 12.5078 22.4023 12.9688C22.2487 13.064 22.0847 13.1278 21.9102 13.1602C22.0182 14.1372 21.5989 14.5291 20.6523 14.3359C20.2985 14.0678 20.1527 13.7123 20.2148 13.2695C19.959 13.2786 19.7038 13.2695 19.4492 13.2422C18.8901 12.9526 18.7534 12.5243 19.0391 11.957C19.1934 11.7752 19.3849 11.6567 19.6133 11.6016C20.2331 11.5834 20.8529 11.5651 21.4727 11.5469C21.8714 11.2912 21.9535 10.954 21.7188 10.5352C21.6324 10.4509 21.5321 10.3871 21.418 10.3438C20.105 10.306 19.2756 9.6589 18.9297 8.40234C18.7942 7.21475 19.259 6.35796 20.3242 5.83203C20.2266 5.13217 20.5 4.67644 21.1445 4.46484ZM5.39453 5.61328C8.27481 5.60417 11.155 5.61328 14.0352 5.64062C14.7468 5.81534 14.9747 6.24372 14.7188 6.92578C14.5658 7.15197 14.3562 7.28869 14.0898 7.33594C11.1914 7.37241 8.29297 7.37241 5.39453 7.33594C4.92055 7.2538 4.66535 6.97123 4.62891 6.48828C4.67557 6.00462 4.93078 5.71296 5.39453 5.61328ZM5.23047 8.62109C8.22013 8.61196 11.2097 8.62109 14.1992 8.64844C14.5976 8.77378 14.8163 9.04722 14.8555 9.46875C14.7923 9.86944 14.5736 10.1429 14.1992 10.2891C11.2279 10.3255 8.25649 10.3255 5.28516 10.2891C4.67341 10.04 4.50023 9.61165 4.76562 9.00391C4.89913 8.84236 5.05407 8.71477 5.23047 8.62109ZM5.33984 11.5742C7.4545 11.5651 9.5691 11.5742 11.6836 11.6016C12.3145 11.8334 12.5059 12.2618 12.2578 12.8867C12.134 13.0471 11.979 13.1656 11.793 13.2422C9.60547 13.2787 7.41797 13.2787 5.23047 13.2422C4.63173 12.9406 4.49501 12.494 4.82031 11.9023C4.97577 11.7567 5.14895 11.6473 5.33984 11.5742Z" fill="url(#paint0_linear_31_4451)"/>
</g>
<g id="Group_2">
<path id="Vector_2" opacity="0.982" fill-rule="evenodd" clip-rule="evenodd" d="M11.957 19.9961C13.5248 19.9961 15.0924 19.9961 16.6602 19.9961C16.6853 21.8939 16.6579 23.7897 16.5781 25.6836C16.0495 26.4674 15.5209 27.2513 14.9922 28.0352C14.4711 28.4674 13.9789 28.4309 13.5156 27.9258C12.9781 27.179 12.4677 26.4133 11.9844 25.6289C11.957 23.7514 11.9479 21.8738 11.957 19.9961Z" fill="url(#paint1_linear_31_4451)"/>
</g>
</g>
<defs>
<linearGradient id="paint0_linear_31_4451" x1="0.472656" y1="18.2461" x2="16.2737" y2="-6.95678" gradientUnits="userSpaceOnUse">
<stop stop-color="#0D52FF"/>
<stop offset="1" stop-color="#03EADA"/>
</linearGradient>
<linearGradient id="paint1_linear_31_4451" x1="11.9536" y1="28.3341" x2="19.0992" y2="24.2929" gradientUnits="userSpaceOnUse">
<stop stop-color="#0D52FF"/>
<stop offset="1" stop-color="#03EADA"/>
</linearGradient>
<clipPath id="clip0_31_4451">
<rect width="28" height="28" fill="white" transform="translate(0.5 0.5)"/>
</clipPath>
</defs>
</svg>
