<svg width="28" height="29" viewBox="0 0 28 29" fill="none" xmlns="http://www.w3.org/2000/svg">
<g id="lowest-price 1">
<g id="Group">
<path id="Vector" opacity="0.983" fill-rule="evenodd" clip-rule="evenodd" d="M11.9492 1.07445C13.4995 0.833118 14.6024 1.41645 15.2578 2.82445C15.4625 3.08644 15.7268 3.1867 16.0508 3.12524C16.8797 2.79116 17.7365 2.56329 18.6211 2.44164C19.2088 2.46804 19.4002 2.75971 19.1953 3.31664C18.7447 4.1222 18.2617 4.90605 17.7461 5.6682C14.319 5.74112 10.8919 5.74112 7.46484 5.6682C7.15936 5.1848 6.84037 4.71085 6.50781 4.24633C6.24121 3.84082 6.0498 3.40332 5.93359 2.93383C5.95804 2.66333 6.10384 2.50838 6.37109 2.46898C6.87449 2.45497 7.36668 2.52789 7.84766 2.68773C8.29265 2.81176 8.73015 2.95758 9.16016 3.12524C9.45536 3.19188 9.70145 3.10985 9.89844 2.87914C10.1759 2.38841 10.5131 1.94179 10.9102 1.5393C11.2353 1.32174 11.5817 1.16679 11.9492 1.07445Z" fill="url(#paint0_linear_31_4432)"/>
</g>
<g id="Group_2">
<path id="Vector_2" opacity="0.99" fill-rule="evenodd" clip-rule="evenodd" d="M6.97255 6.70704C10.7278 6.69791 14.483 6.70704 18.2382 6.73438C18.8064 6.98709 18.9978 7.41546 18.8124 8.01954C18.6972 8.27367 18.5058 8.44687 18.2382 8.53907C14.483 8.57555 10.7278 8.57555 6.97255 8.53907C6.40331 8.28445 6.21191 7.85602 6.39834 7.25391C6.51351 6.98359 6.70491 6.80132 6.97255 6.70704Z" fill="url(#paint1_linear_31_4432)"/>
</g>
<g id="Group_3">
<path id="Vector_3" opacity="0.985" fill-rule="evenodd" clip-rule="evenodd" d="M6.91799 9.4961C10.6915 9.48697 14.4649 9.4961 18.2383 9.52345C19.6968 10.9355 20.9364 12.5123 21.957 14.2539C21.2101 14.372 20.7271 14.7913 20.5078 15.5117C20.4805 18.1185 20.4714 20.7252 20.4805 23.332C19.6305 23.2823 19.1383 23.6742 19.0039 24.5078C19.0212 24.732 19.085 24.9417 19.1953 25.1367C19.5417 25.5195 19.8881 25.9024 20.2344 26.2852C20.2709 26.3216 20.2709 26.3581 20.2344 26.3945C19.1035 27.2214 17.8366 27.7044 16.4336 27.8438C13.8815 27.8802 11.3295 27.8802 8.77736 27.8438C5.56168 27.38 3.31038 25.6573 2.02345 22.6758C1.44882 21.0997 1.35767 19.4956 1.75002 17.8633C2.10216 16.4848 2.64903 15.1905 3.39064 13.9805C4.42232 12.3732 5.5981 10.8783 6.91799 9.4961ZM11.9492 13.1055C14.5209 12.9641 16.3347 14.0578 17.3906 16.3867C18.1718 18.9653 17.4699 21.0343 15.2852 22.5938C13.3441 23.6391 11.4482 23.5661 9.59767 22.375C7.60246 20.7273 7.02824 18.6765 7.87502 16.2227C8.70747 14.4869 10.0655 13.4478 11.9492 13.1055Z" fill="url(#paint2_linear_31_4432)"/>
</g>
<g id="Group_4">
<path id="Vector_4" opacity="0.96" fill-rule="evenodd" clip-rule="evenodd" d="M12.2227 14.418C13.8241 14.3573 15.0546 14.9953 15.9141 16.3321C16.8022 18.291 16.4284 19.959 14.793 21.336C13.2248 22.2838 11.6935 22.2291 10.1992 21.1719C8.85126 19.9086 8.49579 18.4047 9.13284 16.6602C9.77433 15.3708 10.8043 14.6234 12.2227 14.418ZM12.4414 15.4024C12.2615 15.5616 12.1521 15.7622 12.1133 16.004C11.5261 16.2355 11.198 16.6639 11.1289 17.2891C11.2829 18.2809 11.8662 18.7548 12.8789 18.711C13.1829 18.9156 13.2194 19.1617 12.9883 19.4493C12.59 19.6431 12.2437 19.5793 11.9492 19.2579C11.4865 19.1188 11.2587 19.292 11.2657 19.7774C11.4476 20.0922 11.7119 20.3109 12.0586 20.4336C12.0567 20.7787 12.2208 20.9792 12.5508 21.0352C12.8828 20.9765 13.065 20.776 13.0977 20.4336C13.6909 20.195 14.0191 19.7575 14.0821 19.1211C13.9149 18.1434 13.3316 17.6786 12.3321 17.7266C12.2538 17.7012 12.19 17.6556 12.1407 17.5899C12.0059 17.3021 12.0696 17.0742 12.3321 16.9063C12.7051 16.8034 13.015 16.8945 13.2617 17.1797C13.6423 17.3266 13.8792 17.199 13.9727 16.7969C13.8459 16.3861 13.5725 16.1218 13.1524 16.004C13.1316 15.5456 12.8946 15.3451 12.4414 15.4024Z" fill="url(#paint3_linear_31_4432)"/>
</g>
<g id="Group_5">
<path id="Vector_5" opacity="0.983" fill-rule="evenodd" clip-rule="evenodd" d="M21.7929 15.2383C22.7227 15.2292 23.6524 15.2383 24.5819 15.2656C24.7369 15.3477 24.8554 15.4662 24.9374 15.6211C24.9647 18.5013 24.9739 21.3814 24.9647 24.2617C25.4208 24.2526 25.8766 24.2617 26.3319 24.2891C26.4159 24.3765 26.4433 24.4768 26.414 24.5899C25.4589 25.6727 24.4836 26.7391 23.4882 27.7891C23.2876 27.8984 23.0872 27.8984 22.8866 27.7891C21.9114 26.7409 20.9361 25.6927 19.9608 24.6445C19.9118 24.5065 19.9392 24.3879 20.0429 24.2891C20.4983 24.2617 20.954 24.2526 21.4101 24.2617C21.4009 21.3814 21.4101 18.5013 21.4374 15.6211C21.4931 15.4289 21.6116 15.3013 21.7929 15.2383Z" fill="url(#paint4_linear_31_4432)"/>
</g>
</g>
<defs>
<linearGradient id="paint0_linear_31_4432" x1="5.93359" y1="5.72289" x2="8.88109" y2="-2.64123" gradientUnits="userSpaceOnUse">
<stop stop-color="#0D52FF"/>
<stop offset="1" stop-color="#03EADA"/>
</linearGradient>
<linearGradient id="paint1_linear_31_4432" x1="6.32935" y1="8.56643" x2="6.87036" y2="4.92109" gradientUnits="userSpaceOnUse">
<stop stop-color="#0D52FF"/>
<stop offset="1" stop-color="#03EADA"/>
</linearGradient>
<linearGradient id="paint2_linear_31_4432" x1="1.51123" y1="27.8711" x2="19.7857" y2="7.54092" gradientUnits="userSpaceOnUse">
<stop stop-color="#0D52FF"/>
<stop offset="1" stop-color="#03EADA"/>
</linearGradient>
<linearGradient id="paint3_linear_31_4432" x1="8.82617" y1="22.0081" x2="16.4201" y2="14.4514" gradientUnits="userSpaceOnUse">
<stop stop-color="#0D52FF"/>
<stop offset="1" stop-color="#03EADA"/>
</linearGradient>
<linearGradient id="paint4_linear_31_4432" x1="19.9373" y1="27.8711" x2="30.2062" y2="22.5985" gradientUnits="userSpaceOnUse">
<stop stop-color="#0D52FF"/>
<stop offset="1" stop-color="#03EADA"/>
</linearGradient>
</defs>
</svg>
