<svg width="28" height="29" viewBox="0 0 28 29" fill="none" xmlns="http://www.w3.org/2000/svg">
<g id="referral 1">
<g id="Group">
<path id="Vector" opacity="0.936" fill-rule="evenodd" clip-rule="evenodd" d="M18.8945 3.863C21.5115 3.70408 23.4164 4.7796 24.6094 7.08956C25.549 9.57467 25.0659 11.7348 23.1602 13.57C22.993 13.7189 22.8107 13.8465 22.6133 13.9528C23.2877 13.9711 23.9623 13.9893 24.6367 14.0075C25.2291 14.1625 25.6029 14.5362 25.7578 15.1286C25.7943 15.7849 25.7943 16.4411 25.7578 17.0974C25.6712 17.3708 25.5345 17.6169 25.3477 17.8357C25.547 18.0245 25.6837 18.2524 25.7578 18.5193C25.7943 19.1937 25.7943 19.8682 25.7578 20.5427C25.6837 20.8096 25.547 21.0374 25.3477 21.2263C25.547 21.4151 25.6837 21.643 25.7578 21.9099C25.7943 22.5843 25.7943 23.2589 25.7578 23.9333C25.5501 24.5603 25.1217 24.934 24.4727 25.0544C21.2096 25.0909 17.9466 25.0909 14.6836 25.0544C14.0352 24.9348 13.6069 24.5611 13.3984 23.9333C11.1821 25.2513 8.87605 25.4245 6.48047 24.4528C3.70604 23.0811 2.24771 20.8389 2.10547 17.7263C2.24899 14.5017 3.78024 12.223 6.69922 10.8903C9.94306 9.785 12.7412 10.4686 15.0938 12.9411C15.3536 13.2466 15.5815 13.5747 15.7773 13.9255C16.0306 13.989 16.2858 13.9981 16.543 13.9528C14.7049 12.6548 13.8936 10.8775 14.1094 8.62081C14.4263 6.628 15.4927 5.197 17.3086 4.32784C17.8266 4.11202 18.3553 3.95707 18.8945 3.863ZM19.1133 4.79269C21.5902 4.74982 23.2217 5.89826 24.0078 8.238C24.423 10.2927 23.7941 11.9424 22.1211 13.1872C20.207 14.2992 18.3659 14.1898 16.5977 12.8591C14.8689 11.1545 14.5499 9.21313 15.6406 7.03487C16.4582 5.75594 17.6158 5.00854 19.1133 4.79269ZM8.66797 11.3005C11.4718 11.0937 13.6137 12.1692 15.0938 14.5271C16.3484 16.9975 16.1843 19.3673 14.6016 21.6364C12.7263 23.8352 10.3838 24.5735 7.57422 23.8513C5.05789 22.9388 3.57221 21.1615 3.11719 18.5193C2.92593 15.1724 4.37515 12.8665 7.46484 11.6013C7.86871 11.4826 8.26973 11.3823 8.66797 11.3005ZM16.3242 14.9099C19.0404 14.9007 21.7565 14.9099 24.4727 14.9372C24.6276 15.0193 24.7461 15.1378 24.8281 15.2927C24.9375 15.8396 24.9375 16.3864 24.8281 16.9333C24.7193 17.1515 24.5461 17.2882 24.3086 17.3435C21.8113 17.3708 19.3139 17.3799 16.8164 17.3708C16.7855 16.5232 16.6214 15.7029 16.3242 14.9099ZM16.8164 18.3005C19.3504 18.2914 21.8842 18.3005 24.418 18.3278C24.6059 18.3883 24.7426 18.5068 24.8281 18.6833C24.9375 19.2484 24.9375 19.8135 24.8281 20.3786C24.7426 20.5552 24.6059 20.6737 24.418 20.7341C21.6836 20.7706 18.9492 20.7706 16.2148 20.7341C16.5646 19.961 16.7651 19.1498 16.8164 18.3005ZM15.668 21.6911C18.5665 21.682 21.4649 21.6911 24.3633 21.7185C24.6836 21.8015 24.8568 22.0112 24.8828 22.3474C24.9287 22.8243 24.9104 23.2982 24.8281 23.7693C24.7426 23.9458 24.6059 24.0643 24.418 24.1247C21.1914 24.1612 17.9648 24.1612 14.7383 24.1247C14.3621 23.965 14.2072 23.6824 14.2734 23.2771C14.8407 22.8332 15.3055 22.3045 15.668 21.6911Z" fill="url(#paint0_linear_42_1243)"/>
</g>
<g id="Group_2">
<path id="Vector_2" opacity="0.93" fill-rule="evenodd" clip-rule="evenodd" d="M19.004 5.50394C21.3561 5.38889 22.8235 6.46442 23.4063 8.73051C23.5983 10.8173 22.7324 12.2665 20.8087 13.0782C18.5409 13.6166 16.9094 12.8419 15.9142 10.7539C15.3423 8.82353 15.8619 7.26494 17.4727 6.07816C17.9557 5.79289 18.4661 5.60149 19.004 5.50394ZM19.0587 6.43363C18.3873 6.58413 17.8131 6.91226 17.336 7.41801C16.494 8.4953 16.3846 9.64373 17.0079 10.8633C17.8915 12.1484 19.0855 12.5767 20.5899 12.1485C22.0168 11.5103 22.6457 10.4074 22.4767 8.83988C21.9846 7.13013 20.8453 6.32803 19.0587 6.43363Z" fill="url(#paint1_linear_42_1243)"/>
</g>
<g id="Group_3">
<path id="Vector_3" opacity="0.923" fill-rule="evenodd" clip-rule="evenodd" d="M19.3869 7.08998C19.7844 7.01982 20.0123 7.18388 20.0705 7.58217C20.3073 7.70943 20.4622 7.90083 20.5353 8.15639C20.3373 8.6739 20.0182 8.75593 19.5783 8.40248C19.3853 8.46663 19.3124 8.59422 19.3595 8.78529C19.66 8.89533 19.9607 9.01383 20.2619 9.14076C20.7828 9.59795 20.8831 10.1357 20.5626 10.754C20.4316 10.9126 20.2766 11.0402 20.0978 11.1369C20.0321 11.611 19.7768 11.7659 19.3322 11.6017C19.2057 11.4691 19.1145 11.3142 19.0587 11.1369C18.6472 10.9135 18.5743 10.6127 18.84 10.2345C18.9329 10.1821 19.0332 10.1548 19.1408 10.1525C19.3089 10.2232 19.4821 10.2688 19.6603 10.2892C19.879 10.1433 19.879 9.99755 19.6603 9.8517C18.5401 9.64383 18.2028 9.01493 18.6486 7.96498C18.7782 7.817 18.924 7.68941 19.0861 7.58217C19.1046 7.36178 19.2049 7.19772 19.3869 7.08998Z" fill="url(#paint2_linear_42_1243)"/>
</g>
<g id="Group_4">
<path id="Vector_4" opacity="0.931" fill-rule="evenodd" clip-rule="evenodd" d="M9.0507 12.5583C11.6371 12.5149 13.4145 13.6816 14.3827 16.0583C15.0826 18.7859 14.235 20.8731 11.8398 22.32C9.46758 23.3239 7.38032 22.9138 5.57804 21.0895C4.12739 19.1764 3.96333 17.153 5.08585 15.0192C6.0221 13.5824 7.34368 12.7621 9.0507 12.5583ZM9.0507 13.488C7.62335 13.7024 6.53874 14.4316 5.79679 15.6755C4.85507 17.7482 5.22876 19.5438 6.91788 21.0622C8.40019 22.0652 9.94965 22.1745 11.5663 21.3903C13.5026 20.1027 14.1133 18.3436 13.3984 16.113C12.5228 14.3004 11.0735 13.4254 9.0507 13.488Z" fill="url(#paint3_linear_42_1243)"/>
</g>
<g id="Group_5">
<path id="Vector_5" opacity="0.932" fill-rule="evenodd" clip-rule="evenodd" d="M7.73828 14.9648C8.98592 15 9.45077 15.6198 9.13281 16.8242C8.631 17.5259 8.00209 17.6626 7.24609 17.2344C6.58984 16.5599 6.58984 15.8854 7.24609 15.2109C7.41519 15.1264 7.57925 15.0444 7.73828 14.9648ZM7.90234 15.8945C7.73533 15.9919 7.67151 16.1377 7.71094 16.332C7.91148 16.6237 8.11196 16.6237 8.3125 16.332C8.32076 16.0576 8.18404 15.9117 7.90234 15.8945Z" fill="url(#paint4_linear_42_1243)"/>
</g>
<g id="Group_6">
<path id="Vector_6" opacity="0.934" fill-rule="evenodd" clip-rule="evenodd" d="M10.7461 15.7853C11.3225 15.714 11.5322 15.951 11.375 16.4962C10.3451 17.5262 9.31509 18.5562 8.28516 19.5861C7.8849 19.7505 7.62973 19.6229 7.51953 19.2033C7.54688 19.1212 7.57422 19.0392 7.60156 18.9572C8.66075 17.9071 9.70895 16.8498 10.7461 15.7853Z" fill="url(#paint5_linear_42_1243)"/>
</g>
<g id="Group_7">
<path id="Vector_7" opacity="0.928" fill-rule="evenodd" clip-rule="evenodd" d="M10.8007 17.918C11.8208 17.9626 12.2857 18.4913 12.1953 19.5039C11.932 20.2329 11.4125 20.5337 10.6367 20.4063C9.88301 20.093 9.6005 19.537 9.789 18.7383C9.98856 18.2885 10.3258 18.015 10.8007 17.918ZM10.9648 18.8477C10.8778 18.887 10.7957 18.9417 10.7187 19.0117C10.5986 19.3841 10.7353 19.5391 11.1288 19.4766C11.3763 19.1924 11.3216 18.9828 10.9648 18.8477Z" fill="url(#paint6_linear_42_1243)"/>
</g>
</g>
<defs>
<linearGradient id="paint0_linear_42_1243" x1="2.10547" y1="25.0818" x2="23.214" y2="1.54206" gradientUnits="userSpaceOnUse">
<stop stop-color="#0D52FF"/>
<stop offset="1" stop-color="#03EADA"/>
</linearGradient>
<linearGradient id="paint1_linear_42_1243" x1="15.6895" y1="13.2437" x2="23.4376" y2="5.50074" gradientUnits="userSpaceOnUse">
<stop stop-color="#0D52FF"/>
<stop offset="1" stop-color="#03EADA"/>
</linearGradient>
<linearGradient id="paint2_linear_42_1243" x1="18.4583" y1="11.6651" x2="22.1232" y2="9.83897" gradientUnits="userSpaceOnUse">
<stop stop-color="#0D52FF"/>
<stop offset="1" stop-color="#03EADA"/>
</linearGradient>
<linearGradient id="paint3_linear_42_1243" x1="4.35132" y1="22.8545" x2="14.6487" y2="12.5858" gradientUnits="userSpaceOnUse">
<stop stop-color="#0D52FF"/>
<stop offset="1" stop-color="#03EADA"/>
</linearGradient>
<linearGradient id="paint4_linear_42_1243" x1="6.75391" y1="17.4778" x2="9.26659" y2="15.0023" gradientUnits="userSpaceOnUse">
<stop stop-color="#0D52FF"/>
<stop offset="1" stop-color="#03EADA"/>
</linearGradient>
<linearGradient id="paint5_linear_42_1243" x1="7.51953" y1="19.6555" x2="11.402" y2="15.7496" gradientUnits="userSpaceOnUse">
<stop stop-color="#0D52FF"/>
<stop offset="1" stop-color="#03EADA"/>
</linearGradient>
<linearGradient id="paint6_linear_42_1243" x1="9.73242" y1="20.4347" x2="12.2488" y2="17.9612" gradientUnits="userSpaceOnUse">
<stop stop-color="#0D52FF"/>
<stop offset="1" stop-color="#03EADA"/>
</linearGradient>
</defs>
</svg>
