<svg width="24" height="25" viewBox="0 0 24 25" fill="none" xmlns="http://www.w3.org/2000/svg">
<g id="settings 1">
<g id="Group">
<path id="Vector" opacity="0.982" fill-rule="evenodd" clip-rule="evenodd" d="M11.2734 1.47675C11.7927 1.45653 12.3083 1.47997 12.8203 1.54706C12.9871 1.63573 13.1043 1.76855 13.1719 1.9455C13.2818 2.40089 13.399 2.85402 13.5234 3.30487C14.1418 3.4223 14.7433 3.59418 15.3281 3.8205C15.6655 3.49876 15.9859 3.16282 16.2891 2.81268C16.5329 2.6596 16.7985 2.61272 17.0859 2.67206C17.5283 2.86564 17.9267 3.12346 18.2813 3.4455C18.3586 3.5838 18.3976 3.73224 18.3984 3.89081C18.2892 4.38916 18.172 4.88134 18.0469 5.36737C18.5173 5.79098 18.9704 6.22851 19.4063 6.67987C19.8036 6.55903 20.202 6.44184 20.6016 6.32831C20.8314 6.28439 21.0502 6.31565 21.2578 6.42206C21.5798 6.77657 21.8377 7.17501 22.0313 7.61737C22.0692 7.84036 22.0536 8.05912 21.9844 8.27362C21.6197 8.63826 21.2525 9.00548 20.8828 9.37518C21.1232 9.95404 21.2795 10.5556 21.3516 11.1799C21.8913 11.2992 22.4226 11.4476 22.9453 11.6252C23.061 11.7396 23.147 11.8724 23.2031 12.0236C23.2344 12.4924 23.2344 12.9611 23.2031 13.4299C23.147 13.5811 23.061 13.7139 22.9453 13.8283C22.4547 13.9979 21.9547 14.1385 21.4453 14.2502C21.3948 14.2818 21.3635 14.3287 21.3516 14.3908C21.2607 14.9731 21.1044 15.5356 20.8828 16.0783C21.2046 16.4157 21.5405 16.7361 21.8906 17.0392C22.0437 17.2831 22.0906 17.5487 22.0313 17.8361C21.8288 18.2724 21.571 18.6709 21.2578 19.0314C21.1195 19.1088 20.9711 19.1478 20.8125 19.1486C20.318 19.0269 19.8258 18.9097 19.3359 18.7971C18.9213 19.2663 18.4838 19.7116 18.0234 20.133C18.1406 20.539 18.2578 20.9452 18.375 21.3517C18.4189 21.5816 18.3877 21.8003 18.2813 22.008C17.9267 22.33 17.5283 22.5878 17.0859 22.7814C16.863 22.8194 16.6442 22.8037 16.4297 22.7346C16.065 22.3699 15.6978 22.0027 15.3281 21.633C14.7493 21.8734 14.1477 22.0297 13.5234 22.1017C13.4041 22.6415 13.2557 23.1727 13.0781 23.6955C12.9637 23.8112 12.8309 23.8972 12.6797 23.9533C12.2109 23.9846 11.7422 23.9846 11.2734 23.9533C11.1222 23.8972 10.9894 23.8112 10.875 23.6955C10.7055 23.2049 10.5648 22.7049 10.4531 22.1955C10.4215 22.145 10.3747 22.1137 10.3125 22.1017C9.73017 22.0109 9.16767 21.8546 8.625 21.633C8.2876 21.9547 7.96725 22.2907 7.66406 22.6408C7.42022 22.7939 7.15458 22.8408 6.86719 22.7814C6.43088 22.579 6.03244 22.3212 5.67188 22.008C5.59453 21.8697 5.55549 21.7213 5.55469 21.5627C5.67638 21.0682 5.79356 20.576 5.90625 20.0861C5.43581 19.6625 4.98272 19.225 4.54688 18.7736C4.1495 18.8945 3.75107 19.0117 3.35156 19.1252C3.12172 19.1691 2.90297 19.1378 2.69531 19.0314C2.37327 18.6769 2.11546 18.2785 1.92188 17.8361C1.88392 17.6131 1.89954 17.3944 1.96875 17.1799C2.3334 16.8152 2.70059 16.448 3.07031 16.0783C2.82989 15.4994 2.67364 14.8979 2.60156 14.2736C2.06183 14.1543 1.53058 14.0059 1.00781 13.8283C0.892098 13.7139 0.806157 13.5811 0.750001 13.4299C0.71875 12.9611 0.71875 12.4924 0.750001 12.0236C0.806157 11.8724 0.892098 11.7396 1.00781 11.6252C1.49841 11.4556 1.9984 11.315 2.50781 11.2033C2.55836 11.1717 2.58962 11.1248 2.60156 11.0627C2.69242 10.4804 2.84867 9.91786 3.07031 9.37518C2.74857 9.03778 2.41263 8.71743 2.0625 8.41425C1.90942 8.1704 1.86254 7.90476 1.92188 7.61737C2.11546 7.17501 2.37327 6.77657 2.69531 6.42206C2.83362 6.34471 2.98205 6.30567 3.14063 6.30487C3.63511 6.42656 4.12729 6.54375 4.61719 6.65643C5.0318 6.18717 5.46928 5.74186 5.92969 5.3205C5.81255 4.91451 5.69536 4.50826 5.57813 4.10175C5.49234 3.67183 5.64075 3.35152 6.02344 3.14081C6.30469 2.98456 6.58594 2.82831 6.86719 2.67206C7.09017 2.6341 7.30894 2.64973 7.52344 2.71893C7.88808 3.08358 8.2553 3.45077 8.625 3.8205C9.20386 3.58007 9.80541 3.42382 10.4297 3.35175C10.5466 2.88389 10.6638 2.41514 10.7813 1.9455C10.88 1.71381 11.044 1.55756 11.2734 1.47675ZM11.8359 5.97675C14.6502 6.07443 16.7205 7.35567 18.0469 9.8205C19.2776 12.8359 18.7385 15.4843 16.4297 17.7658C14.1834 19.5756 11.7303 19.9193 9.07031 18.7971C6.234 17.2378 4.99181 14.8394 5.34375 11.6017C5.7982 9.35573 7.04039 7.70732 9.07031 6.65643C9.95677 6.25903 10.8787 6.03243 11.8359 5.97675ZM11.8828 12.3517C12.743 12.4317 13.1258 12.9004 13.0313 13.758C12.9131 14.0949 12.6944 14.345 12.375 14.508C12.3697 14.8398 12.3384 15.1679 12.2813 15.4924C12.1415 15.6891 11.9618 15.7281 11.7422 15.6096C11.7128 15.5744 11.6894 15.5353 11.6719 15.4924C11.6147 15.1679 11.5835 14.8398 11.5781 14.508C10.8402 14.0574 10.6995 13.4636 11.1563 12.7267C11.3739 12.5438 11.616 12.4188 11.8828 12.3517Z" fill="#03EADA"/>
</g>
<g id="Group_2">
<path id="Vector_2" opacity="0.973" fill-rule="evenodd" clip-rule="evenodd" d="M11.4611 7.47664C13.0803 7.34 14.1194 8.04312 14.5783 9.58601C14.6172 9.91526 14.6094 10.2434 14.5548 10.5704C14.4481 10.537 14.3388 10.5135 14.2267 10.5001C13.727 10.4766 13.227 10.4688 12.7267 10.4766C12.7966 9.99926 12.6247 9.6477 12.2111 9.42195C11.7849 9.32646 11.4803 9.47487 11.297 9.86726C11.2466 10.0674 11.2232 10.2705 11.2267 10.4766C10.7265 10.4688 10.2264 10.4766 9.72671 10.5001C9.61463 10.5135 9.50527 10.537 9.39858 10.5704C9.22036 9.36106 9.64224 8.43139 10.6642 7.78132C10.9295 7.66446 11.1951 7.56293 11.4611 7.47664Z" fill="#03EADA"/>
</g>
<g id="Group_3">
<path id="Vector_3" opacity="0.989" fill-rule="evenodd" clip-rule="evenodd" d="M9.39845 11.2266C11.1173 11.2187 12.836 11.2266 14.5547 11.25C14.9375 11.3828 15.1953 11.6406 15.3281 12.0234C15.3594 13.4922 15.3594 14.961 15.3281 16.4297C15.1953 16.8125 14.9375 17.0703 14.5547 17.2031C12.8359 17.2344 11.1172 17.2344 9.39845 17.2031C9.01562 17.0703 8.75781 16.8125 8.62501 16.4297C8.59375 14.961 8.59375 13.4922 8.62501 12.0234C8.76653 11.6398 9.02434 11.3742 9.39845 11.2266ZM11.8828 12.3516C11.6161 12.4186 11.3739 12.5436 11.1563 12.7266C10.6996 13.4634 10.8402 14.0572 11.5781 14.5078C11.5835 14.8396 11.6147 15.1678 11.6719 15.4922C11.6894 15.5351 11.7129 15.5742 11.7422 15.6094C11.9619 15.7279 12.1415 15.6889 12.2813 15.4922C12.3384 15.1678 12.3697 14.8396 12.375 14.5078C12.6944 14.3448 12.9131 14.0948 13.0313 13.7578C13.1258 12.9002 12.743 12.4315 11.8828 12.3516Z" fill="#03EADA"/>
</g>
<g id="Group_4">
<path id="Vector_4" opacity="0.894" fill-rule="evenodd" clip-rule="evenodd" d="M11.7891 13.1016C12.3216 13.0645 12.4779 13.2911 12.2579 13.7812C11.764 13.9686 11.5531 13.8045 11.6251 13.2891C11.6574 13.2023 11.7121 13.1398 11.7891 13.1016Z" fill="#03EADA"/>
</g>
</g>
</svg>
