<svg width="24" height="25" viewBox="0 0 24 25" fill="none" xmlns="http://www.w3.org/2000/svg">
<g id="term-loan 2">
<g id="Group">
<path id="Vector" opacity="0.989" fill-rule="evenodd" clip-rule="evenodd" d="M3.63281 1.71094C7.86722 1.70312 12.1016 1.71094 16.3359 1.73438C17.1983 1.92485 17.7374 2.44829 17.9531 3.30469C17.9538 9.58688 17.9851 15.8681 18.0469 22.1484C18.3242 23.0974 18.957 23.6208 19.9453 23.7188C14.5078 23.75 9.07031 23.75 3.63281 23.7188C2.69247 23.4972 2.13778 22.9112 1.96875 21.9609C1.9375 15.8047 1.9375 9.64842 1.96875 3.49219C2.14644 2.5412 2.70113 1.94746 3.63281 1.71094ZM7.85156 5.50781C9.25791 5.49998 10.6642 5.50781 12.0703 5.53125C12.2643 5.71594 12.233 5.85656 11.9766 5.95313C10.6485 5.98439 9.3203 5.98439 7.99219 5.95313C7.74267 5.87002 7.6958 5.72156 7.85156 5.50781ZM5.97656 7.47656C8.64849 7.46874 11.3204 7.47656 13.9922 7.5C14.1966 7.60003 14.2278 7.74066 14.0859 7.92188C11.3516 7.95314 8.61717 7.95314 5.88281 7.92188C5.73267 7.83061 5.70924 7.71342 5.8125 7.57031C5.87353 7.54289 5.92824 7.51167 5.97656 7.47656ZM5.88281 9.49219C8.60161 9.48436 11.3204 9.49219 14.0391 9.51563C14.174 9.59372 14.2131 9.71091 14.1563 9.86719C14.1211 9.89653 14.082 9.91997 14.0391 9.9375C11.3203 9.96877 8.60156 9.96877 5.88281 9.9375C5.69911 9.78938 5.69911 9.64092 5.88281 9.49219ZM4.94531 13.4766C5.72836 13.4582 6.50963 13.4817 7.28906 13.5469C7.662 13.6622 7.94325 13.8888 8.13281 14.2266C8.40014 13.9591 8.68139 13.7092 8.97656 13.4766C9.14255 13.5278 9.21286 13.6372 9.1875 13.8047C8.87499 14.1172 8.56252 14.4297 8.25 14.7422C8.24475 15.5094 8.21353 16.275 8.15625 17.0391C7.96289 17.6087 7.56445 17.9134 6.96094 17.9531C6.30469 17.9844 5.64844 17.9844 4.99219 17.9531C4.23437 17.8828 3.82031 17.4688 3.75 16.7109C3.70838 15.9436 3.724 15.178 3.79688 14.4141C3.98864 13.8619 4.37145 13.5494 4.94531 13.4766ZM10.9922 13.4766C12.3204 13.4687 13.6485 13.4766 14.9766 13.5C15.2321 13.5942 15.2633 13.7348 15.0703 13.9219C13.6641 13.9531 12.2578 13.9531 10.8516 13.9219C10.7018 13.7092 10.7487 13.5607 10.9922 13.4766ZM10.8984 15.4922C12.2735 15.4844 13.6485 15.4922 15.0234 15.5156C15.2734 15.6562 15.2734 15.7969 15.0234 15.9375C13.6485 15.9688 12.2734 15.9688 10.8984 15.9375C10.7147 15.7894 10.7147 15.6409 10.8984 15.4922ZM4.94531 19.4766C8.28909 19.4687 11.6328 19.4766 14.9766 19.5C15.5887 19.5594 15.9871 19.8797 16.1719 20.4609C16.2492 21.2363 15.9132 21.7285 15.1641 21.9375C11.7109 21.9688 8.25783 21.9688 4.80469 21.9375C4.01807 21.7321 3.68214 21.2243 3.79688 20.4141C3.98864 19.8619 4.37145 19.5494 4.94531 19.4766Z" fill="#03EADA"/>
</g>
<g id="Group_2">
<path id="Vector_2" opacity="0.955" fill-rule="evenodd" clip-rule="evenodd" d="M4.80469 13.9453C5.58609 13.9375 6.36736 13.9453 7.14844 13.9688C7.51317 14.0823 7.69284 14.3245 7.6875 14.6953C7.27345 15.1094 6.85936 15.5235 6.44531 15.9375C6.1328 16.1563 5.82033 16.1563 5.50781 15.9375C5.09377 15.5235 4.67969 15.1094 4.26562 14.6953C4.26973 14.3234 4.44941 14.0734 4.80469 13.9453Z" fill="#03EADA"/>
</g>
<g id="Group_3">
<path id="Vector_3" opacity="0.919" fill-rule="evenodd" clip-rule="evenodd" d="M4.19531 15.3047C4.57396 15.6128 4.93336 15.9488 5.27343 16.3125C5.74218 16.5938 6.21093 16.5938 6.67968 16.3125C7.01629 15.9681 7.36003 15.6321 7.71093 15.3047C7.76559 15.8353 7.77337 16.3665 7.73437 16.8984C7.66406 17.2187 7.46873 17.4141 7.14843 17.4844C6.36717 17.5156 5.58595 17.5156 4.80468 17.4844C4.48437 17.4141 4.28906 17.2187 4.21875 16.8984C4.19531 16.3674 4.1875 15.8362 4.19531 15.3047Z" fill="#03EADA"/>
</g>
<g id="Group_4">
<path id="Vector_4" opacity="0.975" fill-rule="evenodd" clip-rule="evenodd" d="M18.4453 17.6953C19.0393 17.6875 19.633 17.6953 20.2266 17.7188C21.2188 17.8984 21.8047 18.4844 21.9844 19.4766C22.0156 20.3047 22.0156 21.1328 21.9844 21.9609C21.9284 22.4557 21.7175 22.8698 21.3516 23.2031C20.7083 23.2465 20.0677 23.2309 19.4297 23.1563C18.892 22.9324 18.5717 22.5339 18.4688 21.9609C18.4453 20.5391 18.4375 19.1173 18.4453 17.6953Z" fill="#03EADA"/>
</g>
<g id="Group_5">
<path id="Vector_5" opacity="0.965" fill-rule="evenodd" clip-rule="evenodd" d="M4.80469 19.9453C8.25783 19.9375 11.711 19.9453 15.1641 19.9688C15.6463 20.1597 15.826 20.5112 15.7031 21.0234C15.614 21.2531 15.4499 21.4016 15.2109 21.4688C11.7266 21.5 8.24217 21.5 4.75781 21.4688C4.40097 21.3499 4.21347 21.0999 4.19531 20.7188C4.21925 20.3127 4.42237 20.0549 4.80469 19.9453Z" fill="#03EADA"/>
</g>
</g>
</svg>
