<svg width="16" height="16" viewBox="0 0 16 16" fill="none" xmlns="http://www.w3.org/2000/svg">
<g id="wallet (3) 1" clip-path="url(#clip0_46_2594)">
<g id="Group">
<path id="Vector" d="M11.291 3.25146C11.7491 4.20209 11.8673 5.20126 11.6454 6.24896" stroke="#C69C46" stroke-width="0.0625"/>
<path id="Vector_2" d="M11.6454 6.24902L10.6107 6.24965" stroke="#D0A954" stroke-width="0.0625"/>
<path id="Vector_3" d="M10.6107 6.24938C10.7497 5.74417 10.7835 5.22875 10.7123 4.70312" stroke="#FFC13B" stroke-width="0.0625"/>
<path id="Vector_4" d="M10.7123 4.70332C10.5958 3.7602 10.2275 2.94311 9.60728 2.25207C8.88395 1.44603 7.9729 0.958841 6.87415 0.790508C6.85665 0.787799 6.85113 0.778529 6.85759 0.762695" stroke="#FFD03C" stroke-width="0.0625"/>
<path id="Vector_5" d="M14.7497 8.99854L14 8.99979" stroke="#C68B45" stroke-width="0.0625"/>
<path id="Vector_6" d="M14.0001 9H13.4991" stroke="#C69358" stroke-width="0.0625"/>
<path id="Vector_7" d="M13.4991 8.99996C13.5004 8.33184 13.4985 7.66517 13.4935 6.99996C13.4914 6.70288 13.3859 6.45819 13.1769 6.2659C13.1655 6.25527 13.1518 6.24996 13.136 6.24996L11.6454 6.24902" stroke="#977B71" stroke-width="0.0625"/>
<path id="Vector_8" d="M10.6107 6.24951H8.47534" stroke="#D0A066" stroke-width="0.0625"/>
<path id="Vector_9" d="M8.47533 6.24934C8.48283 6.18434 8.48856 6.12184 8.49252 6.06184C8.50752 5.83538 8.45648 5.63444 8.33939 5.45902C8.17085 5.20673 7.94304 5.05861 7.65596 5.01465C7.47189 4.98621 7.26377 4.99902 7.07471 5.00121C6.98325 5.00225 6.90783 4.9935 6.84846 4.97496C6.40783 4.83715 6.38096 4.21746 6.80596 4.03934C6.87762 4.00934 6.98273 3.99517 7.12127 3.99684C7.48689 4.00163 7.862 4.00215 8.24658 3.9984C8.57752 3.99527 8.58096 3.50371 8.25002 3.5009C8.00523 3.49882 7.76075 3.4985 7.51658 3.49996C7.51446 3.5 7.51236 3.49962 7.51039 3.49884C7.50842 3.49806 7.50662 3.49689 7.50511 3.49541C7.5036 3.49392 7.5024 3.49215 7.50157 3.4902C7.50075 3.48824 7.50033 3.48614 7.50033 3.48402C7.49992 3.33361 7.50002 3.18121 7.50064 3.02684C7.50127 2.86934 7.39158 2.7309 7.22408 2.75277C7.04939 2.77559 6.99346 2.90996 6.99783 3.07059C7.00158 3.21121 7.00169 3.34902 6.99814 3.48402C6.99807 3.48801 6.99651 3.49181 6.99378 3.49466C6.99105 3.4975 6.98736 3.49918 6.98346 3.49934C6.77387 3.50829 6.59117 3.56704 6.43533 3.67559C5.90158 4.04746 5.85002 4.8059 6.33471 5.24371C6.55377 5.44152 6.80939 5.50559 7.09752 5.50184C7.20919 5.50059 7.32492 5.49923 7.44471 5.49777C7.64877 5.49527 7.82283 5.56715 7.92846 5.74277C8.02283 5.89944 8.02533 6.06809 7.93596 6.24871" stroke="#F7D39E" stroke-width="0.0625"/>
<path id="Vector_10" d="M7.93604 6.24902L5.14136 6.24965" stroke="#D0A066" stroke-width="0.0625"/>
<path id="Vector_11" d="M10.7122 4.70314C10.5835 3.95773 10.2635 3.32408 9.75223 2.80221C9.22827 2.267 8.59504 1.93335 7.85254 1.80127" stroke="#FFC64E" stroke-width="0.0625"/>
<path id="Vector_12" d="M7.85252 1.80155C6.95898 1.65676 6.15117 1.80853 5.42908 2.25687C4.83783 2.62395 4.39627 3.10707 4.10439 3.70624C3.71294 4.50895 3.64148 5.35666 3.89002 6.24937" stroke="#FFBE3B" stroke-width="0.0625"/>
<path id="Vector_13" d="M3.89005 6.24947L2.85974 6.24854" stroke="#D0AF67" stroke-width="0.0625"/>
<path id="Vector_14" d="M2.85977 6.24812C2.63685 5.19812 2.75612 4.19875 3.21758 3.25" stroke="#C6A259" stroke-width="0.0625"/>
<path id="Vector_15" d="M13.4991 9C13.0899 9 12.684 9 12.2813 9C11.9857 9 11.7779 9.01146 11.6582 9.03438C11.299 9.1025 10.9939 9.26844 10.7428 9.53219C10.3635 9.93073 10.204 10.4019 10.2644 10.9456" stroke="#D0A066" stroke-width="0.0625"/>
<path id="Vector_16" d="M10.2644 10.9453C10.2869 11.1843 10.3476 11.3922 10.4466 11.5691C10.711 12.0418 11.0991 12.3389 11.611 12.4603C11.7206 12.4864 11.8614 12.4995 12.0335 12.4997C12.5145 12.4999 13.002 12.5 13.496 12.5" stroke="#D09853" stroke-width="0.0625"/>
<path id="Vector_17" d="M13.496 12.5C13.5041 13.0356 13.5052 13.3793 13.4991 13.5309C13.4816 13.96 13.2035 14.3256 12.7988 14.4534C12.6955 14.4859 12.5348 14.5021 12.3169 14.5019C8.96714 14.4979 5.61953 14.498 2.27412 14.5022C1.99578 14.5024 1.79339 14.4884 1.66693 14.4603C1.29401 14.3772 0.988491 14.1683 0.750366 13.8337" stroke="#977B71" stroke-width="0.0625"/>
<path id="Vector_18" d="M14.75 12.5016L13.496 12.5" stroke="#C68B45" stroke-width="0.0625"/>
<path id="Vector_19" d="M14 9C14 9.50875 13.9998 10.0161 13.9994 10.5222C13.9994 10.7809 13.9848 10.955 13.9557 11.0444C13.8132 11.4806 13.426 11.7547 12.9675 11.7503C12.6527 11.7474 12.3297 11.7479 11.9985 11.7519C11.752 11.755 11.5578 11.7427 11.416 11.715C10.9528 11.6248 10.569 11.3683 10.2644 10.9456" stroke="#FFAF3A" stroke-width="0.0625"/>
<path id="Vector_20" d="M7.85253 1.80127C7.13565 1.95273 6.53034 2.27325 6.03659 2.76283C5.21472 3.57752 4.8519 4.73939 5.05847 5.88783C5.07013 5.95179 5.09774 6.07231 5.14128 6.24939" stroke="#FFAF3A" stroke-width="0.0625"/>
<path id="Vector_21" d="M5.14126 6.24934L3.89001 6.24902" stroke="#D09853" stroke-width="0.0625"/>
<path id="Vector_22" d="M8.47541 6.24965L7.93604 6.24902" stroke="#C8BBB7" stroke-width="0.0625"/>
<path id="Vector_23" d="M2.85973 6.24854C2.63994 6.25354 2.4215 6.25187 2.20441 6.24354C2.03796 6.23729 1.89889 6.21604 1.78723 6.17979C1.37681 6.04666 1.07493 5.77989 0.881602 5.37947C0.868508 5.35225 0.858042 5.32367 0.850352 5.29416C0.830977 5.21874 0.797852 5.13843 0.750977 5.05322" stroke="#977B71" stroke-width="0.0625"/>
<path id="Vector_24" d="M12.5054 10.7496C12.5054 10.6163 12.4524 10.4885 12.3582 10.3942C12.2639 10.3 12.1361 10.2471 12.0029 10.2471C11.8696 10.2471 11.7418 10.3 11.6475 10.3942C11.5533 10.4885 11.5004 10.6163 11.5004 10.7496C11.5004 10.8828 11.5533 11.0107 11.6475 11.1049C11.7418 11.1991 11.8696 11.2521 12.0029 11.2521C12.1361 11.2521 12.2639 11.1991 12.3582 11.1049C12.4524 11.0107 12.5054 10.8828 12.5054 10.7496Z" stroke="#F7D39E" stroke-width="0.0625"/>
</g>
<path id="Vector_25" d="M11.2909 3.25158C11.749 4.20221 11.8672 5.20138 11.6453 6.24908L10.6106 6.24971C10.7496 5.7445 10.7834 5.22908 10.7122 4.70346C10.5957 3.76033 10.2274 2.94325 9.60716 2.25221C8.88382 1.44617 7.97278 0.95898 6.87403 0.790646C6.85653 0.787938 6.85101 0.778667 6.85747 0.762834C7.7658 0.689709 8.60935 0.863355 9.3881 1.28377C10.0904 1.66294 10.6578 2.19981 11.0903 2.8944C11.1269 2.95356 11.1938 3.07263 11.2909 3.25158Z" fill="#FFCA28"/>
<path id="Vector_26" d="M6.85746 0.762695C6.851 0.778529 6.85652 0.787799 6.87402 0.790508C7.97277 0.958841 8.88381 1.44603 9.60715 2.25207C10.2274 2.94311 10.5957 3.7602 10.7121 4.70332C10.5834 3.9579 10.2634 3.32426 9.75215 2.80238C9.22819 2.26717 8.59496 1.93353 7.85246 1.80145C6.95892 1.65665 6.1511 1.80842 5.42902 2.25676C4.83777 2.62384 4.39621 3.10697 4.10433 3.70613C3.71288 4.50884 3.64142 5.35655 3.88996 6.24926L2.85965 6.24832C2.63673 5.19832 2.756 4.19895 3.21746 3.2502C3.84902 1.99582 4.99746 1.11676 6.37496 0.83582C6.48975 0.812487 6.65058 0.788112 6.85746 0.762695Z" fill="#FFD54F"/>
<path id="Vector_27" d="M7.85252 1.80155C7.13564 1.95301 6.53033 2.27353 6.03658 2.76312C5.21471 3.5778 4.85189 4.73968 5.05846 5.88812C5.07012 5.95208 5.09773 6.0726 5.14127 6.24968L3.89002 6.24937C3.64148 5.35666 3.71294 4.50895 4.10439 3.70624C4.39627 3.10707 4.83783 2.62395 5.42908 2.25687C6.15117 1.80853 6.95898 1.65676 7.85252 1.80155Z" fill="#FFA726"/>
<path id="Vector_28" d="M7.85253 1.80176C8.59503 1.93384 9.22826 2.26749 9.75222 2.8027C10.2635 3.32457 10.5835 3.95822 10.7122 4.70363C10.7835 5.22926 10.7496 5.74467 10.6107 6.24988H8.47534C8.48284 6.18488 8.48857 6.12238 8.49253 6.06238C8.50753 5.83592 8.45649 5.63499 8.3394 5.45957C8.17086 5.20728 7.94305 5.05915 7.65597 5.0152C7.4719 4.98676 7.26378 4.99957 7.07472 5.00176C6.98326 5.0028 6.90784 4.99405 6.84847 4.97551C6.40784 4.8377 6.38097 4.21801 6.80597 4.03988C6.87763 4.00988 6.98274 3.99572 7.12128 3.99738C7.4869 4.00217 7.86201 4.0027 8.24659 3.99895C8.57753 3.99582 8.58097 3.50426 8.25003 3.50145C8.00524 3.49936 7.76076 3.49905 7.51659 3.50051C7.51447 3.50055 7.51237 3.50017 7.5104 3.49939C7.50843 3.4986 7.50663 3.49744 7.50512 3.49595C7.50361 3.49447 7.50241 3.4927 7.50158 3.49074C7.50076 3.48879 7.50034 3.48669 7.50034 3.48457C7.49993 3.33415 7.50003 3.18176 7.50065 3.02738C7.50128 2.86988 7.39159 2.73145 7.22409 2.75332C7.0494 2.77613 6.99347 2.91051 6.99784 3.07113C7.00159 3.21176 7.0017 3.34957 6.99815 3.48457C6.99808 3.48855 6.99652 3.49236 6.99379 3.4952C6.99106 3.49805 6.98737 3.49972 6.98347 3.49988C6.77388 3.50884 6.59118 3.56759 6.43534 3.67613C5.90159 4.04801 5.85003 4.80645 6.33472 5.24426C6.55378 5.44207 6.8094 5.50613 7.09753 5.50238C7.2092 5.50113 7.32493 5.49978 7.44472 5.49832C7.64878 5.49582 7.82284 5.5677 7.92847 5.74332C8.02284 5.89999 8.02534 6.06863 7.93597 6.24926L5.14128 6.24988C5.09774 6.0728 5.07013 5.95228 5.05847 5.88832C4.8519 4.73988 5.21472 3.57801 6.03659 2.76332C6.53034 2.27374 7.13565 1.95322 7.85253 1.80176Z" fill="#FFB74D"/>
<path id="Vector_29" d="M8.47533 6.24983L7.93596 6.2492C8.02533 6.06857 8.02283 5.89993 7.92846 5.74326C7.82283 5.56764 7.64877 5.49576 7.44471 5.49826C7.32492 5.49972 7.20919 5.50108 7.09752 5.50233C6.80939 5.50608 6.55377 5.44201 6.33471 5.2442C5.85002 4.80639 5.90158 4.04795 6.43533 3.67607C6.59117 3.56753 6.77387 3.50878 6.98346 3.49982C6.98736 3.49966 6.99105 3.49799 6.99378 3.49514C6.99651 3.4923 6.99807 3.48849 6.99814 3.48451C7.00169 3.34951 7.00158 3.2117 6.99783 3.07107C6.99346 2.91045 7.04939 2.77607 7.22408 2.75326C7.39158 2.73139 7.50127 2.86982 7.50064 3.02732C7.50002 3.1817 7.49992 3.3341 7.50033 3.48451C7.50033 3.48663 7.50075 3.48873 7.50157 3.49068C7.5024 3.49264 7.5036 3.49441 7.50511 3.49589C7.50662 3.49738 7.50842 3.49855 7.51039 3.49933C7.51236 3.50011 7.51446 3.50049 7.51658 3.50045C7.76075 3.49899 8.00523 3.4993 8.25002 3.50139C8.58096 3.5042 8.57752 3.99576 8.24658 3.99889C7.862 4.00264 7.48689 4.00212 7.12127 3.99732C6.98273 3.99566 6.87762 4.00982 6.80596 4.03982C6.38096 4.21795 6.40783 4.83764 6.84846 4.97545C6.90783 4.99399 6.98325 5.00274 7.07471 5.0017C7.26377 4.99951 7.47189 4.9867 7.65596 5.01514C7.94304 5.0591 8.17085 5.20722 8.33939 5.45951C8.45648 5.63493 8.50752 5.83587 8.49252 6.06233C8.48856 6.12232 8.48283 6.18482 8.47533 6.24983Z" fill="#EEEEEE"/>
<path id="Vector_30" d="M3.21754 3.25047C2.75608 4.19922 2.63681 5.19859 2.85973 6.24859C2.63994 6.25359 2.4215 6.25193 2.20441 6.24359C2.03796 6.23734 1.89889 6.21609 1.78723 6.17984C1.37681 6.04672 1.07493 5.77995 0.881602 5.37953C0.868508 5.3523 0.858042 5.32373 0.850352 5.29422C0.830977 5.2188 0.797852 5.13849 0.750977 5.05328C0.757018 4.98911 0.758789 4.92349 0.756289 4.85641C0.753789 4.78641 0.75431 4.7213 0.757852 4.66109C0.779518 4.28026 0.921914 3.95995 1.18504 3.70016C1.48796 3.40099 1.83785 3.25109 2.23473 3.25047C2.56223 3.24984 2.88983 3.24984 3.21754 3.25047Z" fill="#8D6E63"/>
<path id="Vector_31" d="M11.2909 3.25139C11.6765 3.25014 12.0597 3.24951 12.4406 3.24951C12.7445 3.24951 12.9492 3.26566 13.0546 3.29795C13.465 3.42295 13.7484 3.81982 13.749 4.25607C13.7501 4.91274 13.7501 5.57055 13.749 6.22951C13.749 6.24118 13.7549 6.24722 13.7665 6.24764C14.0736 6.25597 14.3235 6.37378 14.5162 6.60107C14.6025 6.70253 14.6661 6.81691 14.7071 6.9442C14.7351 7.03066 14.7491 7.15284 14.7493 7.31076C14.7502 7.87243 14.7503 8.43503 14.7496 8.99857L14 8.99982H13.499C13.5003 8.3317 13.4984 7.66503 13.4934 6.99982C13.4913 6.70274 13.3858 6.45805 13.1768 6.26576C13.1654 6.25514 13.1517 6.24982 13.1359 6.24982L11.6453 6.24889C11.8671 5.20118 11.749 4.20201 11.2909 3.25139Z" fill="#8D6E63"/>
<path id="Vector_32" d="M0.750991 5.05322C0.797866 5.13843 0.830991 5.21874 0.850366 5.29416C0.858057 5.32367 0.868522 5.35225 0.881616 5.37947C1.07495 5.77989 1.37682 6.04666 1.78724 6.17979C1.89891 6.21604 2.03797 6.23729 2.20443 6.24354C2.42151 6.25187 2.63995 6.25354 2.85974 6.24854L3.89005 6.24947L5.1413 6.24979L7.93599 6.24916L8.47537 6.24979H10.6107L11.6454 6.24916L13.136 6.2501C13.1518 6.2501 13.1655 6.25541 13.1769 6.26604C13.3859 6.45833 13.4914 6.70301 13.4935 7.0001C13.4985 7.66531 13.5004 8.33197 13.4991 9.0001C13.0899 9.0001 12.684 9.0001 12.2813 9.0001C11.9857 9.0001 11.778 9.01156 11.6582 9.03447C11.299 9.1026 10.9939 9.26854 10.7429 9.53229C10.3635 9.93083 10.204 10.402 10.2644 10.9457C10.2869 11.1847 10.3477 11.3926 10.4466 11.5695C10.711 12.0422 11.0991 12.3393 11.611 12.4607C11.7206 12.4868 11.8614 12.4999 12.0335 12.5001C12.5145 12.5003 13.002 12.5004 13.496 12.5004C13.5041 13.036 13.5052 13.3797 13.4991 13.5313C13.4816 13.9604 13.2035 14.326 12.7988 14.4538C12.6955 14.4863 12.5348 14.5025 12.3169 14.5023C8.96714 14.4983 5.61953 14.4984 2.27412 14.5026C1.99578 14.5028 1.79339 14.4888 1.66693 14.4607C1.29401 14.3776 0.988491 14.1687 0.750366 13.8342L0.750991 5.05322Z" fill="#A1887F"/>
<path id="Vector_33" d="M13.4991 9H14C14 9.50875 13.9998 10.0161 13.9994 10.5222C13.9994 10.7809 13.9848 10.955 13.9557 11.0444C13.8132 11.4806 13.426 11.7547 12.9675 11.7503C12.6527 11.7474 12.3297 11.7479 11.9985 11.7519C11.752 11.755 11.5578 11.7427 11.416 11.715C10.9528 11.6248 10.569 11.3683 10.2644 10.9456C10.204 10.4019 10.3635 9.93073 10.7428 9.53219C10.9939 9.26844 11.299 9.1025 11.6582 9.03438C11.7779 9.01146 11.9857 9 12.2813 9C12.684 9 13.0899 9 13.4991 9ZM12.5053 10.7497C12.5053 10.6164 12.4524 10.4886 12.3582 10.3944C12.2639 10.3001 12.1361 10.2472 12.0028 10.2472C11.8696 10.2472 11.7418 10.3001 11.6475 10.3944C11.5533 10.4886 11.5003 10.6164 11.5003 10.7497C11.5003 10.883 11.5533 11.0108 11.6475 11.105C11.7418 11.1992 11.8696 11.2522 12.0028 11.2522C12.1361 11.2522 12.2639 11.1992 12.3582 11.105C12.4524 11.0108 12.5053 10.883 12.5053 10.7497Z" fill="#FFB74D"/>
<path id="Vector_34" d="M14 9.00003L14.7497 8.99878C14.9482 8.99222 15.126 9.11691 15.2085 9.29222C15.2368 9.35264 15.251 9.42212 15.251 9.50066C15.2493 10.3904 15.2492 11.2317 15.2507 12.0244C15.2509 12.104 15.2279 12.1804 15.1819 12.2538C15.08 12.4169 14.9361 12.4996 14.75 12.5019L13.496 12.5003C13.002 12.5003 12.5145 12.5002 12.0335 12.5C11.8614 12.4998 11.7206 12.4867 11.611 12.4607C11.0991 12.3392 10.711 12.0421 10.4466 11.5694C10.3476 11.3925 10.2869 11.1846 10.2644 10.9457C10.569 11.3684 10.9528 11.6248 11.416 11.715C11.5578 11.7427 11.752 11.755 11.9985 11.7519C12.3297 11.7479 12.6527 11.7474 12.9675 11.7503C13.426 11.7547 13.8132 11.4807 13.9557 11.0444C13.9848 10.955 13.9994 10.781 13.9994 10.5222C13.9998 10.0162 14 9.50878 14 9.00003Z" fill="#FFA726"/>
<path id="Vector_35" d="M12.0027 11.2521C12.2803 11.2521 12.5052 11.0271 12.5052 10.7496C12.5052 10.472 12.2803 10.2471 12.0027 10.2471C11.7252 10.2471 11.5002 10.472 11.5002 10.7496C11.5002 11.0271 11.7252 11.2521 12.0027 11.2521Z" fill="#EEEEEE"/>
<path id="Vector_36" d="M13.496 12.5005L14.7501 12.5021C14.7501 13.1146 14.7501 13.7234 14.7501 14.3286C14.7501 14.4897 14.6845 14.6633 14.5535 14.8496C14.4345 15.0185 14.2622 15.1394 14.0366 15.2124C13.9529 15.2394 13.8736 15.253 13.7988 15.253C9.94234 15.2494 6.11495 15.2488 2.31662 15.2511C2.13703 15.2511 1.98891 15.2361 1.87224 15.2061C1.68266 15.1574 1.51026 15.0746 1.35505 14.9577C0.986929 14.6808 0.785366 14.3063 0.750366 13.8342C0.988491 14.1688 1.29401 14.3777 1.66693 14.4608C1.79339 14.4889 1.99578 14.5029 2.27412 14.5027C5.61953 14.4985 8.96714 14.4984 12.3169 14.5024C12.5348 14.5026 12.6955 14.4864 12.7988 14.4539C13.2035 14.3261 13.4816 13.9605 13.4991 13.5314C13.5052 13.3798 13.5041 13.0361 13.496 12.5005Z" fill="#8D6E63"/>
</g>
<defs>
<clipPath id="clip0_46_2594">
<rect width="16" height="16" fill="white"/>
</clipPath>
</defs>
</svg>
