<svg width="112" height="112" viewBox="0 0 112 112" fill="none" xmlns="http://www.w3.org/2000/svg">
<g id="Wallet_empty">
<ellipse id="Ellipse 1183" opacity="0.1" cx="56" cy="108.64" rx="56" ry="3.36" fill="url(#paint0_linear_42_2428)"/>
<path id="Union" fill-rule="evenodd" clip-rule="evenodd" d="M10.0798 26.8802C10.0798 19.4575 16.0971 13.4402 23.5198 13.4402C30.9425 13.4402 36.9598 19.4575 36.9598 26.8802C36.9598 34.3029 30.9425 40.3202 23.5198 40.3202C16.0971 40.3202 10.0798 34.3029 10.0798 26.8802ZM23.5198 11.2002C14.86 11.2002 7.83984 18.2204 7.83984 26.8802C7.83984 34.7795 13.6811 41.3145 21.2798 42.4014V76.1602C21.2798 81.1087 25.2914 85.1202 30.2398 85.1202H81.7598C86.7083 85.1202 90.7198 81.1087 90.7198 76.1602V66.0802H91.8398C94.3141 66.0802 96.3198 64.0744 96.3198 61.6002V56.0002C96.3198 53.526 94.3141 51.5202 91.8398 51.5202H90.7198V41.4402C90.7198 36.4917 86.7083 32.4802 81.7598 32.4802H79.5198V30.2402C79.5198 25.9103 76.0098 22.4002 71.6798 22.4002H38.5505C36.6229 15.9233 30.6229 11.2002 23.5198 11.2002ZM39.041 24.6402C39.1457 25.3718 39.1998 26.1197 39.1998 26.8802C39.1998 28.8532 38.8354 30.7411 38.1703 32.4802H77.2798V30.2402C77.2798 27.1474 74.7726 24.6402 71.6798 24.6402H39.041ZM37.1021 34.7202C34.391 39.407 29.3237 42.5602 23.5198 42.5602V76.1602C23.5198 79.8716 26.5285 82.8802 30.2398 82.8802H81.7598C85.4712 82.8802 88.4798 79.8716 88.4798 76.1602V66.0802H72.7998C70.3256 66.0802 68.3198 64.0744 68.3198 61.6002V56.0002C68.3198 53.526 70.3256 51.5202 72.7998 51.5202H88.4798V41.4402C88.4798 37.7288 85.4712 34.7202 81.7598 34.7202H37.1021ZM41.7334 51.5202C40.756 51.5202 39.921 51.7068 39.205 52.0542L39.1997 52.0568C38.4817 52.4005 37.9382 52.8693 37.5395 53.4628C37.1634 54.0302 36.9598 54.7075 36.9598 55.5372C36.9598 56.5363 37.2552 57.2312 37.7687 57.7402C38.3696 58.3246 39.2314 58.8048 40.4197 59.1361L40.4204 59.1363L42.2432 59.6457L42.2449 59.6462C42.8636 59.8171 43.426 60.0183 43.9238 60.2548C44.4744 60.508 44.9615 60.8526 45.3321 61.3144C45.7595 61.8408 45.9414 62.4731 45.949 63.1278L45.949 63.1524C45.9415 63.8644 45.7392 64.5311 45.32 65.1084L45.3152 65.115C44.9106 65.6638 44.3675 66.0676 43.7331 66.3444L43.727 66.3471C43.0846 66.6229 42.3749 66.7441 41.6237 66.7441C41.1343 66.7441 40.5033 66.5768 40.0457 66.439C40.0107 66.4285 39.9757 66.4178 39.9409 66.407L39.7697 66.9876C40.3198 67.1262 40.9431 67.2002 41.6472 67.2002C42.8105 67.2002 43.7307 67.0049 44.4474 66.6636C45.1852 66.309 45.7083 65.8416 46.0641 65.2714C46.4222 64.6922 46.6166 64.003 46.6166 63.1662C46.6166 62.5404 46.5084 62.0502 46.3294 61.6656C46.131 61.2394 45.8674 60.8865 45.5375 60.5951L45.5326 60.5908C45.1747 60.2709 44.7645 60.0021 44.2964 59.7858L44.2928 59.7841C43.7987 59.5535 43.2829 59.3701 42.7444 59.2341L42.7254 59.2292L41.227 58.8226C40.8578 58.727 40.4927 58.6095 40.1318 58.4705C39.7337 58.3172 39.3611 58.1252 39.0183 57.8918L39.0051 57.8826C38.6148 57.6086 38.2906 57.2652 38.0485 56.8535L38.0403 56.8392C37.7765 56.3754 37.6666 55.8628 37.6666 55.3416V55.3282H37.6667C37.6744 54.6872 37.8509 54.0826 38.2113 53.5493C38.5738 53.0128 39.0786 52.62 39.6685 52.35C40.2824 52.0691 40.9694 51.9508 41.6942 51.9508C42.2037 51.9508 42.6938 52.0111 43.153 52.1431L43.3072 51.7058C42.839 51.5845 42.3165 51.5202 41.7334 51.5202ZM38.2298 50.0376C38.8856 49.7198 39.5858 49.5053 40.325 49.3879C40.3216 49.3525 40.3198 49.3165 40.3198 49.2802V48.1602C40.3198 47.5416 40.8213 47.0402 41.4398 47.0402C42.0584 47.0402 42.5598 47.5416 42.5598 48.1602V49.2802C42.5598 49.292 42.5597 49.3038 42.5593 49.3155C43.5229 49.4 44.4183 49.6376 45.2304 50.046C45.734 50.2993 45.9709 50.8874 45.7834 51.419L44.8508 54.0641C44.7314 54.4026 44.457 54.6635 44.1128 54.7655C43.7686 54.8675 43.3963 54.7983 43.1117 54.5794C42.8169 54.3526 42.3768 54.1908 41.6942 54.1908C41.2069 54.1908 40.8541 54.2709 40.6007 54.3869C40.3233 54.5138 40.1645 54.6596 40.0673 54.8035C39.9688 54.9492 39.9104 55.1195 39.9066 55.3483C39.9075 55.5427 39.9462 55.6567 39.984 55.7258C40.0539 55.8422 40.1499 55.9483 40.2862 56.0451C40.4746 56.1726 40.6901 56.2852 40.9368 56.3801C41.2216 56.4898 41.5073 56.5815 41.7941 56.6556L41.8072 56.659L41.8072 56.6591L43.3027 57.0648C43.9722 57.2346 44.6177 57.464 45.2381 57.7533C45.8969 58.058 46.4936 58.4459 47.0229 58.9184C47.5904 59.4204 48.0365 60.025 48.3602 60.7204C48.7037 61.4585 48.8566 62.2837 48.8566 63.1662C48.8566 64.3699 48.5708 65.4775 47.968 66.4516L47.9661 66.4547C47.3608 67.4257 46.4948 68.1653 45.4158 68.6834L45.4129 68.6848C44.5633 69.0899 43.6058 69.3222 42.5593 69.4052C42.5597 69.4168 42.5598 69.4285 42.5598 69.4402V70.5602C42.5598 71.1788 42.0584 71.6802 41.4398 71.6802C40.8213 71.6802 40.3198 71.1788 40.3198 70.5602V69.4402C40.3198 69.4141 40.3207 69.3882 40.3225 69.3626C39.4624 69.2575 38.6618 69.0438 37.9298 68.7098C37.4225 68.4783 37.1628 67.9089 37.3205 67.3741L38.1256 64.6435C38.2149 64.3404 38.4281 64.0892 38.7126 63.9517C38.9972 63.8143 39.3265 63.8034 39.6194 63.9218C39.8344 64.0086 40.2566 64.1631 40.6916 64.2941C41.1716 64.4387 41.507 64.5041 41.6237 64.5041C42.1351 64.5041 42.5321 64.4218 42.8403 64.2901C43.1635 64.1485 43.3713 63.9756 43.5097 63.7892C43.6307 63.6212 43.704 63.4191 43.7089 63.1414C43.7042 62.899 43.6427 62.7871 43.5926 62.7257L43.586 62.7176L43.586 62.7175C43.4782 62.5827 43.2954 62.4307 42.9837 62.288L42.968 62.2807C42.6113 62.1108 42.1737 61.9504 41.6468 61.8048L41.6435 61.8039L39.8181 61.2938C38.3647 60.8886 37.1375 60.2528 36.2024 59.3416L36.1966 59.336C35.1862 58.337 34.7198 57.0311 34.7198 55.5372C34.7198 54.3154 35.0278 53.196 35.6748 52.2216L35.6777 52.2172C36.3129 51.2703 37.1735 50.5439 38.2298 50.0376ZM92.6612 84.7113C92.6612 86.341 93.9823 87.6621 95.612 87.6621H101.682C103.312 87.6621 104.633 86.341 104.633 84.7113C104.633 83.0817 103.312 81.7606 101.682 81.7606H95.612C93.9823 81.7606 92.6612 83.0817 92.6612 84.7113ZM95.612 85.4221C95.2195 85.4221 94.9012 85.1039 94.9012 84.7113C94.9012 84.3188 95.2194 84.0006 95.612 84.0006H101.682C102.075 84.0006 102.393 84.3188 102.393 84.7113C102.393 85.1039 102.075 85.4221 101.682 85.4221H95.612ZM86.2398 96.8749C86.2398 98.5046 87.5609 99.8257 89.1906 99.8257C90.8202 99.8257 92.1413 98.5046 92.1413 96.8749V90.8047C92.1413 89.1751 90.8202 87.854 89.1906 87.854C87.5609 87.854 86.2398 89.1751 86.2398 90.8047V96.8749ZM89.1906 97.5857C88.798 97.5857 88.4798 97.2674 88.4798 96.8749V90.8047C88.4798 90.4122 88.798 90.094 89.1906 90.094C89.5831 90.094 89.9013 90.4122 89.9013 90.8047V96.8749C89.9013 97.2675 89.5831 97.5857 89.1906 97.5857ZM20.7198 19.6002C20.7198 18.0538 21.9734 16.8002 23.5198 16.8002C25.0662 16.8002 26.3198 18.0538 26.3198 19.6002V26.3202C26.3198 27.8666 25.0662 29.1202 23.5198 29.1202C21.9734 29.1202 20.7198 27.8666 20.7198 26.3202V19.6002ZM23.5198 19.0402C23.2106 19.0402 22.9598 19.2909 22.9598 19.6002V26.3202C22.9598 26.6295 23.2106 26.8802 23.5198 26.8802C23.8291 26.8802 24.0798 26.6295 24.0798 26.3202V19.6002C24.0798 19.2909 23.8291 19.0402 23.5198 19.0402ZM23.5198 36.9602C21.9734 36.9602 20.7198 35.7066 20.7198 34.1602C20.7198 32.6138 21.9734 31.3602 23.5198 31.3602C25.0662 31.3602 26.3198 32.6138 26.3198 34.1602C26.3198 35.7066 25.0662 36.9602 23.5198 36.9602ZM22.9598 34.1602C22.9598 34.4695 23.2106 34.7202 23.5198 34.7202C23.8291 34.7202 24.0798 34.4695 24.0798 34.1602C24.0798 33.8509 23.8291 33.6002 23.5198 33.6002C23.2106 33.6002 22.9598 33.8509 22.9598 34.1602Z" fill="url(#paint1_linear_42_2428)"/>
</g>
<defs>
<linearGradient id="paint0_linear_42_2428" x1="5.38654e-07" y1="112" x2="0.803508" y2="98.6085" gradientUnits="userSpaceOnUse">
<stop stop-color="#0D52FF"/>
<stop offset="1" stop-color="#03EADA"/>
</linearGradient>
<linearGradient id="paint1_linear_42_2428" x1="7.83984" y1="99.8257" x2="96.122" y2="3.40749" gradientUnits="userSpaceOnUse">
<stop stop-color="#0D52FF"/>
<stop offset="1" stop-color="#03EADA"/>
</linearGradient>
</defs>
</svg>
