<svg width="40" height="41" viewBox="0 0 40 41" fill="none" xmlns="http://www.w3.org/2000/svg">
<rect width="40" height="41" fill="#F5F5F5"/>
<g id="iPhone 13 mini - 549" clip-path="url(#clip0_0_1)">
<rect width="375" height="2506" transform="translate(-307 -685)" fill="url(#paint0_linear_0_1)"/>
<g id="Frame 427320857">
<g id="Frame 427320854">
<g id="Frame 427320854_2">
<g clip-path="url(#clip1_0_1)">
<rect id="Rectangle 9903" x="-116" y="-33.25" width="160" height="85" rx="12" fill="url(#paint1_linear_0_1)"/>
<rect id="Rectangle 9905" x="-23.7129" y="21.562" width="93.6976" height="103.762" rx="12" transform="rotate(-40.6746 -23.7129 21.562)" fill="#03EADA"/>
<g id="withdrawal (1) 1">
<g id="Group 48095497">
<g id="Group">
<path id="Vector" opacity="0.99" fill-rule="evenodd" clip-rule="evenodd" d="M18.9409 9.28564C21.8023 9.32816 23.8003 10.6535 24.9348 13.2615C25.0824 13.6508 25.1727 14.0525 25.2059 14.4663C27.8617 13.7019 30.0805 14.3646 31.8625 16.4543C32.9174 17.9738 33.2386 19.6405 32.8263 21.4542C32.2192 23.5673 30.8638 24.9428 28.7601 25.5807C28.0777 25.6108 27.3949 25.6209 26.7119 25.6108C26.7119 25.2895 26.7119 24.9682 26.7119 24.6469C27.3199 24.7033 27.9022 24.613 28.4589 24.3759C29.031 23.9247 29.2016 23.3524 28.971 22.659C28.7899 22.2718 28.4987 22.0008 28.0975 21.8458C25.3883 21.7766 22.6775 21.7465 19.965 21.7554C17.2526 21.7465 14.5418 21.7766 11.8326 21.8458C10.9961 22.2236 10.705 22.8561 10.9591 23.7433C11.2107 24.2954 11.6424 24.5866 12.2542 24.6168C12.5749 24.6469 12.8962 24.6569 13.2181 24.6469C13.2181 25.0084 13.2181 25.3698 13.2181 25.7313C11.1475 26.102 9.41058 25.5197 8.0073 23.9843C6.64768 22.0255 6.60751 20.0376 7.88681 18.0205C9.29463 16.3364 11.0717 15.7541 13.2181 16.2735C12.9777 13.2288 14.2226 11.0501 16.953 9.73745C17.6046 9.49906 18.2672 9.34846 18.9409 9.28564Z" fill="url(#paint2_linear_0_1)"/>
</g>
<g id="Group_2">
<path id="Vector_2" opacity="0.993" fill-rule="evenodd" clip-rule="evenodd" d="M12.0133 22.7191C17.3145 22.709 22.6156 22.7191 27.9167 22.7492C28.0984 22.8413 28.1787 22.9919 28.1577 23.201C28.1787 23.4101 28.0984 23.5607 27.9167 23.6528C27.1942 23.683 26.4713 23.693 25.7481 23.683C25.7581 26.3738 25.7481 29.0645 25.718 31.7552C25.5674 32.3074 25.216 32.6588 24.6638 32.8094C21.5313 32.8496 18.3988 32.8496 15.2663 32.8094C14.714 32.6588 14.3627 32.3074 14.2121 31.7552C14.1819 29.0645 14.1719 26.3738 14.1819 23.683C13.4587 23.693 12.7359 23.683 12.0133 23.6528C11.8316 23.5607 11.7513 23.4101 11.7723 23.201C11.7592 22.9862 11.8395 22.8256 12.0133 22.7191ZM15.6277 23.683C15.949 23.683 16.2703 23.683 16.5915 23.683C16.5915 25.3094 16.5915 26.9359 16.5915 28.5624C17.5152 28.8436 18.0171 29.466 18.0976 30.4299C19.3425 30.4299 20.5875 30.4299 21.8325 30.4299C21.9129 29.466 22.4149 28.8436 23.3385 28.5624C23.3385 26.9359 23.3385 25.3094 23.3385 23.683C23.6597 23.683 23.9811 23.683 24.3023 23.683C24.3306 25.5132 24.3004 27.3406 24.212 29.1648C24.1388 29.2581 24.0485 29.3284 23.9409 29.3757C23.3527 29.3612 22.9612 29.6323 22.7662 30.1889C22.7085 30.4674 22.6683 30.7485 22.6457 31.0323C22.5984 31.1399 22.5282 31.2302 22.4349 31.3034C21.6148 31.3715 20.7914 31.4016 19.965 31.3937C19.1386 31.4016 18.3153 31.3715 17.4952 31.3034C17.4018 31.2302 17.3316 31.1399 17.2843 31.0323C17.3244 30.4461 17.1336 29.9541 16.712 29.5564C16.4872 29.4378 16.2462 29.3775 15.9891 29.3757C15.8816 29.3284 15.7912 29.2581 15.7181 29.1648C15.6296 27.3406 15.5994 25.5132 15.6277 23.683Z" fill="url(#paint3_linear_0_1)"/>
</g>
</g>
</g>
</g>
</g>
</g>
</g>
</g>
<defs>
<linearGradient id="paint0_linear_0_1" x1="187.5" y1="0" x2="187.5" y2="2506" gradientUnits="userSpaceOnUse">
<stop stop-color="#000102"/>
<stop offset="1" stop-color="#00103C"/>
</linearGradient>
<linearGradient id="paint1_linear_0_1" x1="42.2933" y1="-32.4842" x2="14.2609" y2="83.2901" gradientUnits="userSpaceOnUse">
<stop stop-color="#0E3739"/>
<stop offset="0.25" stop-color="#102A41"/>
<stop offset="1" stop-color="#000102"/>
</linearGradient>
<linearGradient id="paint2_linear_0_1" x1="32.7223" y1="9.43478" x2="26.3429" y2="31.4556" gradientUnits="userSpaceOnUse">
<stop stop-color="#0E3739"/>
<stop offset="0.25" stop-color="#102A41"/>
<stop offset="1" stop-color="#000102"/>
</linearGradient>
<linearGradient id="paint3_linear_0_1" x1="27.9861" y1="22.8065" x2="24.1785" y2="36.3328" gradientUnits="userSpaceOnUse">
<stop stop-color="#0E3739"/>
<stop offset="0.25" stop-color="#102A41"/>
<stop offset="1" stop-color="#000102"/>
</linearGradient>
<clipPath id="clip0_0_1">
<rect width="375" height="2506" fill="white" transform="translate(-307 -685)"/>
</clipPath>
<clipPath id="clip1_0_1">
<rect x="-116" y="-33.25" width="160" height="85" rx="8" fill="white"/>
</clipPath>
</defs>
</svg>
