<svg width="70" height="29" viewBox="0 0 70 29" fill="none" xmlns="http://www.w3.org/2000/svg">
<g id="Forrester White 1" clip-path="url(#clip0_6_113)">
<g id="Clip path group">
<mask id="mask0_6_113" style="mask-type:luminance" maskUnits="userSpaceOnUse" x="0" y="0" width="70" height="29">
<g id="clip0_38_25">
<path id="Vector" d="M69.7364 0.9375H0.5V28.9375H69.7364V0.9375Z" fill="white"/>
</g>
</mask>
<g mask="url(#mask0_6_113)">
<g id="Group">
<g id="Mask group">
<mask id="mask1_6_113" style="mask-type:luminance" maskUnits="userSpaceOnUse" x="0" y="9" width="70" height="12">
<g id="Group_2">
<path id="Vector_2" d="M69.9908 9.59229H0.754395V20.6109H69.9908V9.59229Z" fill="white"/>
</g>
</mask>
<g mask="url(#mask1_6_113)">
<g id="Group_3">
<path id="Vector_3" fill-rule="evenodd" clip-rule="evenodd" d="M8.73246 9.59229C8.73246 9.59229 8.69703 9.61 8.20947 9.62772C7.73963 9.64548 6.79557 9.6632 4.92072 9.6632H4.52625C2.74005 9.6632 2.0885 9.64548 1.61868 9.62772C1.27862 9.61443 1.18432 9.60109 1.14338 9.59529C1.12989 9.59335 1.12219 9.59229 1.11341 9.59229C0.989304 9.59229 0.754395 9.59229 0.754395 9.84495C0.754395 10.0902 1.00929 10.1141 1.36896 10.1477L1.40151 10.1508C2.30569 10.204 2.30569 10.6915 2.30569 11.4317V18.9045C2.30569 19.5028 2.30569 19.9194 1.53447 19.9638L1.50466 19.9666C1.19791 19.9958 0.998169 20.0149 0.998169 20.2253C0.998169 20.4558 1.19762 20.4558 1.32173 20.4558C1.47205 20.4558 1.88105 20.4394 2.27865 20.4234C2.65467 20.4084 3.02073 20.3937 3.14781 20.3937C3.40323 20.3937 3.73766 20.4093 4.07135 20.4248C4.4036 20.4403 4.73512 20.4558 4.98721 20.4558C5.11131 20.4558 5.31076 20.4558 5.31076 20.2253C5.31076 19.9948 5.09801 19.9771 4.77446 19.9638C4.00767 19.9194 4.00767 19.5028 4.00767 18.8734V16.1033C4.00767 15.5936 4.00767 15.3897 4.3002 15.3099C4.49079 15.2567 5.32406 15.2567 5.85594 15.2567C6.30802 15.2567 7.46039 15.2567 7.71306 16.2318C7.73174 16.2785 7.77379 16.4311 7.81589 16.5837C7.85372 16.7208 7.89154 16.858 7.91252 16.9188L7.91343 16.9216C7.945 17.0117 8.01632 17.2157 8.20061 17.2069C8.41779 17.1981 8.41779 16.9897 8.41779 16.8656L8.34687 16.019C8.31139 15.6024 8.31139 15.2966 8.31139 15.137C8.31139 14.9996 8.32514 14.6146 8.33868 14.2361C8.35176 13.8702 8.36459 13.5105 8.36459 13.3863C8.36459 13.2046 8.31139 13.0893 8.14741 13.0805C7.98786 13.0716 7.89475 13.2267 7.85932 13.3686C7.62885 14.3038 7.37176 14.7027 5.90909 14.7027C5.63877 14.7027 4.56614 14.7027 4.29577 14.6672C4.06086 14.6318 4.00767 14.6141 4.00767 13.6389V11.117C4.00767 10.2704 4.3135 10.235 4.92959 10.235C7.7352 10.235 7.9701 10.6206 8.51085 11.8217C8.5165 11.8346 8.52221 11.8478 8.52801 11.8614C8.59037 12.0064 8.66526 12.1807 8.84772 12.1807C9.04718 12.1807 9.04718 11.8926 9.04718 11.8395V9.92915C9.03827 9.68092 9.02055 9.59229 8.73246 9.59229ZM43.8316 15.6424C42.8121 15.2213 42.072 14.9022 42.072 13.998C42.072 13.5015 42.4709 12.7791 43.4592 12.7924C44.5185 12.8013 44.7446 13.506 44.8998 13.998C45.0283 14.3925 45.077 14.4678 45.2056 14.4678C45.3828 14.4678 45.3828 14.3659 45.3828 14.0866C45.3828 12.9653 45.3828 12.85 45.2277 12.7614C45.0504 12.6727 44.2969 12.4689 43.5612 12.4689C41.9434 12.4689 41.0526 13.4883 41.0526 14.6584C41.0526 16.0102 42.0587 16.5067 43.0914 16.9632C44.0088 17.3842 44.8731 17.8674 44.8731 18.8602C44.8731 19.853 43.867 20.243 43.3352 20.243C42.431 20.243 41.5578 19.4807 41.314 18.3682L41.3095 18.3479L41.3055 18.3296C41.2832 18.226 41.2614 18.1244 41.1589 18.1244C41.0038 18.1244 40.9994 18.3017 40.9994 18.3549C40.9905 18.8158 41.0481 19.361 41.0658 19.525C41.1013 19.8397 41.15 20.0968 41.2919 20.2032C41.5223 20.3671 42.1517 20.6109 43.1446 20.6109C44.8377 20.6109 45.8837 19.4275 45.8837 18.0136C45.8837 16.5731 44.5452 15.9482 43.8316 15.6424ZM67.8276 13.6877C67.8276 14.2861 68.3108 14.7692 68.9095 14.7692C69.5076 14.7692 69.9908 14.2816 69.9908 13.6877C69.9908 13.0894 69.5076 12.6063 68.9095 12.6063C68.3108 12.6063 67.8276 13.0894 67.8276 13.6877ZM67.9518 13.6833C67.9518 13.1559 68.382 12.7126 68.9095 12.7126C69.4369 12.7126 69.8665 13.1559 69.8665 13.6833C69.8665 14.2107 69.4369 14.654 68.9095 14.654C68.382 14.654 67.9518 14.2107 67.9518 13.6833ZM68.9003 13.7675L69.1976 14.255V14.2595H69.3524L69.051 13.7586C69.2063 13.7143 69.3213 13.6035 69.3213 13.4306C69.3213 13.2312 69.1487 13.085 68.9492 13.085H68.5678V14.255H68.7012V13.7675H68.9003ZM68.7012 13.209H68.9359C69.082 13.209 69.1884 13.2933 69.1884 13.4218C69.1884 13.5503 69.078 13.6345 68.9359 13.6345H68.7012V13.209ZM53.3593 12.6313C53.3735 12.6295 53.3817 12.6284 53.3918 12.6284C53.5425 12.6284 53.5425 12.7259 53.5293 13.014V14.1619C53.5293 14.224 53.5293 14.3747 53.4051 14.3747C53.2697 14.3747 53.2463 14.3271 53.0278 13.8821L53.0197 13.865C52.8777 13.5592 52.5987 13.1115 51.0428 13.0716C50.6794 13.0849 50.6395 13.1558 50.6395 13.4793V19.1704C50.6395 19.6801 50.6395 20.0214 51.2644 20.0569C51.5306 20.0701 51.7032 20.0834 51.7032 20.2696C51.7032 20.4557 51.5438 20.4557 51.4415 20.4557C51.2383 20.4557 50.9744 20.4436 50.7098 20.4315C50.4437 20.4193 50.1768 20.407 49.9702 20.407C49.8697 20.407 49.5822 20.4184 49.2848 20.4301C48.9661 20.4427 48.6358 20.4557 48.512 20.4557C48.41 20.4557 48.2505 20.4557 48.2505 20.2696C48.2505 20.1004 48.408 20.0846 48.6497 20.0604L48.6848 20.0569C49.3098 20.0214 49.3098 19.6846 49.3098 19.197V13.3907C49.3098 13.1115 49.2344 13.0672 49.0571 13.0672C47.3596 13.0805 47.0626 13.5458 46.9164 13.865C46.6948 14.3259 46.6681 14.3747 46.5307 14.3747C46.4067 14.3747 46.4067 14.224 46.4067 14.1619V13.014C46.4067 12.7303 46.4067 12.6284 46.5574 12.6284C46.5693 12.6284 46.5789 12.6296 46.5952 12.6316C46.6332 12.6363 46.7076 12.6457 46.9341 12.655C47.2709 12.6683 47.9092 12.6816 49.1945 12.6816H50.7547C52.0443 12.6816 52.6781 12.6683 53.0151 12.655C53.2498 12.6455 53.3236 12.6359 53.3593 12.6313ZM39.9002 18.4701C39.7893 18.4701 39.7628 18.5189 39.5367 18.9577C38.9871 20.0214 38.2159 20.0214 37.6663 20.0214C36.6159 20.0214 36.3544 19.884 36.3544 18.9975V16.8523C36.3544 16.48 36.4519 16.48 37.0502 16.48C38.0741 16.48 38.4242 16.4933 38.6857 17.4551C38.7478 17.6945 38.8231 17.7565 38.9206 17.7565C39.0713 17.7565 39.0713 17.5837 39.0713 17.5083C39.0713 17.4556 39.0619 17.3138 39.0527 17.177C39.0442 17.0494 39.0359 16.9261 39.0359 16.8834C39.0359 16.7301 39.0634 16.2625 39.0878 15.849C39.1072 15.521 39.1245 15.2268 39.1245 15.1503C39.1245 15.0129 39.0625 14.9731 38.9871 14.9731C38.9251 14.9731 38.863 14.9996 38.8009 15.1592C38.5749 15.8196 38.4641 16.0944 37.0768 16.0944C36.3544 16.0944 36.3544 15.9925 36.3544 15.5936V13.7852C36.3544 13.1602 36.4031 13.076 37.028 13.076C38.8009 13.076 39.1023 13.5503 39.2486 13.8738L39.257 13.891C39.4752 14.336 39.4986 14.3836 39.6342 14.3836C39.7583 14.3836 39.7583 14.2329 39.7583 14.1708V13.0228C39.7583 12.7348 39.7583 12.6373 39.6077 12.6373C39.5975 12.6373 39.5892 12.6383 39.5749 12.6402C39.5392 12.6448 39.4664 12.6544 39.2353 12.6638C38.8985 12.6772 38.2602 12.6905 36.9749 12.6905H36.3765C35.3128 12.6905 34.7765 12.6772 34.5017 12.6638C34.3017 12.6542 34.2402 12.6445 34.2112 12.64C34.2004 12.6382 34.1942 12.6373 34.187 12.6373C34.0983 12.6373 33.9388 12.6373 33.9388 12.8146C33.9388 13.0007 34.116 13.014 34.3864 13.0273C35.0114 13.0672 35.0114 13.3996 35.0114 13.9138V19.1837C35.0114 19.6934 35.0114 20.0347 34.3864 20.0701L34.3464 20.0742C34.1061 20.0981 33.9388 20.1148 33.9388 20.2829C33.9388 20.4691 34.1028 20.4691 34.2003 20.4691C34.2529 20.4691 34.3087 20.4644 34.3871 20.4578C34.4407 20.4533 34.5049 20.4479 34.5859 20.4425C34.7853 20.4292 35.0956 20.4159 35.6097 20.4159H35.7605C35.8001 20.4159 35.9812 20.4196 36.248 20.425C36.4877 20.4299 36.7967 20.4362 37.1344 20.4425C37.8569 20.4558 38.73 20.4691 39.3683 20.4691C39.7317 20.4691 39.8558 20.3317 39.8691 20.0923C39.8896 19.8552 39.936 19.5279 39.9761 19.244C40.014 18.9761 40.0464 18.7471 40.0464 18.6696C40.0464 18.5854 40.011 18.4701 39.9002 18.4701ZM59.9118 18.9577C60.1378 18.5189 60.1643 18.4701 60.2753 18.4701C60.3862 18.4701 60.4214 18.5854 60.4214 18.6696C60.4214 18.7471 60.3893 18.9761 60.3511 19.244C60.3109 19.5279 60.2646 19.8553 60.2442 20.0923C60.231 20.3317 60.1068 20.4691 59.7433 20.4691C59.1049 20.4691 58.2318 20.4558 57.5094 20.4425C57.1739 20.4362 56.8664 20.43 56.6271 20.4251L56.6246 20.425H56.6236C56.3568 20.4196 56.175 20.4159 56.1353 20.4159H55.9846C55.4705 20.4159 55.1604 20.4292 54.9609 20.4425C54.8799 20.4479 54.8158 20.4533 54.7623 20.4578C54.6839 20.4644 54.6279 20.4691 54.5755 20.4691C54.4777 20.4691 54.3138 20.4691 54.3138 20.2829C54.3138 20.1148 54.4813 20.0981 54.7216 20.0742L54.7613 20.0701C55.3865 20.0347 55.3865 19.6934 55.3865 19.1837V13.9138C55.3865 13.3996 55.3865 13.0672 54.7613 13.0273C54.491 13.014 54.3138 13.0007 54.3138 12.8146C54.3138 12.6373 54.4732 12.6373 54.5622 12.6373C54.5694 12.6373 54.5755 12.6382 54.5862 12.64C54.6152 12.6445 54.6768 12.6542 54.8769 12.6638C55.1518 12.6772 55.6879 12.6905 56.7513 12.6905H57.35C58.6355 12.6905 59.2734 12.6772 59.6104 12.6638C59.8415 12.6544 59.9143 12.6448 59.95 12.6402C59.9642 12.6383 59.9724 12.6373 59.9825 12.6373C60.1332 12.6373 60.1332 12.7348 60.1332 13.0228V14.1708C60.1332 14.2329 60.1332 14.3836 60.0095 14.3836C59.8736 14.3836 59.8502 14.336 59.6323 13.891L59.6236 13.8738C59.4775 13.5503 59.1761 13.076 57.403 13.076C56.7783 13.076 56.7294 13.1602 56.7294 13.7852V15.5936C56.7294 15.9925 56.7295 16.0944 57.4519 16.0944C58.8391 16.0944 58.9501 15.8196 59.1761 15.1592C59.2383 14.9996 59.3004 14.9731 59.362 14.9731C59.4373 14.9731 59.4994 15.0129 59.4994 15.1503C59.4994 15.2268 59.4821 15.5209 59.4628 15.8489C59.4383 16.2624 59.4108 16.7301 59.4108 16.8834C59.4108 16.9261 59.419 17.0493 59.4276 17.1769C59.4368 17.3137 59.4465 17.4556 59.4465 17.5083C59.4465 17.5837 59.4465 17.7565 59.2958 17.7565C59.198 17.7565 59.1227 17.6945 59.0606 17.4551C58.7994 16.4933 58.4492 16.48 57.4254 16.48C56.8267 16.48 56.7294 16.48 56.7294 16.8523V18.9975C56.7294 19.884 56.9911 20.0214 58.0414 20.0214C58.5912 20.0214 59.362 20.0214 59.9118 18.9577ZM9.53026 16.5244C9.53026 14.2284 11.3741 12.4733 13.8207 12.4733C16.1831 12.4733 18.0225 14.2196 18.0269 16.4091C18.0269 18.8779 15.9925 20.6109 13.7852 20.6109C11.578 20.6109 9.53026 18.9577 9.53026 16.5244ZM11.0017 16.2584C11.0017 18.3106 12.2029 20.2607 13.8827 20.2607C15.6291 20.2607 16.5421 18.2972 16.5421 16.4579C16.5421 14.9509 15.6512 12.8234 13.67 12.8234C12.1275 12.8234 11.0017 14.4589 11.0017 16.2584ZM24.5523 19.2988C24.7951 19.7239 24.968 20.0266 25.3134 20.079C25.575 20.1189 25.6326 20.1676 25.6459 20.3006C25.6459 20.4291 25.5218 20.4513 25.4331 20.4513H23.7888C23.5737 20.4513 23.5191 20.347 23.396 20.1116L23.3766 20.0746L21.8652 17.2291C21.5904 16.6928 21.5283 16.644 20.9654 16.644C20.7527 16.644 20.7261 16.7194 20.7261 16.9321V19.1793C20.7261 19.7023 20.7261 20.0436 21.351 20.079C21.6214 20.0923 21.7987 20.1056 21.7987 20.2917C21.7987 20.4579 21.6547 20.4566 21.5564 20.4559L21.5372 20.4557C21.3758 20.4557 20.7521 20.4327 20.3617 20.4183C20.1838 20.4118 20.0543 20.407 20.0391 20.407C19.9343 20.407 19.6361 20.4188 19.3334 20.4308C19.0213 20.4432 18.7045 20.4557 18.5897 20.4557L18.5714 20.4558C18.4729 20.4566 18.3282 20.4578 18.3282 20.2829C18.3282 20.1101 18.5144 20.0967 18.7759 20.0834C19.3875 20.0347 19.3875 19.7067 19.3875 19.1837V13.8916C19.3875 13.3819 19.3875 13.0406 18.7759 13.0051C18.5055 12.9918 18.3282 12.9829 18.3282 12.8057C18.3282 12.6284 18.377 12.6284 18.7892 12.6284C18.8482 12.6284 19.0176 12.6394 19.1952 12.651C19.3909 12.6637 19.5966 12.6771 19.6756 12.6771C19.8393 12.6771 20.315 12.6656 20.8041 12.6538C21.3212 12.6412 21.8533 12.6284 22.0469 12.6284C24.2586 12.6284 24.4447 14.1486 24.4447 14.5874C24.4447 16.0501 23.1594 16.3471 22.7339 16.4357L22.7602 16.4523C22.9104 16.5473 23.06 16.6417 23.3322 17.136L24.5422 19.2812L24.5523 19.2988ZM20.7172 15.8639C20.7172 16.2983 20.7172 16.3249 21.3422 16.3249C21.7943 16.3249 23.0264 16.3249 23.0264 14.7692C23.0264 14.3171 22.8491 12.9829 21.3023 12.9829C20.7305 12.9829 20.7172 13.2799 20.7172 13.7675V15.8639ZM33.1454 20.079C32.7999 20.0266 32.6271 19.7239 32.3842 19.2988L32.3741 19.2812L31.1641 17.136C30.8919 16.6417 30.7423 16.5473 30.592 16.4523L30.5657 16.4357C30.9912 16.3471 32.2766 16.0501 32.2766 14.5874C32.2766 14.1486 32.0905 12.6284 29.8788 12.6284C29.6851 12.6284 29.1531 12.6412 28.636 12.6538C28.1469 12.6656 27.6712 12.6771 27.5075 12.6771C27.4285 12.6771 27.2228 12.6637 27.0271 12.651C26.8495 12.6394 26.6801 12.6284 26.621 12.6284C26.2088 12.6284 26.1601 12.6284 26.1601 12.8057C26.1601 12.9829 26.3374 12.9918 26.6078 13.0051C27.2194 13.0406 27.2194 13.3819 27.2194 13.8916V19.1837C27.2194 19.7067 27.2194 20.0347 26.6078 20.0834C26.3462 20.0967 26.1601 20.1101 26.1601 20.2829C26.1601 20.4578 26.3049 20.4566 26.4032 20.4558L26.4216 20.4557C26.5363 20.4557 26.8532 20.4432 27.1652 20.4308C27.468 20.4188 27.7662 20.407 27.871 20.407C27.8862 20.407 28.0157 20.4118 28.1935 20.4183C28.584 20.4327 29.2077 20.4557 29.3691 20.4557L29.3883 20.4559C29.4866 20.4566 29.6305 20.4579 29.6305 20.2917C29.6305 20.1056 29.4533 20.0923 29.1829 20.079C28.5579 20.0436 28.5579 19.7023 28.5579 19.1793V16.9321C28.5579 16.7194 28.5846 16.644 28.7973 16.644C29.3602 16.644 29.4222 16.6928 29.697 17.2291L31.2084 20.0746L31.2279 20.1116C31.351 20.347 31.4056 20.4513 31.6206 20.4513H33.265C33.3537 20.4513 33.4777 20.4291 33.4777 20.3006C33.4645 20.1676 33.4068 20.1189 33.1454 20.079ZM29.174 16.3249C28.5491 16.3249 28.5491 16.2983 28.5491 15.8639V13.7675C28.5491 13.2799 28.5624 12.9829 29.1341 12.9829C30.681 12.9829 30.8583 14.3171 30.8583 14.7692C30.8583 16.3249 29.6261 16.3249 29.174 16.3249ZM67.3547 19.2988C67.5975 19.7239 67.7706 20.0266 68.1158 20.079C68.3774 20.1189 68.4396 20.1676 68.4482 20.3006C68.4482 20.4291 68.324 20.4513 68.2354 20.4513H66.591C66.3762 20.4513 66.3217 20.347 66.1985 20.1117C66.1919 20.0997 66.1858 20.0873 66.1792 20.0746L64.6677 17.2291C64.3928 16.6928 64.3307 16.644 63.7676 16.644C63.5548 16.644 63.5284 16.7194 63.5284 16.9321V19.1793C63.5284 19.7023 63.5284 20.0436 64.1535 20.079C64.4238 20.0923 64.601 20.1056 64.601 20.2917C64.601 20.4579 64.4569 20.4566 64.3587 20.4559C64.3521 20.4558 64.346 20.4557 64.3398 20.4557C64.178 20.4557 63.5543 20.4327 63.1638 20.4183C62.9862 20.4118 62.8569 20.407 62.8416 20.407C62.7367 20.407 62.4384 20.4188 62.136 20.4308C61.8239 20.4432 61.5068 20.4557 61.3922 20.4557C61.3861 20.4557 61.38 20.4558 61.3739 20.4558C61.2751 20.4566 61.1305 20.4578 61.1305 20.2829C61.1305 20.1101 61.3169 20.0967 61.5785 20.0834C62.19 20.0347 62.19 19.7067 62.19 19.1837V13.8916C62.19 13.3819 62.19 13.0406 61.5785 13.0051C61.3077 12.9918 61.1305 12.9829 61.1305 12.8057C61.1305 12.6284 61.1794 12.6284 61.5918 12.6284C61.6508 12.6284 61.8199 12.6394 61.9975 12.651C62.1935 12.6637 62.3992 12.6771 62.4781 12.6771C62.6415 12.6771 63.1175 12.6656 63.6062 12.6538C64.1235 12.6412 64.6555 12.6284 64.8494 12.6284C67.0609 12.6284 67.2473 14.1486 67.2473 14.5874C67.2473 16.0501 65.9618 16.3471 65.5362 16.4357C65.5449 16.4413 65.554 16.4468 65.5627 16.4523C65.7129 16.5473 65.8625 16.6417 66.1349 17.136L67.3445 19.2812L67.3547 19.2988ZM63.5243 15.8639C63.5243 16.2983 63.5243 16.3249 64.1489 16.3249C64.5964 16.3249 65.8335 16.3249 65.8335 14.7692C65.8335 14.3171 65.6558 12.9829 64.1092 12.9829C63.5375 12.9829 63.5243 13.2799 63.5243 13.7675V15.8639Z" fill="white"/>
</g>
</g>
</g>
</g>
</g>
</g>
</g>
<defs>
<clipPath id="clip0_6_113">
<rect width="69.2364" height="28" fill="white" transform="translate(0.5 0.9375)"/>
</clipPath>
</defs>
</svg>
