<svg width="239" height="200" viewBox="0 0 239 200" fill="none" xmlns="http://www.w3.org/2000/svg">
<g id="Frame" clip-path="url(#clip0_42_2000)">
<g id="Group">
<g id="Group_2">
<g id="Group_3" opacity="0.41">
<g id="Group_4">
<path id="Vector" d="M238.702 127.366C238.927 123.466 238.829 119.551 238.387 115.666C236.324 97.4337 226.972 80.2437 213.202 68.1162C208.289 63.7887 202.702 59.9112 199.507 54.2037C194.122 44.5812 194.534 33.5337 187.852 24.0312C181.162 14.5212 171.419 7.11116 160.432 3.30116C127.664 -8.05384 81.7869 10.4337 85.9194 49.9137C85.9344 50.0562 85.9494 50.2587 85.9644 50.5212C86.5119 58.7187 80.0769 65.6187 71.8869 65.8137C41.6544 66.5337 15.6294 89.8437 10.0569 119.371C6.47942 138.361 12.3369 159.174 26.2269 172.606C36.5919 182.634 50.5044 188.139 64.4244 191.926C92.3319 199.516 121.702 201.106 150.472 198.204C177.404 195.489 205.822 187.741 223.237 167.019C232.537 155.971 237.862 141.796 238.702 127.366Z" fill="url(#paint0_linear_42_2000)"/>
</g>
</g>
<g id="Group_5" opacity="0.88">
<g id="Group_6">
<path id="Vector_2" d="M213.839 129.225C214.019 126.173 213.937 123.098 213.592 120.06C211.972 105.78 204.644 92.3102 193.867 82.8152C190.019 79.4252 185.639 76.3877 183.142 71.9177C178.927 64.3802 179.242 55.7252 174.014 48.2852C168.772 40.8377 161.144 35.0252 152.534 32.0477C126.862 23.1527 90.9219 37.6352 94.1619 68.5652C94.1769 68.6777 94.1844 68.8352 94.1994 69.0452C94.6269 75.4727 89.5869 80.8727 83.1669 81.0227C59.4819 81.5852 39.0969 99.8477 34.7319 122.978C31.9269 137.85 36.5169 154.155 47.3994 164.685C55.5219 172.538 66.4194 176.858 77.3244 179.82C99.1869 185.768 122.189 187.013 144.734 184.74C165.832 182.61 188.092 176.543 201.734 160.313C209.009 151.635 213.179 140.528 213.839 129.225Z" fill="url(#paint1_linear_42_2000)"/>
</g>
</g>
<path id="Vector_3" opacity="0.31" d="M232.011 31.161C232.953 27.1872 230.495 23.2019 226.521 22.2597C222.548 21.3175 218.562 23.7751 217.62 27.749C216.678 31.7229 219.136 35.7082 223.109 36.6504C227.083 37.5926 231.069 35.1349 232.011 31.161Z" fill="url(#paint2_linear_42_2000)"/>
<path id="Vector_4" opacity="0.31" d="M68.4805 26.9356C71.8282 23.5879 71.8282 18.1601 68.4805 14.8124C65.1328 11.4647 59.705 11.4647 56.3573 14.8124C53.0095 18.1601 53.0095 23.5879 56.3573 26.9356C59.705 30.2834 65.1328 30.2834 68.4805 26.9356Z" fill="url(#paint3_linear_42_2000)"/>
<path id="Vector_5" opacity="0.31" d="M11.0695 196.643C17.1833 196.643 22.1395 191.687 22.1395 185.573C22.1395 179.459 17.1833 174.503 11.0695 174.503C4.95572 174.503 -0.000488281 179.459 -0.000488281 185.573C-0.000488281 191.687 4.95572 196.643 11.0695 196.643Z" fill="url(#paint4_linear_42_2000)"/>
</g>
<g id="Group_7">
<g id="Group_8">
<path id="Vector_6" d="M98.4521 98.1976C120.128 98.1976 137.7 80.6259 137.7 58.9501C137.7 37.2743 120.128 19.7026 98.4521 19.7026C76.7763 19.7026 59.2046 37.2743 59.2046 58.9501C59.2046 80.6259 76.7763 98.1976 98.4521 98.1976Z" fill="#03EADA"/>
<path id="Vector_7" d="M125.7 87.2174C125.602 87.2174 125.505 87.1799 125.437 87.1049C125.287 86.9549 125.287 86.7224 125.437 86.5724C132.78 79.2299 136.822 69.4649 136.822 59.0849C136.822 48.7049 132.78 38.9399 125.437 31.5974C118.095 24.2549 108.33 20.2124 97.9496 20.2124C87.5696 20.2124 77.8046 24.2549 70.4621 31.5974C70.3121 31.7474 70.0796 31.7474 69.9296 31.5974C69.7796 31.4474 69.7796 31.2149 69.9296 31.0649C77.4146 23.5799 87.3671 19.4624 97.9496 19.4624C108.532 19.4624 118.485 23.5874 125.97 31.0649C133.455 38.5499 137.572 48.5024 137.572 59.0849C137.572 69.6674 133.447 79.6199 125.97 87.1049C125.895 87.1799 125.797 87.2174 125.7 87.2174Z" fill="#081F58"/>
<path id="Vector_8" d="M98.4522 88.815C114.946 88.815 128.317 75.4439 128.317 58.95C128.317 42.456 114.946 29.085 98.4522 29.085C81.9582 29.085 68.5872 42.456 68.5872 58.95C68.5872 75.4439 81.9582 88.815 98.4522 88.815Z" fill="white"/>
<path id="Vector_9" d="M98.4522 89.19C81.7797 89.19 68.2122 75.6225 68.2122 58.95C68.2122 42.2775 81.7797 28.71 98.4522 28.71C98.6622 28.71 98.8272 28.875 98.8272 29.085C98.8272 29.295 98.6622 29.46 98.4522 29.46C82.1922 29.46 68.9622 42.69 68.9622 58.95C68.9622 75.21 82.1922 88.44 98.4522 88.44C98.6622 88.44 98.8272 88.605 98.8272 88.815C98.8272 89.025 98.6547 89.19 98.4522 89.19Z" fill="#081F58"/>
<path id="Vector_10" d="M106.185 64.6576H98.062C96.397 64.6576 95.0396 63.3001 95.0396 61.6351V50.3701C95.0396 48.9226 96.2171 47.7451 97.6646 47.7451C99.1121 47.7451 100.29 48.9226 100.29 50.3701V59.4076H106.185C107.632 59.4076 108.81 60.5851 108.81 62.0326C108.81 63.4801 107.64 64.6576 106.185 64.6576Z" fill="#081F58"/>
</g>
</g>
<g id="Group_9">
<path id="Vector_11" d="M37.5145 72.585L79.792 114.862C88.0645 123.135 101.475 123.135 109.74 114.862L114.795 109.807C116.7 107.902 116.7 104.805 114.795 102.892L97.5445 85.6425C95.6395 83.7375 92.542 83.7375 90.6295 85.6425L82.0045 94.2675C81.3295 94.9425 80.2345 94.9425 79.5595 94.2675L58.6345 73.3425C57.967 72.675 57.967 71.595 58.6345 70.9275L67.1395 62.4225C69.0445 60.5175 69.0445 57.42 67.1395 55.5075L49.432 37.8C47.5495 35.9175 44.497 35.8875 42.5845 37.74L37.7845 42.375C29.2645 50.6025 29.1445 64.215 37.5145 72.585Z" fill="#081F58"/>
<g id="Group_10">
<path id="Vector_12" d="M38.8422 43.23L62.6022 66.99L63.4197 66.1725L67.1622 62.43C69.0672 60.525 69.0672 57.4275 67.1622 55.515L49.4322 37.8C47.5497 35.9175 44.4972 35.8875 42.5847 37.74L37.7847 42.375L38.8422 43.23Z" fill="#D5F7F2"/>
<path id="Vector_13" d="M62.5946 67.5149L38.5871 43.5074L37.2146 42.4049L42.3221 37.4699C44.3696 35.4899 47.6846 35.5199 49.6946 37.5374L67.4171 55.2599C69.4721 57.3149 69.4721 60.6524 67.4171 62.6999L62.5946 67.5149ZM38.3471 42.3524L39.1046 42.9674L62.5946 66.4574L66.8846 62.1674C67.7396 61.3124 68.2046 60.1799 68.2046 58.9799C68.2046 57.7724 67.7321 56.6399 66.8846 55.7924L49.1621 38.0624C47.4296 36.3299 44.5946 36.3074 42.8396 38.0099L38.3471 42.3524Z" fill="#081F58"/>
</g>
<g id="Group_11">
<path id="Vector_14" d="M87.1647 90.7423L110.925 114.502L111.742 113.685L115.485 109.942C117.39 108.037 117.39 104.94 115.485 103.027L97.7623 85.3048C95.8798 83.4223 92.8272 83.3924 90.9147 85.2449L86.1147 89.8798L87.1647 90.7423Z" fill="#D5F7F2"/>
<path id="Vector_15" d="M110.924 115.028L86.9169 91.0206L85.5444 89.9181L90.6519 84.9831C92.7069 83.0031 96.0144 83.0331 98.0244 85.0506L115.747 102.773C116.744 103.771 117.284 105.091 117.284 106.493C117.284 107.896 116.737 109.223 115.747 110.213L110.924 115.028ZM86.6694 89.8656L87.4269 90.4806L110.917 113.971L115.207 109.681C116.062 108.826 116.527 107.693 116.527 106.493C116.527 105.286 116.054 104.153 115.207 103.306L97.4844 85.5831C95.7519 83.8581 92.9169 83.8281 91.1619 85.5306L86.6694 89.8656Z" fill="#081F58"/>
</g>
<g id="Group_12">
<path id="Vector_16" d="M55.132 55.275C55.0345 55.275 54.937 55.2375 54.8695 55.1625L40.3945 40.6875C40.2445 40.5375 40.2445 40.305 40.3945 40.155C40.5445 40.005 40.777 40.005 40.927 40.155L55.402 54.63C55.552 54.78 55.552 55.0125 55.402 55.1625C55.327 55.2375 55.2295 55.275 55.132 55.275Z" fill="#081F58"/>
</g>
<g id="Group_13">
<path id="Vector_17" d="M112.71 112.853C112.612 112.853 112.515 112.815 112.447 112.74L97.9721 98.2651C97.8221 98.1151 97.8221 97.8826 97.9721 97.7326C98.1221 97.5826 98.3546 97.5826 98.5046 97.7326L112.98 112.208C113.13 112.358 113.13 112.59 112.98 112.74C112.905 112.823 112.807 112.853 112.71 112.853Z" fill="#081F58"/>
</g>
</g>
<g id="Group_14">
<path id="Vector_18" d="M176.235 186.855L120.81 178.657C114.54 177.727 110.212 171.9 111.142 165.63L131.017 31.2449C131.947 24.9749 137.775 20.6474 144.045 21.5774L199.47 29.7749C205.74 30.7049 210.067 36.5324 209.137 42.8024L189.262 177.187C188.332 183.45 182.497 187.777 176.235 186.855Z" fill="#081F58"/>
<path id="Vector_19" d="M135.343 34.1258L116.574 161.028L185.386 171.205L204.154 44.3028L135.343 34.1258Z" fill="#D5F7F2"/>
<path id="Vector_20" d="M135.343 34.1234L133.934 43.6494L202.745 53.8264L204.154 44.3004L135.343 34.1234Z" fill="#03EADA"/>
<path id="Vector_21" d="M149.82 178.485C149.602 178.485 149.385 178.47 149.16 178.433C147.975 178.26 146.925 177.63 146.212 176.67C145.5 175.703 145.2 174.525 145.372 173.333C145.545 172.148 146.175 171.098 147.135 170.385C148.095 169.673 149.287 169.373 150.465 169.553C151.65 169.725 152.7 170.355 153.412 171.315C154.125 172.275 154.425 173.46 154.252 174.653C153.93 176.88 152.01 178.485 149.82 178.485ZM149.812 170.25C149.017 170.25 148.245 170.505 147.592 170.985C146.79 171.578 146.265 172.455 146.122 173.445C145.972 174.435 146.22 175.418 146.82 176.22C147.412 177.023 148.29 177.548 149.28 177.69C151.32 177.99 153.225 176.58 153.525 174.533C153.667 173.543 153.42 172.56 152.827 171.758C152.235 170.955 151.357 170.43 150.367 170.288C150.18 170.265 149.992 170.25 149.812 170.25Z" fill="#D5F7F2"/>
<path id="Vector_22" d="M159.765 32.9103C159.697 32.9103 159.622 32.9028 159.555 32.8953C159.172 32.8353 158.835 32.6403 158.61 32.3253C158.377 32.0178 158.287 31.6353 158.34 31.2528C158.392 30.8703 158.595 30.5328 158.91 30.3078C159.217 30.0753 159.6 29.9778 159.982 30.0378C160.365 30.0903 160.702 30.2928 160.927 30.6078C161.16 30.9153 161.25 31.2978 161.197 31.6803C161.085 32.3928 160.47 32.9103 159.765 32.9103ZM159.765 30.7653C159.615 30.7653 159.472 30.8103 159.352 30.9003C159.202 31.0128 159.105 31.1703 159.082 31.3578C159.052 31.5378 159.097 31.7253 159.21 31.8753C159.322 32.0253 159.48 32.1228 159.667 32.1453C159.855 32.1753 160.035 32.1228 160.185 32.0178C160.335 31.9053 160.432 31.7478 160.455 31.5603C160.485 31.3728 160.432 31.1928 160.327 31.0428C160.215 30.8928 160.057 30.7953 159.87 30.7728C159.832 30.7728 159.795 30.7653 159.765 30.7653Z" fill="#D5F7F2"/>
<path id="Vector_23" d="M182.115 36.21C182.04 36.21 181.972 36.2025 181.897 36.195L164.34 33.6C163.957 33.54 163.62 33.345 163.395 33.03C163.162 32.7225 163.072 32.34 163.125 31.9575C163.185 31.575 163.38 31.2375 163.695 31.0125C164.002 30.78 164.385 30.69 164.767 30.7425L182.325 33.3375C182.707 33.3975 183.045 33.5925 183.27 33.9075C183.502 34.215 183.592 34.5975 183.54 34.98C183.48 35.3625 183.285 35.7 182.97 35.925C182.722 36.1125 182.422 36.21 182.115 36.21ZM164.557 31.4775C164.22 31.4775 163.92 31.725 163.867 32.07C163.837 32.25 163.882 32.4375 163.995 32.5875C164.107 32.7375 164.265 32.835 164.452 32.8575L182.01 35.4525C182.385 35.5125 182.745 35.25 182.797 34.8675C182.827 34.6875 182.782 34.5 182.67 34.35C182.557 34.2 182.4 34.1025 182.212 34.08L164.655 31.485C164.625 31.4775 164.587 31.4775 164.557 31.4775Z" fill="#D5F7F2"/>
<path id="Vector_24" d="M185.67 132.375L137.67 125.273C136.89 125.16 136.162 125.7 136.042 126.48L134.197 138.93C134.085 139.71 134.625 140.438 135.405 140.558L176.445 146.625L180.675 152.46L181.425 147.368L183.405 147.66C184.185 147.773 184.912 147.233 185.032 146.453L186.877 134.003C186.997 133.215 186.457 132.488 185.67 132.375Z" fill="url(#paint5_linear_42_2000)"/>
<path id="Vector_25" d="M176.452 147C176.437 147 176.415 147 176.4 146.993L135.36 140.925C134.88 140.858 134.46 140.603 134.175 140.213C133.89 139.823 133.77 139.35 133.837 138.87L135.682 126.42C135.825 125.438 136.747 124.74 137.73 124.898L148.822 126.54C149.025 126.57 149.167 126.758 149.137 126.968C149.107 127.17 148.912 127.313 148.71 127.283L137.617 125.64C137.04 125.558 136.507 125.955 136.417 126.533L134.572 138.983C134.535 139.26 134.602 139.538 134.767 139.763C134.932 139.988 135.18 140.138 135.457 140.175L176.497 146.243C176.7 146.273 176.842 146.46 176.812 146.67C176.79 146.865 176.632 147 176.452 147Z" fill="#081F58"/>
<path id="Vector_26" d="M193.305 80.7755L145.305 73.673C144.525 73.5605 143.797 74.1005 143.677 74.8805L141.832 87.3305C141.72 88.1105 142.26 88.838 143.04 88.958L184.08 95.0255L188.31 100.861L189.06 95.768L191.04 96.0605C191.82 96.173 192.547 95.633 192.667 94.853L194.512 82.403C194.625 81.6155 194.085 80.888 193.305 80.7755Z" fill="url(#paint6_linear_42_2000)"/>
<path id="Vector_27" d="M188.549 101.82L183.877 95.37L142.994 89.325C142.012 89.1825 141.329 88.26 141.472 87.2775C141.502 87.075 141.689 86.94 141.899 86.9625C142.102 86.9925 142.244 87.18 142.214 87.39C142.169 87.6675 142.244 87.945 142.409 88.17C142.574 88.395 142.822 88.545 143.099 88.5825L184.297 94.6725L188.077 99.885L188.752 95.3325L191.107 95.6775C191.384 95.715 191.662 95.6475 191.887 95.4825C192.112 95.3175 192.262 95.07 192.299 94.7925L193.522 86.505C193.552 86.3025 193.739 86.16 193.949 86.19C194.152 86.22 194.294 86.4075 194.264 86.6175L193.042 94.905C192.974 95.385 192.719 95.805 192.329 96.09C191.939 96.375 191.467 96.495 190.987 96.4275L189.374 96.1875L188.549 101.82Z" fill="#081F58"/>
<path id="Vector_28" d="M132.547 96.8176L180.547 103.92C181.327 104.033 181.867 104.76 181.755 105.548L179.91 117.998C179.797 118.778 179.07 119.318 178.282 119.205L137.25 113.13L131.512 117.488L132.262 112.395L130.282 112.103C129.502 111.99 128.962 111.263 129.075 110.475L130.92 98.0251C131.04 97.2451 131.767 96.7051 132.547 96.8176Z" fill="#03EADA"/>
<path id="Vector_29" d="M178.5 119.595C178.41 119.595 178.32 119.587 178.23 119.572L152.61 115.785C152.407 115.755 152.265 115.567 152.295 115.357C152.325 115.155 152.512 115.012 152.722 115.042L178.342 118.83C178.62 118.867 178.897 118.8 179.122 118.635C179.347 118.47 179.497 118.222 179.535 117.945L181.38 105.495C181.462 104.917 181.065 104.385 180.487 104.295C180.285 104.265 180.142 104.077 180.172 103.867C180.202 103.665 180.39 103.522 180.6 103.552C181.582 103.695 182.265 104.617 182.122 105.6L180.277 118.05C180.21 118.53 179.955 118.95 179.565 119.235C179.257 119.467 178.882 119.595 178.5 119.595Z" fill="#081F58"/>
<path id="Vector_30" d="M118.298 149.353L116.571 161.031L185.382 171.208L187.11 159.53L118.298 149.353Z" fill="white"/>
<path id="Vector_31" d="M128.46 156.713C128.122 159 125.992 160.575 123.705 160.238C121.417 159.9 119.842 157.77 120.18 155.483C120.517 153.195 122.647 151.62 124.935 151.958C127.222 152.295 128.797 154.425 128.46 156.713Z" fill="url(#paint7_linear_42_2000)"/>
<path id="Vector_32" opacity="0.33" d="M179.212 168.053C179.032 168.053 178.845 168.038 178.665 168.015L134.07 161.423C133.087 161.28 132.21 160.755 131.617 159.953C131.025 159.15 130.777 158.168 130.92 157.185C131.22 155.153 133.125 153.735 135.157 154.043L179.752 160.635C181.785 160.935 183.202 162.833 182.895 164.873C182.625 166.718 181.027 168.053 179.212 168.053ZM178.77 167.273C180.397 167.513 181.912 166.388 182.16 164.76C182.28 163.973 182.077 163.185 181.605 162.548C181.132 161.91 180.435 161.49 179.647 161.378L135.052 154.778C133.425 154.538 131.91 155.663 131.67 157.29C131.55 158.078 131.752 158.865 132.225 159.503C132.697 160.14 133.395 160.56 134.182 160.673L178.77 167.273Z" fill="#03EADA"/>
<path id="Vector_33" d="M139.627 40.9651C139.56 40.9651 139.485 40.9576 139.41 40.9501C138.607 40.8301 138.052 40.0876 138.172 39.2851C138.232 38.8951 138.435 38.5576 138.75 38.3176C139.065 38.0851 139.455 37.9876 139.837 38.0476C140.64 38.1676 141.195 38.9101 141.075 39.7126C140.97 40.4401 140.347 40.9651 139.627 40.9651ZM139.627 38.7751C139.477 38.7751 139.327 38.8201 139.2 38.9176C139.042 39.0301 138.945 39.2026 138.915 39.3901C138.885 39.5776 138.937 39.7726 139.05 39.9226C139.162 40.0801 139.335 40.1776 139.522 40.2076C139.912 40.2676 140.28 39.9976 140.34 39.6001C140.37 39.4126 140.317 39.2176 140.205 39.0676C140.092 38.9101 139.92 38.8126 139.732 38.7826C139.695 38.7826 139.665 38.7751 139.627 38.7751Z" fill="white"/>
<path id="Vector_34" d="M143.692 41.565C143.617 41.565 143.55 41.5575 143.475 41.55C142.672 41.43 142.117 40.6875 142.237 39.885C142.357 39.0825 143.107 38.535 143.902 38.6475C144.292 38.7075 144.63 38.91 144.87 39.225C145.102 39.54 145.2 39.93 145.14 40.3125C145.08 40.7025 144.877 41.04 144.562 41.28C144.307 41.4675 144 41.565 143.692 41.565ZM143.685 39.375C143.332 39.375 143.025 39.63 142.972 39.99C142.942 40.1775 142.995 40.3725 143.107 40.5225C143.22 40.68 143.392 40.7775 143.58 40.8075C143.767 40.8375 143.962 40.785 144.112 40.6725C144.27 40.56 144.367 40.3875 144.397 40.2C144.427 40.0125 144.375 39.8175 144.262 39.6675C144.15 39.51 143.977 39.4125 143.79 39.3825C143.76 39.3825 143.722 39.375 143.685 39.375Z" fill="white"/>
<path id="Vector_35" d="M147.667 42.1506C147.6 42.1506 147.525 42.1431 147.45 42.1356C146.647 42.0156 146.092 41.2656 146.212 40.4706C146.332 39.6681 147.082 39.1131 147.877 39.2331C148.68 39.3531 149.235 40.1031 149.115 40.8981C149.017 41.6256 148.387 42.1506 147.667 42.1506ZM147.667 39.9681C147.517 39.9681 147.367 40.0206 147.24 40.1106C147.082 40.2231 146.985 40.3956 146.955 40.5831C146.925 40.7706 146.977 40.9656 147.09 41.1156C147.202 41.2731 147.375 41.3706 147.562 41.4006C147.952 41.4531 148.32 41.1831 148.38 40.7931C148.44 40.4031 148.162 40.0356 147.772 39.9756C147.742 39.9681 147.705 39.9681 147.667 39.9681Z" fill="white"/>
<path id="Vector_36" d="M203.685 54.3298C203.67 54.3298 203.647 54.3298 203.632 54.3223L139.935 44.9023C139.732 44.8723 139.59 44.6848 139.62 44.4748C139.65 44.2723 139.837 44.1298 140.047 44.1598L203.745 53.5798C203.947 53.6098 204.09 53.7973 204.06 54.0073C204.03 54.1948 203.865 54.3298 203.685 54.3298Z" fill="#081F58"/>
<path id="Vector_37" d="M177.127 135.24C177.112 135.24 177.09 135.24 177.075 135.232L143.092 130.207C142.89 130.177 142.747 129.99 142.777 129.78C142.807 129.577 142.995 129.427 143.205 129.465L177.187 134.49C177.39 134.52 177.532 134.707 177.502 134.917C177.472 135.105 177.315 135.24 177.127 135.24Z" fill="white"/>
<path id="Vector_38" d="M157.012 136.411C156.997 136.411 156.975 136.411 156.96 136.403L142.492 134.266C142.29 134.236 142.147 134.048 142.177 133.838C142.207 133.636 142.395 133.493 142.605 133.523L157.072 135.661C157.275 135.691 157.417 135.878 157.387 136.088C157.35 136.276 157.192 136.411 157.012 136.411Z" fill="white"/>
<path id="Vector_39" d="M152.137 139.567C152.122 139.567 152.1 139.567 152.085 139.56L141.93 138.06C141.727 138.03 141.585 137.842 141.615 137.632C141.645 137.43 141.84 137.287 142.042 137.317L152.197 138.817C152.4 138.847 152.542 139.035 152.512 139.245C152.482 139.432 152.317 139.567 152.137 139.567Z" fill="white"/>
<path id="Vector_40" d="M176.527 139.298C176.512 139.298 176.49 139.298 176.475 139.291L161.527 137.078C161.325 137.048 161.182 136.861 161.212 136.651C161.242 136.448 161.43 136.306 161.64 136.336L176.587 138.548C176.79 138.578 176.932 138.766 176.902 138.976C176.872 139.163 176.715 139.298 176.527 139.298Z" fill="white"/>
<g id="Group_15">
<path id="Vector_41" d="M172.979 107.04C172.964 107.04 172.942 107.04 172.927 107.033L138.944 102.008C138.742 101.978 138.599 101.79 138.629 101.58C138.659 101.378 138.847 101.228 139.057 101.265L173.039 106.29C173.242 106.32 173.384 106.508 173.354 106.718C173.324 106.905 173.159 107.04 172.979 107.04Z" fill="white"/>
<path id="Vector_42" d="M152.857 108.21C152.842 108.21 152.82 108.21 152.805 108.202L138.337 106.065C138.135 106.035 137.992 105.847 138.022 105.637C138.052 105.435 138.24 105.292 138.45 105.322L152.917 107.46C153.12 107.49 153.262 107.677 153.232 107.887C153.202 108.075 153.045 108.21 152.857 108.21Z" fill="white"/>
<path id="Vector_43" d="M167.887 114.307C167.865 114.307 167.85 114.307 167.827 114.3L138.495 109.747C138.292 109.717 138.15 109.522 138.18 109.32C138.21 109.117 138.405 108.975 138.607 109.005L167.94 113.557C168.142 113.587 168.285 113.782 168.255 113.985C168.232 114.172 168.075 114.307 167.887 114.307Z" fill="white"/>
<path id="Vector_44" d="M172.38 111.097C172.365 111.097 172.342 111.097 172.327 111.09L157.38 108.877C157.177 108.847 157.035 108.66 157.065 108.45C157.095 108.247 157.282 108.105 157.492 108.135L172.44 110.347C172.642 110.377 172.785 110.565 172.755 110.775C172.725 110.962 172.567 111.097 172.38 111.097Z" fill="white"/>
</g>
<path id="Vector_45" d="M138.712 50.0026L186.712 57.1051C187.492 57.2176 188.032 57.9451 187.92 58.7326L186.075 71.1826C185.962 71.9626 185.235 72.5026 184.447 72.3901L143.407 66.3226L137.67 70.6801L138.42 65.5876L136.44 65.2951C135.66 65.1826 135.12 64.4551 135.232 63.6676L137.077 51.2176C137.205 50.4301 137.932 49.8901 138.712 50.0026Z" fill="#03EADA"/>
<path id="Vector_46" d="M186.075 71.5582C186.06 71.5582 186.037 71.5582 186.022 71.5507C185.82 71.5207 185.677 71.3332 185.707 71.1232L187.552 58.6732C187.597 58.3957 187.522 58.1182 187.357 57.8932C187.192 57.6682 186.945 57.5182 186.667 57.4807L156.862 53.0707C156.66 53.0407 156.517 52.8532 156.547 52.6432C156.577 52.4407 156.772 52.2982 156.975 52.3282L186.78 56.7382C187.26 56.8057 187.68 57.0607 187.965 57.4507C188.25 57.8407 188.37 58.3132 188.302 58.7932L186.457 71.2432C186.42 71.4232 186.262 71.5582 186.075 71.5582Z" fill="#081F58"/>
<g id="Group_16">
<path id="Vector_47" d="M179.145 60.2248C179.13 60.2248 179.107 60.2248 179.092 60.2173L145.11 55.1923C144.907 55.1623 144.765 54.9748 144.795 54.7648C144.825 54.5623 145.012 54.4198 145.222 54.4498L179.205 59.4748C179.407 59.5048 179.55 59.6923 179.52 59.9023C179.49 60.0898 179.325 60.2248 179.145 60.2248Z" fill="white"/>
<path id="Vector_48" d="M159.022 61.3949C159.007 61.3949 158.985 61.3949 158.97 61.3874L144.502 59.2499C144.3 59.2199 144.157 59.0324 144.187 58.8224C144.217 58.6199 144.405 58.4774 144.615 58.5074L159.082 60.6449C159.285 60.6749 159.427 60.8624 159.397 61.0724C159.367 61.2599 159.21 61.3949 159.022 61.3949Z" fill="white"/>
<path id="Vector_49" d="M174.052 67.4925C174.03 67.4925 174.015 67.4925 173.992 67.485L144.66 62.9325C144.457 62.9025 144.315 62.7075 144.345 62.505C144.375 62.3025 144.57 62.16 144.772 62.19L174.112 66.75C174.315 66.78 174.457 66.975 174.427 67.1775C174.397 67.365 174.24 67.4925 174.052 67.4925Z" fill="white"/>
<path id="Vector_50" d="M178.545 64.2824C178.53 64.2824 178.507 64.2824 178.492 64.2749L163.545 62.0624C163.342 62.0324 163.2 61.8449 163.23 61.6349C163.26 61.4324 163.447 61.2899 163.657 61.3199L178.605 63.5324C178.807 63.5624 178.95 63.7499 178.92 63.9599C178.89 64.1474 178.725 64.2824 178.545 64.2824Z" fill="white"/>
</g>
<path id="Vector_51" d="M184.792 84.1203C184.777 84.1203 184.754 84.1203 184.739 84.1128L150.757 79.0878C150.554 79.0578 150.412 78.8703 150.442 78.6603C150.472 78.4578 150.659 78.3153 150.869 78.3453L184.852 83.3703C185.054 83.4003 185.197 83.5878 185.167 83.7978C185.137 83.9853 184.972 84.1203 184.792 84.1203Z" fill="white"/>
<path id="Vector_52" d="M164.67 85.2826C164.655 85.2826 164.632 85.2826 164.617 85.2751L150.15 83.1376C149.947 83.1076 149.805 82.9201 149.835 82.7101C149.865 82.5076 150.06 82.3651 150.262 82.3951L164.73 84.5326C164.932 84.5626 165.075 84.7501 165.045 84.9601C165.015 85.1551 164.857 85.2826 164.67 85.2826Z" fill="white"/>
<path id="Vector_53" d="M159.795 88.44C159.78 88.44 159.757 88.44 159.742 88.4325L149.587 86.9325C149.385 86.9025 149.242 86.715 149.272 86.505C149.302 86.3025 149.49 86.16 149.7 86.19L159.855 87.69C160.057 87.72 160.2 87.9075 160.17 88.1175C160.14 88.3125 159.982 88.44 159.795 88.44Z" fill="white"/>
<path id="Vector_54" d="M184.192 88.1701C184.177 88.1701 184.155 88.1701 184.14 88.1626L169.192 85.9501C168.99 85.9201 168.847 85.7326 168.877 85.5226C168.907 85.3201 169.095 85.1776 169.305 85.2076L184.252 87.4201C184.455 87.4501 184.597 87.6376 184.567 87.8476C184.537 88.0426 184.38 88.1701 184.192 88.1701Z" fill="white"/>
</g>
<g id="Group_17">
<g id="Group_18">
<path id="Vector_55" d="M115.687 175.328L38.692 183.998C37.2145 184.163 35.8795 183.098 35.7145 181.62L30.157 132.3C30.1495 132.225 30.202 132.15 30.2845 132.143L112.334 122.895C112.409 122.888 112.484 122.94 112.492 123.023L118.049 172.365C118.214 173.835 117.157 175.163 115.687 175.328Z" fill="#F792E1"/>
<path id="Vector_56" d="M38.3921 184.395C36.8546 184.395 35.5196 183.232 35.3471 181.665L29.7896 132.345C29.7596 132.06 29.9621 131.805 30.2471 131.775L112.297 122.527C112.582 122.497 112.837 122.7 112.867 122.985L118.425 172.327C118.515 173.137 118.29 173.932 117.78 174.57C117.27 175.207 116.542 175.605 115.732 175.702L38.7371 184.372C38.6171 184.387 38.5046 184.395 38.3921 184.395ZM30.5546 132.487L36.0896 181.582C36.2321 182.85 37.3796 183.772 38.6546 183.63L115.642 174.952C116.25 174.885 116.797 174.577 117.187 174.097C117.57 173.617 117.742 173.017 117.675 172.402L112.14 123.292L30.5546 132.487Z" fill="#081F58"/>
</g>
<path id="Vector_57" opacity="0.29" d="M112.079 175.328L42.4645 184.005C40.987 184.17 64.0345 154.605 63.8695 153.128L30.157 132.3C30.1495 132.225 30.202 132.15 30.2845 132.143L112.334 122.895C112.409 122.888 112.484 122.94 112.492 123.023L84.427 150.803C84.5845 152.273 113.549 175.163 112.079 175.328Z" fill="#081F58"/>
<g id="Group_19">
<path id="Vector_58" d="M30.2846 132.143L64.2146 98.5876C66.2396 96.5776 69.3746 96.2251 71.7971 97.7251L112.125 122.768C112.192 122.813 112.17 122.918 112.087 122.925L30.1421 132.158" fill="#F792E1"/>
<path id="Vector_59" d="M30.187 132.533L30.127 131.978L30.022 131.873L30.1045 131.79V131.783H30.1195L63.9595 98.3177C66.112 96.1802 69.4195 95.8052 71.9995 97.4027L112.327 122.453C112.492 122.558 112.574 122.753 112.537 122.94C112.492 123.128 112.334 123.278 112.139 123.3L30.187 132.533ZM68.5495 97.1702C67.0645 97.1702 65.5945 97.7402 64.477 98.8502L31.3195 131.648L111.217 122.648L71.5945 98.0402C70.6495 97.4627 69.592 97.1702 68.5495 97.1702Z" fill="#081F58"/>
</g>
<path id="Vector_60" opacity="0.29" d="M30.2846 132.143L64.2146 98.5876C66.2396 96.5776 69.3746 96.2251 71.7971 97.7251L112.125 122.768C112.192 122.813 112.17 122.918 112.087 122.925L30.1421 132.158" fill="#081F58"/>
<g id="Group_20">
<path id="Vector_61" d="M67.9645 147.945L42.457 183.428L112.072 175.583L79.312 146.663C75.8995 143.655 70.627 144.248 67.9645 147.945Z" fill="#F792E1"/>
<path id="Vector_62" d="M41.6621 183.9L67.6571 147.728C68.9846 145.875 71.0471 144.668 73.3121 144.413C75.5771 144.158 77.8571 144.878 79.5596 146.385L112.957 175.868L41.6621 183.9ZM74.2121 145.118C73.9421 145.118 73.6646 145.133 73.3946 145.163C71.3396 145.395 69.4721 146.49 68.2646 148.17L43.2521 182.97L111.195 175.313L79.0646 146.955C77.7221 145.763 75.9896 145.118 74.2121 145.118Z" fill="#081F58"/>
</g>
<g id="Group_21">
<path id="Vector_63" d="M34.4248 107.835L88.0498 101.79C91.5673 101.392 94.6948 103.545 95.0398 106.597L98.4898 137.19L83.5798 150.9L63.8773 153.12L44.3998 140.947L41.0623 111.307L34.4248 107.835Z" fill="white"/>
<path id="Vector_64" d="M63.7798 153.51L44.0473 141.173L40.7098 111.555L35.6023 107.333L88.0048 101.43C89.7973 101.228 91.5448 101.648 92.9398 102.608C94.3498 103.575 95.2273 104.985 95.4073 106.575L98.8723 137.355L83.7298 151.275L63.7798 153.51ZM44.7523 140.723L63.9523 152.73L83.4073 150.54L98.0923 137.048L94.6648 106.643C94.5073 105.278 93.7498 104.055 92.5198 103.215C91.2748 102.36 89.6998 101.985 88.0948 102.165L35.6848 108.068L41.4148 111.06L44.7523 140.723Z" fill="#081F58"/>
</g>
<path id="Vector_65" opacity="0.29" d="M67.9648 144.885L42.4573 183.435L112.072 175.59L79.3123 143.61C75.8998 140.587 70.6273 141.187 67.9648 144.885Z" fill="#081F58"/>
<g id="Group_22">
<path id="Vector_66" d="M67.9645 147.945L42.457 183.428L112.072 175.583L79.312 146.663C75.8995 143.655 70.627 144.248 67.9645 147.945Z" fill="#F792E1"/>
<path id="Vector_67" d="M41.6621 183.9L67.6571 147.728C68.9846 145.875 71.0471 144.668 73.3121 144.413C75.5771 144.158 77.8571 144.878 79.5596 146.385L112.957 175.868L41.6621 183.9ZM74.2121 145.118C73.9421 145.118 73.6646 145.133 73.3946 145.163C71.3396 145.395 69.4721 146.49 68.2646 148.17L43.2521 182.97L111.195 175.313L79.0646 146.955C77.7221 145.763 75.9896 145.118 74.2121 145.118Z" fill="#081F58"/>
</g>
<path id="Vector_68" opacity="0.35" d="M70.4321 155.806L51.7046 181.868L102.832 176.108L78.7721 154.868C76.2596 152.648 72.3896 153.083 70.4321 155.806Z" fill="#D5F7F2"/>
<g id="Group_23">
<path id="Vector_69" d="M30.517 131.899L30.1204 132.536L63.6716 153.444L64.0683 152.808L30.517 131.899Z" fill="#081F58"/>
</g>
<g id="Group_24">
<path id="Vector_70" d="M112.224 122.688L84.1719 150.546L84.7004 151.079L112.753 123.22L112.224 122.688Z" fill="#081F58"/>
</g>
<g id="Group_25">
<path id="Vector_71" d="M42.5469 124.965L33.1869 126.023L31.6794 112.673C31.4019 110.205 33.1794 107.978 35.6394 107.7L36.0669 107.655C38.5344 107.378 40.7619 109.155 41.0394 111.615L42.5469 124.965Z" fill="#D5F7F2"/>
<path id="Vector_72" d="M32.8569 126.435L31.3119 112.71C31.1694 111.42 31.5294 110.145 32.3469 109.125C33.1569 108.105 34.3194 107.467 35.6094 107.325L36.0369 107.28C37.3344 107.137 38.6019 107.497 39.6144 108.315C40.6344 109.125 41.2719 110.287 41.4144 111.577L42.9594 125.302L32.8569 126.435ZM36.5844 108C36.4269 108 36.2694 108.007 36.1119 108.03L35.6844 108.075C34.5894 108.195 33.6144 108.742 32.9244 109.597C32.2419 110.46 31.9269 111.532 32.0544 112.627L33.5169 125.61L42.1269 124.642L40.6644 111.66C40.5444 110.565 39.9969 109.59 39.1419 108.9C38.4069 108.307 37.5144 108 36.5844 108Z" fill="#081F58"/>
</g>
<path id="Vector_73" d="M48.8997 118.012C48.7122 118.012 48.5472 117.87 48.5247 117.682C48.5022 117.48 48.6522 117.292 48.8547 117.27L87.7122 112.89C87.9222 112.867 88.1022 113.017 88.1247 113.22C88.1472 113.422 87.9972 113.61 87.7947 113.632L48.9372 118.012C48.9297 118.012 48.9147 118.012 48.8997 118.012Z" fill="#081F58"/>
<path id="Vector_74" d="M50.3921 131.22C50.2046 131.22 50.0396 131.078 50.0171 130.89C49.9946 130.688 50.1446 130.5 50.3471 130.478L89.1971 126.098C89.3996 126.075 89.5871 126.225 89.6096 126.428C89.6321 126.63 89.4821 126.818 89.2796 126.84L50.4296 131.22C50.4221 131.22 50.4071 131.22 50.3921 131.22Z" fill="#081F58"/>
<path id="Vector_75" d="M49.6346 124.545C49.4471 124.545 49.2821 124.402 49.2596 124.215C49.2371 124.012 49.3871 123.825 49.5896 123.802L66.3821 121.912C66.5846 121.89 66.7721 122.04 66.7946 122.242C66.8171 122.445 66.6671 122.632 66.4646 122.655L49.6721 124.545C49.6646 124.545 49.6496 124.545 49.6346 124.545Z" fill="#081F58"/>
<path id="Vector_76" d="M70.8221 122.152C70.6346 122.152 70.4696 122.01 70.4471 121.822C70.4246 121.62 70.5746 121.432 70.7771 121.41L88.4471 119.422C88.6571 119.4 88.8371 119.55 88.8596 119.752C88.8821 119.955 88.7321 120.142 88.5296 120.165L70.8596 122.152C70.8521 122.152 70.8371 122.152 70.8221 122.152Z" fill="#081F58"/>
<path id="Vector_77" d="M51.232 138.712C51.0445 138.712 50.8795 138.57 50.857 138.382C50.8345 138.18 50.9845 137.992 51.187 137.97L67.9795 136.08C68.182 136.057 68.3695 136.207 68.392 136.41C68.4145 136.612 68.2645 136.8 68.062 136.822L51.2695 138.712C51.262 138.712 51.247 138.712 51.232 138.712Z" fill="#081F58"/>
</g>
</g>
</g>
<defs>
<linearGradient id="paint0_linear_42_2000" x1="9.02979" y1="199.563" x2="206.628" y2="-27.9599" gradientUnits="userSpaceOnUse">
<stop stop-color="#0D52FF"/>
<stop offset="1" stop-color="#03EADA"/>
</linearGradient>
<linearGradient id="paint1_linear_42_2000" x1="33.9263" y1="185.804" x2="188.731" y2="7.57135" gradientUnits="userSpaceOnUse">
<stop stop-color="#0D52FF"/>
<stop offset="1" stop-color="#03EADA"/>
</linearGradient>
<linearGradient id="paint2_linear_42_2000" x1="230.305" y1="38.3564" x2="219.326" y2="20.5537" gradientUnits="userSpaceOnUse">
<stop stop-color="#0D52FF"/>
<stop offset="1" stop-color="#03EADA"/>
</linearGradient>
<linearGradient id="paint3_linear_42_2000" x1="62.4189" y1="32.9973" x2="62.4189" y2="8.75079" gradientUnits="userSpaceOnUse">
<stop stop-color="#0D52FF"/>
<stop offset="1" stop-color="#03EADA"/>
</linearGradient>
<linearGradient id="paint4_linear_42_2000" x1="-0.000488175" y1="196.643" x2="22.1395" y2="174.503" gradientUnits="userSpaceOnUse">
<stop stop-color="#0D52FF"/>
<stop offset="1" stop-color="#03EADA"/>
</linearGradient>
<linearGradient id="paint5_linear_42_2000" x1="134.182" y1="152.46" x2="156.354" y2="109.497" gradientUnits="userSpaceOnUse">
<stop stop-color="#0D52FF"/>
<stop offset="1" stop-color="#03EADA"/>
</linearGradient>
<linearGradient id="paint6_linear_42_2000" x1="141.817" y1="100.861" x2="163.989" y2="57.8983" gradientUnits="userSpaceOnUse">
<stop stop-color="#0D52FF"/>
<stop offset="1" stop-color="#03EADA"/>
</linearGradient>
<linearGradient id="paint7_linear_42_2000" x1="120.134" y1="160.283" x2="128.505" y2="151.912" gradientUnits="userSpaceOnUse">
<stop stop-color="#0D52FF"/>
<stop offset="1" stop-color="#03EADA"/>
</linearGradient>
<clipPath id="clip0_42_2000">
<rect width="238.822" height="199.568" fill="white"/>
</clipPath>
</defs>
</svg>
