<svg width="64" height="29" viewBox="0 0 64 29" fill="none" xmlns="http://www.w3.org/2000/svg">
<g id="Homepage paradigm white 1" clip-path="url(#clip0_11_196)">
<g id="Clip path group">
<mask id="mask0_11_196" style="mask-type:luminance" maskUnits="userSpaceOnUse" x="0" y="0" width="64" height="29">
<g id="clip0_38_2">
<path id="Vector" d="M63.1182 0.9375H0.5V28.9375H63.1182V0.9375Z" fill="white"/>
</g>
</mask>
<g mask="url(#mask0_11_196)">
<g id="Group">
<path id="Vector_2" d="M55.2598 14.7339C55.4385 14.7813 55.5958 14.8878 55.7058 15.0361C55.8162 15.1845 55.8727 15.3658 55.8666 15.5506C55.8666 16.0778 55.4818 16.5236 54.6998 16.5236C54.3918 16.523 54.0838 16.5042 53.7778 16.4673V13.3384C53.9204 13.329 54.3149 13.3149 54.5415 13.3149C55.2109 13.3149 55.5805 13.595 55.5805 14.1316C55.5836 14.2512 55.5556 14.3695 55.4996 14.4751C55.4431 14.5806 55.3606 14.6698 55.2598 14.7339ZM54.321 13.7796V14.5915C54.3974 14.5915 54.4773 14.5915 54.5588 14.5915C54.8342 14.5915 55.0047 14.3882 55.0047 14.0831C55.0047 14.0358 54.9946 13.989 54.9747 13.9458C54.9554 13.9027 54.9269 13.8641 54.8917 13.8328C54.8561 13.8015 54.8143 13.778 54.769 13.764C54.7237 13.75 54.6764 13.7457 54.629 13.7514C54.5267 13.7524 54.4249 13.7618 54.3241 13.7796H54.321ZM54.321 14.9999V16.0575C54.4351 16.0668 54.5542 16.0668 54.681 16.0668C55.0658 16.0668 55.2924 15.8728 55.2924 15.5115C55.2924 15.1986 55.1081 14.9889 54.6667 14.9889C54.5542 14.9905 54.4335 14.9983 54.3241 14.9983L54.321 14.9999Z" fill="white"/>
<path id="Vector_3" d="M57.253 13.5577C57.5483 13.4043 57.8746 13.3197 58.2076 13.3105C58.7442 13.3105 59.1275 13.6234 59.1275 14.0928C59.1275 14.7342 58.4061 15.3788 57.893 15.9967H59.1601V16.4661H57.2388V15.9967C57.7316 15.3225 58.5924 14.6966 58.5924 14.1319C58.5924 13.8612 58.3934 13.7564 58.1134 13.7564C57.8497 13.7646 57.5921 13.8383 57.364 13.9707L57.253 13.5577Z" fill="white"/>
<path id="Vector_4" d="M62.2564 14.7339C62.4346 14.7813 62.5924 14.8878 62.7023 15.0361C62.8128 15.1845 62.8693 15.3658 62.8632 15.5506C62.8632 16.0778 62.4783 16.5236 61.6959 16.5236C61.3879 16.523 61.0804 16.5042 60.7744 16.4673V13.3384C60.917 13.329 61.311 13.3149 61.5381 13.3149C62.2075 13.3149 62.5771 13.595 62.5771 14.1316C62.5802 14.2512 62.5522 14.3695 62.4962 14.4751C62.4396 14.5806 62.3572 14.6698 62.2564 14.7339ZM61.3176 13.7796V14.5915C61.394 14.5915 61.4739 14.5915 61.5554 14.5915C61.8308 14.5915 62.0013 14.3882 62.0013 14.0831C62.0008 14.0358 61.9911 13.989 61.9713 13.9458C61.9519 13.9027 61.9234 13.8641 61.8878 13.8328C61.8527 13.8015 61.8109 13.778 61.7656 13.764C61.7203 13.75 61.6724 13.7457 61.6256 13.7514C61.5233 13.7524 61.4215 13.7618 61.3207 13.7796H61.3176ZM61.3176 14.9999V16.0575C61.4316 16.0668 61.5508 16.0668 61.6775 16.0668C62.0619 16.0668 62.289 15.8728 62.289 15.5115C62.289 15.1986 62.1042 14.9889 61.6633 14.9889C61.5538 14.9905 61.4301 14.9983 61.3207 14.9983L61.3176 14.9999Z" fill="white"/>
<path id="Vector_5" d="M21.0309 13.334H21.0496C21.253 13.3246 21.5189 13.3105 21.738 13.3105C22.4217 13.3105 22.8769 13.6625 22.8769 14.3165C22.8769 14.8437 22.5312 15.2896 21.7896 15.2896C21.6332 15.2896 21.5049 15.2896 21.386 15.2755V16.4661H21.0293L21.0309 13.334ZM21.3875 13.6329V14.9611C21.5017 14.9704 21.6348 14.9751 21.7771 14.9751C22.2464 14.9751 22.4842 14.7326 22.4842 14.2774C22.4842 13.8879 22.2996 13.6219 21.7677 13.6219C21.6332 13.6234 21.5002 13.6281 21.3875 13.6329Z" fill="white"/>
<path id="Vector_6" d="M26.9449 16.4658H26.5413L26.0814 15.413H24.6733L24.2556 16.4658H23.8911L25.1427 13.3369H25.5745L26.9449 16.4658ZM24.8141 15.0797H25.9343L25.346 13.7312L24.8141 15.0797Z" fill="white"/>
<path id="Vector_7" d="M28.3263 13.334C28.55 13.3246 28.8097 13.3105 29.0334 13.3105C29.7171 13.3105 30.1724 13.6234 30.1724 14.2117C30.1784 14.4163 30.1115 14.6164 29.9837 14.7763C29.8559 14.9361 29.6755 15.0454 29.4746 15.0846L30.6745 16.4661H30.2334L29.0538 15.1285C28.9115 15.1285 28.7879 15.1285 28.6737 15.1144V16.4676H28.3169L28.3263 13.334ZM28.683 13.6329V14.8046C28.7972 14.814 28.9302 14.814 29.0726 14.814C29.5419 14.814 29.7797 14.5903 29.7797 14.1741C29.7797 13.8472 29.5951 13.6234 29.0632 13.6234C28.9286 13.6234 28.7956 13.6281 28.6814 13.6329H28.683Z" fill="white"/>
<path id="Vector_8" d="M34.7139 16.4658H34.3103L33.8503 15.413H32.4502L32.0262 16.4658H31.646L32.8976 13.3369H33.3294L34.7139 16.4658ZM32.5831 15.0797H33.7033L33.1213 13.7327L32.5831 15.0797Z" fill="white"/>
<path id="Vector_9" d="M36.0939 13.3337H36.1173C36.4161 13.3243 36.7963 13.3102 37.1279 13.3102C37.5213 13.2957 37.9069 13.4222 38.2152 13.6669C38.5469 13.9657 38.694 14.4257 38.694 14.9342C38.694 15.7883 38.2152 16.5236 37.1796 16.5236C36.8164 16.5235 36.4535 16.5047 36.0923 16.4673L36.0939 13.3337ZM36.4505 13.6372V16.181C36.6492 16.1998 36.8964 16.2092 37.1671 16.2092C37.9165 16.2092 38.3013 15.7586 38.3013 14.895C38.3013 14.1363 38.0025 13.6231 37.1577 13.6231C36.9073 13.6231 36.6508 13.6278 36.4521 13.6372H36.4505Z" fill="white"/>
<path id="Vector_10" d="M40.742 16.4658H40.3853V13.3369H40.742V16.4658Z" fill="white"/>
<path id="Vector_11" d="M45.0412 16.2047C44.7158 16.4164 44.3342 16.5254 43.9461 16.5176C42.912 16.5176 42.4316 15.7822 42.4316 14.928C42.4316 14.0316 42.9636 13.3057 43.9961 13.3057C44.3403 13.3039 44.6812 13.3732 44.9974 13.5091L44.8973 13.8501C44.615 13.6865 44.2924 13.6058 43.9664 13.617C43.1216 13.617 42.8228 14.1302 42.8228 14.8889C42.8228 15.7525 43.2077 16.2031 43.957 16.2031C44.2073 16.2025 44.4546 16.1492 44.6829 16.0466V15.1643H45.0396L45.0412 16.2047Z" fill="white"/>
<path id="Vector_12" d="M48.3122 16.0202L49.3745 13.334H49.8296V16.463H49.4746V14.0975L48.5156 16.4661H48.0884L47.1247 14.0928V16.4661H46.7681V13.3371H47.2468L48.3122 16.0202Z" fill="white"/>
<path id="Vector_13" d="M0.245605 18.7092V10.9761L3.31821 12.3512V20.086L0.245605 18.7092Z" fill="white"/>
<path id="Vector_14" d="M8.53117 14.689L5.48828 13.3232V21.0532L8.53117 22.419V14.689Z" fill="white"/>
<path id="Vector_15" d="M11.5752 13.3247L8.52766 11.9604L5.48633 13.3231L8.53077 14.6889L11.5752 13.3247Z" fill="#F0F0F0"/>
<path id="Vector_16" d="M13.7438 12.3515L8.53101 9.98445L3.31821 12.3499L0.245605 10.9763L8.53101 7.04639L16.8164 10.9779L13.7438 12.3515Z" fill="#F0F0F0"/>
<path id="Vector_17" d="M16.8196 10.9766L13.7471 12.3517V17.3674L9.51825 19.2604V17.0936L11.5771 16.1753V13.3233L8.53418 14.6891V22.419L16.8196 18.7097V10.9766Z" fill="#D7D7D7"/>
</g>
</g>
</g>
</g>
<defs>
<clipPath id="clip0_11_196">
<rect width="62.6182" height="28" fill="white" transform="translate(0.5 0.9375)"/>
</clipPath>
</defs>
</svg>
