<svg width="51" height="29" viewBox="0 0 51 29" fill="none" xmlns="http://www.w3.org/2000/svg">
<g id="Homepage Gartner White 1" clip-path="url(#clip0_6_84)">
<g id="Clip path group">
<mask id="mask0_6_84" style="mask-type:luminance" maskUnits="userSpaceOnUse" x="0" y="0" width="51" height="29">
<g id="clip0_38_31">
<path id="Vector" d="M51 0.9375H0V28.9375H51V0.9375Z" fill="white"/>
</g>
</mask>
<g mask="url(#mask0_6_84)">
<g id="Group">
<path id="Vector_2" d="M50.9005 12.9571L50.7641 14.7048H50.0365C48.8997 14.7048 48.3086 15.6127 48.3086 16.4978V20.447H46.2849V12.9571H48.1949L48.2403 13.8877C48.6496 13.2522 49.3544 12.9571 50.2184 12.9571H50.9005ZM36.8491 20.447H34.8255V16.4751C34.8255 15.6353 34.7574 14.5913 33.575 14.5913C32.4382 14.5913 32.0062 15.4084 32.0062 16.3389V20.4243H29.9598V12.9344H31.847L31.8925 13.8877C32.3018 13.2522 33.0521 12.7529 34.1435 12.7529C36.1898 12.7529 36.8264 14.2055 36.8264 15.7261L36.8491 20.447ZM29.0731 18.6993L28.9367 20.4016C28.4592 20.5378 28.0272 20.5832 27.5043 20.5832C25.5943 20.5832 25.0487 19.698 25.0487 17.9504V10.8464H27.0723V12.9571H29.0958L28.9594 14.7048H27.0723V17.7915C27.0723 18.4951 27.2769 18.8809 27.9817 18.8809C28.3 18.8809 28.6411 18.8582 29.0731 18.6993ZM24.3666 12.9571L24.2074 14.7048H23.6617C22.5249 14.7048 21.9565 15.6127 21.9565 16.4978V20.447H19.9329V12.9571H21.8655L21.911 13.8877C22.3202 13.2522 23.0251 12.9571 23.8891 12.9571H24.3666ZM10.7699 19.6299C9.38292 20.3562 8.01872 20.7874 6.19975 20.742C2.83471 20.6285 0.401855 18.5632 0.401855 15.0225C0.401855 11.5046 2.85744 9.28034 6.19975 9.21228C7.90504 9.18957 9.40566 9.62077 10.588 10.6648L9.15556 12.1174C8.42799 11.4819 7.33659 11.1188 6.06333 11.1868C3.94881 11.2776 2.69828 12.821 2.65281 14.9091C2.63007 17.1787 4.01702 18.7448 6.19975 18.8128C7.22291 18.8355 7.97323 18.6993 8.60986 18.4043V16.0893H6.33618L6.49535 14.1828H10.7472L10.7699 19.6299ZM45.3755 17.4283H39.8049C39.9641 18.3816 40.7144 18.9717 41.6466 18.9944C42.5561 19.0171 43.079 18.7447 43.7384 18.0638L45.0572 19.0625C44.1249 20.22 42.9881 20.6512 41.6921 20.6512C39.4184 20.6512 37.7359 19.0625 37.7359 16.7248C37.7359 14.3643 39.4184 12.7983 41.6011 12.7983C44.0113 12.7983 45.33 14.2509 45.33 16.8383V17.4283H45.3755ZM43.3292 15.8396C43.2609 14.8863 42.5561 14.2963 41.5784 14.3416C40.6007 14.387 39.9414 15.0225 39.8049 15.8396H43.3292ZM18.6369 15.5446V20.447H16.8406L16.7952 19.698C16.2495 20.3789 15.3628 20.6285 14.4305 20.6285C13.0436 20.6285 11.7476 19.9476 11.7248 18.3589C11.6793 15.8623 14.5215 15.7034 16.3177 15.7034H16.6815V15.6127C16.6815 14.7956 16.1358 14.3416 15.1127 14.3416C14.385 14.3416 13.6575 14.6367 13.1118 15.136L11.9522 13.9558C13.0208 13.0933 14.1122 12.7756 15.2945 12.7756C17.6137 12.7756 18.6369 13.8423 18.6369 15.5446ZM16.6815 17.1787H16.4086C15.4537 17.1787 13.7712 17.2241 13.7712 18.2227C13.7712 19.6299 16.7042 19.176 16.7042 17.4738L16.6815 17.1787ZM49.309 19.5845C49.309 19.1079 49.6728 18.7447 50.1275 18.7447C50.5822 18.7447 50.946 19.1079 50.946 19.5845C50.946 20.0612 50.5822 20.4243 50.1275 20.4243C49.6728 20.4243 49.309 20.0612 49.309 19.5845ZM50.1502 20.5832C50.6959 20.5832 51.1736 20.1519 51.1736 19.5618C51.1736 18.9717 50.6959 18.5632 50.1502 18.5632C49.6045 18.5632 49.1271 18.9944 49.1271 19.5618C49.1043 20.1746 49.5818 20.5832 50.1502 20.5832ZM49.9229 19.6526H50.1275L50.4231 20.1519H50.6277L50.2867 19.6299C50.4686 19.6072 50.5822 19.5164 50.5822 19.3121C50.5822 19.0852 50.4458 18.9717 50.173 18.9717H49.7183V20.1292H49.9001L49.9229 19.6526ZM49.9229 19.5164V19.1533H50.173C50.2866 19.1533 50.4231 19.176 50.4231 19.3348C50.4231 19.5164 50.2866 19.5164 50.1502 19.5164H49.9229Z" fill="white"/>
</g>
</g>
</g>
</g>
<defs>
<clipPath id="clip0_6_84">
<rect width="51" height="28" fill="white" transform="translate(0 0.9375)"/>
</clipPath>
</defs>
</svg>
