<svg width="39" height="50" viewBox="0 0 39 50" fill="none" xmlns="http://www.w3.org/2000/svg">
<g id="icon-ribbon-pink-gradient 1" clip-path="url(#clip0_17_988)">
<path id="Vector" d="M16.8976 3.56112C18.2577 2.13327 20.5356 2.13327 21.8958 3.56112C22.7877 4.49745 24.1283 4.85665 25.3689 4.49173C27.2607 3.93526 29.2335 5.07423 29.6975 6.99086C30.0018 8.24773 30.9831 9.22905 32.24 9.53333C34.1566 9.99738 35.2956 11.9701 34.7391 13.862C34.3742 15.1026 34.7334 16.4431 35.6698 17.3351C37.0975 18.6952 37.0975 20.9731 35.6698 22.3333C34.7334 23.2252 34.3742 24.5658 34.7391 25.8064C35.2956 27.6982 34.1566 29.671 32.24 30.135C30.9831 30.4393 30.0018 31.4206 29.6975 32.6775C29.2335 34.5941 27.2607 35.7331 25.3689 35.1766C24.1283 34.8117 22.7877 35.1709 21.8958 36.1073C20.5356 37.535 18.2577 37.535 16.8976 36.1073C16.0056 35.1709 14.6651 34.8117 13.4245 35.1766C11.5326 35.7331 9.55988 34.5941 9.09583 32.6775C8.79155 31.4206 7.81023 30.4393 6.55336 30.135C4.63673 29.671 3.49776 27.6982 4.05423 25.8064C4.41915 24.5658 4.05995 23.2252 3.12362 22.3333C1.69577 20.9731 1.69577 18.6952 3.12362 17.3351C4.05995 16.4431 4.41915 15.1026 4.05423 13.862C3.49776 11.9701 4.63673 9.99738 6.55336 9.53333C7.81023 9.22905 8.79155 8.24773 9.09583 6.99086C9.55988 5.07422 11.5326 3.93526 13.4245 4.49173C14.6651 4.85665 16.0056 4.49745 16.8976 3.56112Z" fill="url(#paint0_linear_17_988)"/>
<path id="Vector_2" fill-rule="evenodd" clip-rule="evenodd" d="M8.96698 32.2646L3.96094 46.0186L10.255 45.4788L14.7295 49.9381L19.3734 37.1789C18.4715 37.1731 17.5712 36.8161 16.8967 36.1081C16.0048 35.1718 14.6643 34.8126 13.4237 35.1775C11.5317 35.7339 9.55908 34.595 9.09502 32.6784C9.06074 32.5367 9.01787 32.3986 8.96698 32.2646Z" fill="url(#paint1_linear_17_988)"/>
<path id="Vector_3" fill-rule="evenodd" clip-rule="evenodd" d="M29.795 32.2441L34.7825 45.9472L28.4925 45.4185L24.0139 49.8667L19.4058 37.2058C20.2958 37.1909 21.1811 36.8341 21.8467 36.1354C22.7387 35.1991 24.0791 34.8399 25.3198 35.2048C27.2116 35.7613 29.1844 34.6223 29.6484 32.7056C29.6868 32.5472 29.7359 32.3931 29.795 32.2441Z" fill="url(#paint2_linear_17_988)"/>
<path id="Vector_4" d="M7.58441 19.8338C7.58441 26.3564 12.8721 31.6441 19.3947 31.6441C25.9174 31.6441 31.2051 26.3564 31.2051 19.8338C31.2051 13.3111 25.9174 8.02344 19.3947 8.02344C12.8721 8.02344 7.58441 13.3111 7.58441 19.8338Z" fill="url(#paint3_linear_17_988)"/>
</g>
<defs>
<linearGradient id="paint0_linear_17_988" x1="0.500138" y1="20.1531" x2="41.8135" y2="20.1531" gradientUnits="userSpaceOnUse">
<stop stop-color="#F849A0"/>
<stop offset="1" stop-color="#F849A0" stop-opacity="0"/>
</linearGradient>
<linearGradient id="paint1_linear_17_988" x1="15.1206" y1="30.2865" x2="7.79106" y2="51.9706" gradientUnits="userSpaceOnUse">
<stop stop-color="#F849A0" stop-opacity="0.1"/>
<stop offset="1" stop-color="#F849A0"/>
</linearGradient>
<linearGradient id="paint2_linear_17_988" x1="30.1945" y1="49.9388" x2="23.4167" y2="32.6584" gradientUnits="userSpaceOnUse">
<stop stop-color="#F849A0"/>
<stop offset="1" stop-color="#F849A0" stop-opacity="0.1"/>
</linearGradient>
<linearGradient id="paint3_linear_17_988" x1="19.3947" y1="8.0234" x2="19.3947" y2="31.644" gradientUnits="userSpaceOnUse">
<stop stop-color="#F849A0"/>
<stop offset="1" stop-color="#F849A0" stop-opacity="0"/>
</linearGradient>
<clipPath id="clip0_17_988">
<rect width="38.3091" height="49" fill="white" transform="translate(0.5 0.9375)"/>
</clipPath>
</defs>
</svg>
