<svg width="52" height="50" viewBox="0 0 52 50" fill="none" xmlns="http://www.w3.org/2000/svg">
<g id="icon-integrations-blue-gradient 1" clip-path="url(#clip0_17_933)">
<g id="Clip path group">
<mask id="mask0_17_933" style="mask-type:luminance" maskUnits="userSpaceOnUse" x="0" y="0" width="52" height="50">
<g id="clip0_1860_17779">
<path id="Vector" d="M51.6304 0.9375H0.5V49.9375H51.6304V0.9375Z" fill="white"/>
</g>
</mask>
<g mask="url(#mask0_17_933)">
<g id="Group">
<path id="Vector_2" d="M8.57227 39.9582L26.064 10.3569L43.5556 39.9582H8.57227Z" fill="url(#paint0_linear_17_933)"/>
<path id="Vector_3" d="M26.0642 0.9375C32.7521 0.9375 38.1738 6.35916 38.1738 13.0471C38.1738 19.735 32.7521 25.1567 26.0642 25.1567C19.3762 25.1567 13.9546 19.735 13.9546 13.0471C13.9546 6.35916 19.3762 0.9375 26.0642 0.9375Z" fill="url(#paint1_linear_17_933)"/>
<path id="Vector_4" d="M12.6096 25.1572C19.2976 25.1572 24.7192 30.5789 24.7192 37.2668C24.7192 43.9548 19.2976 49.3764 12.6096 49.3764C5.92166 49.3764 0.5 43.9548 0.5 37.2668C0.5 30.5789 5.92166 25.1572 12.6096 25.1572Z" fill="url(#paint2_linear_17_933)"/>
<path id="Vector_5" d="M39.5207 25.1572C46.2087 25.1572 51.6303 30.5789 51.6303 37.2668C51.6303 43.9548 46.2087 49.3764 39.5207 49.3764C32.8328 49.3764 27.4111 43.9548 27.4111 37.2668C27.4111 30.5789 32.8328 25.1572 39.5207 25.1572Z" fill="url(#paint3_linear_17_933)"/>
<path id="Vector_6" d="M8.57227 39.9582L26.064 10.3569L43.5556 39.9582H8.57227Z" fill="url(#paint4_linear_17_933)"/>
</g>
</g>
</g>
</g>
<defs>
<linearGradient id="paint0_linear_17_933" x1="26.064" y1="10.3569" x2="26.064" y2="39.9582" gradientUnits="userSpaceOnUse">
<stop stop-color="#0D52FF" stop-opacity="0"/>
<stop offset="1" stop-color="#0D52FF"/>
</linearGradient>
<linearGradient id="paint1_linear_17_933" x1="37.7825" y1="25.4376" x2="37.7825" y2="0.937576" gradientUnits="userSpaceOnUse">
<stop stop-color="#0D52FF" stop-opacity="0"/>
<stop offset="1" stop-color="#1989FF"/>
</linearGradient>
<linearGradient id="paint2_linear_17_933" x1="24.328" y1="49.6573" x2="24.328" y2="25.1573" gradientUnits="userSpaceOnUse">
<stop stop-color="#0D52FF" stop-opacity="0"/>
<stop offset="1" stop-color="#1989FF"/>
</linearGradient>
<linearGradient id="paint3_linear_17_933" x1="51.2391" y1="49.6573" x2="51.2391" y2="25.1573" gradientUnits="userSpaceOnUse">
<stop stop-color="#0D52FF" stop-opacity="0"/>
<stop offset="1" stop-color="#1989FF"/>
</linearGradient>
<linearGradient id="paint4_linear_17_933" x1="26.064" y1="10.3569" x2="26.064" y2="39.9582" gradientUnits="userSpaceOnUse">
<stop stop-color="#0D52FF" stop-opacity="0"/>
<stop offset="1" stop-color="#1F99FF"/>
</linearGradient>
<clipPath id="clip0_17_933">
<rect width="51.1304" height="49" fill="white" transform="translate(0.5 0.9375)"/>
</clipPath>
</defs>
</svg>
