<svg width="51" height="29" viewBox="0 0 51 29" fill="none" xmlns="http://www.w3.org/2000/svg">
<g id="IDC white 1" clip-path="url(#clip0_6_158)">
<g id="Clip path group">
<mask id="mask0_6_158" style="mask-type:luminance" maskUnits="userSpaceOnUse" x="0" y="0" width="51" height="29">
<g id="clip0_38_19">
<path id="Vector" d="M50.4 0.9375H0V28.9375H50.4V0.9375Z" fill="white"/>
</g>
</mask>
<g mask="url(#mask0_6_158)">
<g id="Group">
<g id="Mask group">
<mask id="mask1_6_158" style="mask-type:luminance" maskUnits="userSpaceOnUse" x="-1" y="7" width="52" height="16">
<g id="Group_2">
<path id="Vector_2" d="M50.1456 7.04639H-0.254395V22.3365H50.1456V7.04639Z" fill="white"/>
</g>
</mask>
<g mask="url(#mask1_6_158)">
<g id="Group_3">
<path id="Vector_3" fill-rule="evenodd" clip-rule="evenodd" d="M48.5019 17.6695V17.6886C47.3895 19.1947 45.6274 20.0815 43.7581 20.0777C40.7001 20.0777 38.464 17.8415 38.464 14.7606C38.464 11.6796 40.7384 9.34024 43.7696 9.34024C45.6121 9.36315 47.3322 10.2576 48.4102 11.7523L50.0653 10.2576C49.4002 9.28292 48.4981 8.49546 47.4431 7.96412C46.2887 7.36782 45.0043 7.05055 43.7046 7.04674C41.694 7.02759 39.756 7.79597 38.3034 9.19118C37.5924 9.88685 37.0267 10.7164 36.6445 11.6337C36.2354 12.6276 36.0252 13.6903 36.0328 14.7644C36.0252 15.8271 36.2278 16.8782 36.633 17.8606C37.0076 18.7589 37.5657 19.5731 38.269 20.2497C39.7216 21.6182 41.6519 22.3674 43.6473 22.3368C44.9737 22.3368 46.2849 22.0272 47.4698 21.4271C48.5287 20.8843 49.4461 20.0968 50.1456 19.1336L48.5019 17.6695ZM17.6618 7.24162H20.028V22.138H17.6618V7.24162ZM30.3831 7.81124C31.2928 8.15528 32.1224 8.68662 32.8218 9.3632C33.5023 10.0321 34.0336 10.8349 34.3891 11.7178C34.7637 12.6659 34.951 13.675 34.9434 14.6918C34.9548 15.7162 34.7637 16.733 34.3891 17.6849C34.0374 18.5716 33.5023 19.3744 32.8218 20.0433C32.1224 20.7161 31.2928 21.236 30.3831 21.5723C29.3739 21.9546 28.2998 22.1495 27.218 22.1495H21.8894V7.24167H27.218C28.2998 7.23785 29.3701 7.42901 30.3831 7.81124ZM27.2257 20.116C30.3716 20.116 32.5772 17.8951 32.5772 14.7147V14.6918C32.5772 11.458 30.4213 9.2791 27.2334 9.2791H24.2097V20.116H27.2257ZM5.03979 22.0808C4.13386 21.7711 3.29291 21.3009 2.55898 20.6894V20.6817C2.5131 20.6435 2.49017 20.59 2.49017 20.5288C2.49017 20.4218 2.57427 20.3377 2.6813 20.3377H6.07951C6.14452 20.3377 6.20566 20.3721 6.2439 20.4256C6.43501 20.7314 6.77142 20.9187 7.13073 20.9225H11.7598C11.8095 20.9225 11.8554 20.9455 11.8821 20.9875C11.9242 21.0563 11.905 21.1442 11.8401 21.1901C11.282 21.5609 10.678 21.8629 10.0435 22.0808C10.0014 22.0922 9.95939 22.0998 9.91734 22.0998H5.16213C5.12008 22.0998 5.07803 22.0922 5.03979 22.0808ZM12.5204 8.69431C11.8018 8.09796 10.9838 7.63545 10.1046 7.32582C10.0205 7.29904 9.93643 7.28377 9.84851 7.28377H5.22709C5.13917 7.28377 5.05507 7.29904 4.97097 7.32582C4.35936 7.54371 3.77833 7.8342 3.23936 8.19351C3.17055 8.23175 3.14762 8.31967 3.18584 8.3885C3.2126 8.43055 3.25847 8.45346 3.30816 8.45346H7.94869C8.31569 8.45346 8.65587 8.64457 8.85085 8.95802C8.88903 9.01157 8.95022 9.04594 9.01518 9.04594H12.3943C12.5013 9.04594 12.5893 8.95802 12.5893 8.851C12.5893 8.78986 12.5663 8.73249 12.5204 8.69431ZM15.0357 14.107C15.1924 14.107 15.3224 14.2293 15.33 14.386H15.3262C15.3339 14.4892 15.3339 14.5886 15.3262 14.6918C15.3262 14.7955 15.3204 14.8992 15.3147 15.0024C15.309 15.1046 15.3033 15.2064 15.3033 15.3072C15.2918 15.5098 15.1236 15.6666 14.921 15.6666H3.67516C3.56049 15.6666 3.45728 15.6016 3.40758 15.5022C3.34643 15.3646 3.20881 15.2766 3.05591 15.2766H0.0361172C-0.120606 15.2805 -0.250572 15.1543 -0.254395 14.9976V14.6918C-0.254395 14.4854 -0.254395 14.279 -0.223814 14.0764C-0.212347 13.8738 -0.0441558 13.717 0.158439 13.717H11.4043C11.5152 13.717 11.6184 13.7821 11.6681 13.8814C11.7292 14.0229 11.8707 14.107 12.0236 14.107H15.0357ZM10.1772 11.7676C10.5098 11.7676 10.8194 11.9358 10.9991 12.2186C11.0526 12.3027 11.1481 12.3524 11.2475 12.3524H14.5693C14.7298 12.3524 14.856 12.2186 14.856 12.0581C14.856 12.0275 14.8522 11.9969 14.8407 11.9702C14.6611 11.4924 14.4355 11.0337 14.1679 10.5979C14.0991 10.4833 13.9691 10.4106 13.8354 10.4144H1.23633C1.09872 10.4068 0.968752 10.4717 0.892302 10.5864C0.724114 10.854 0.575032 11.1369 0.441248 11.4236C0.383909 11.5459 0.437424 11.6874 0.55592 11.7447C0.586501 11.76 0.624729 11.7676 0.659128 11.7676H10.1772ZM4.07263 17.165C4.24846 17.4479 4.55809 17.6161 4.89063 17.6161H14.3973C14.4317 17.6161 14.4661 17.6238 14.4967 17.639C14.619 17.6964 14.6725 17.8378 14.619 17.9601C14.4852 18.2468 14.3361 18.5297 14.1679 18.7973C14.0991 18.9119 13.9691 18.9807 13.8354 18.9807H1.22102C1.08723 18.9807 0.961091 18.9119 0.892287 18.7973C0.632355 18.3615 0.410646 17.9028 0.238635 17.425C0.223345 17.3944 0.219522 17.3562 0.219522 17.3218C0.219522 17.1612 0.349489 17.0312 0.510036 17.0312H3.82416C3.92355 17.0312 4.01911 17.081 4.07263 17.165Z" fill="white"/>
</g>
</g>
</g>
</g>
</g>
</g>
</g>
<defs>
<clipPath id="clip0_6_158">
<rect width="50.4" height="28" fill="white" transform="translate(0 0.9375)"/>
</clipPath>
</defs>
</svg>
