<svg width="148" height="139" viewBox="0 0 148 139" fill="none" xmlns="http://www.w3.org/2000/svg">
<g id="Group">
<path id="Vector" d="M100.113 138.103C119.112 138.103 134.513 136.093 134.513 133.613C134.513 131.134 119.112 129.124 100.113 129.124C81.1135 129.124 65.7118 131.134 65.7118 133.613C65.7118 136.093 81.1135 138.103 100.113 138.103Z" fill="#E6E6E6"/>
<g id="Group_2">
<g id="Group_3">
<g id="Group_4">
<g id="Group_5">
<g id="Group_6">
<path id="Vector_2" d="M58.1095 74.7002C58.477 76.5722 58.8488 78.5564 58.7676 80.4734C58.7377 80.9358 58.8531 82.3633 58.4813 82.7045C58.1095 83.0592 57.0711 82.3499 56.601 82.1613C55.3147 81.6361 53.9643 81.3353 52.6695 80.8011C51.037 80.1367 49.2379 79.571 47.5286 79.1984C47.3619 79.1625 47.1867 79.1266 47.0115 79.1041C46.3833 79.0054 45.721 78.9874 45.1355 79.1356C44.362 79.3331 43.7125 79.8179 43.4219 80.8056C42.939 82.4217 44.315 84.9043 45.0116 86.278C45.0714 86.3902 45.1227 86.5025 45.1825 86.6192C46.0585 88.3655 46.9773 90.1882 47.1226 92.1679C47.1995 93.1421 46.9645 94.1073 46.4816 94.9243C46.2209 95.3822 45.8876 95.7863 45.4902 96.132C45.1056 96.4642 44.7253 96.7156 44.3449 96.8951C43.4817 97.3126 42.5971 97.389 41.657 97.2588C41.1655 97.1914 40.657 97.0702 40.1271 96.9131C39.875 96.8413 39.6271 96.756 39.3878 96.6572C38.375 96.2577 37.452 95.6606 36.593 94.9692C36.2896 94.7358 35.999 94.4844 35.7084 94.2285C35.0589 93.6584 34.4349 93.0478 33.8153 92.4552C33.3495 92.0108 32.888 91.5349 32.435 91.0411C31.7812 90.3408 31.153 89.6045 30.5376 88.8548C29.8453 88.0109 29.183 87.1489 28.559 86.3049C27.5292 84.8953 26.5676 83.3734 25.636 81.8516C25.3839 81.4475 25.1361 81.0345 24.8882 80.6305C26.3882 80.6709 27.8838 80.626 29.418 80.4509C31.1957 80.2534 33.3837 79.5575 31.7854 77.3758C30.8923 76.1457 29.153 75.6025 27.7642 75.1715C25.7386 74.561 23.6575 73.9639 21.5592 73.7574C21.3199 73.7394 21.0806 73.7125 20.8456 73.6676C20.6362 73.2546 20.4311 72.8371 20.2388 72.4151C19.4225 70.6418 18.7217 68.8461 18.085 67.0325C19.3926 66.9696 20.743 67.1806 21.508 67.4904C22.666 67.9528 24.5549 69.1379 25.7087 68.3523C27.3454 67.23 25.8625 65.8653 24.8198 65.0617C23.384 63.9708 21.6789 63.7688 20.0251 63.2525C19.4396 63.0684 18.867 62.9113 18.2944 62.7811C17.2218 62.5342 16.3372 61.7396 15.991 60.6487L15.9867 60.6263C15.2432 58.247 14.2304 55.1718 12.2005 53.6095C11.9826 53.4389 11.7475 53.2818 11.504 53.1516C10.5895 52.6623 9.66641 52.4109 8.68781 52.2358C9.1707 52.1146 9.65786 51.9979 10.1536 51.9036C14.3928 51.0731 18.9995 51.2796 23.2259 51.9485C23.2387 51.953 23.2558 51.953 23.2729 51.9575C24.3754 52.1371 25.2643 52.9945 25.5976 54.1123C25.6959 54.4356 25.7942 54.7678 25.9095 55.0955C26.3753 56.4782 26.9052 58.9697 28.2642 59.6611C29.8624 60.4602 30.2385 57.6185 30.2214 56.4602C30.2128 55.4681 29.7812 54.6106 29.4436 53.7173C31.3367 54.3143 33.2512 54.7229 35.1358 55.4142C37.0802 56.137 39.0502 56.8957 40.9604 57.7038C41.2168 59.4501 41.1655 61.2727 41.2595 63.0101C41.4048 65.8742 40.8322 69.2502 42.6868 71.6654C43.6655 72.9404 44.6612 73.4611 45.9389 72.3792C47.1354 71.3691 47.4175 69.9774 47.4175 68.4376C47.4218 66.193 46.738 64.2626 46.1355 62.1526C45.9261 61.4164 45.6611 60.7026 45.3834 60.0067C46.1697 60.2492 46.956 60.514 47.7423 60.7924C49.4858 61.4119 51.7251 61.5645 53.2122 62.7362C54.2805 63.5757 55.0968 65.2682 55.6865 66.5072C56.9685 69.1424 57.5369 71.818 58.1095 74.7002Z" fill="#D69C25"/>
</g>
<g id="Group_7">
<path id="Vector_3" d="M58.6051 97.6085L58.6094 97.6265C58.9128 98.5333 57.6009 98.9912 57.2462 98.1428C57.2334 98.1203 57.2291 98.1024 57.2206 98.0799C56.618 96.2932 55.789 94.5514 54.8317 92.8544C53.8318 91.0856 52.6865 89.3707 51.5028 87.7007C50.0669 85.6716 48.5627 83.7232 47.1909 81.8377C46.52 80.9219 45.8363 80.0196 45.1354 79.1352C42.2338 75.4495 39.0715 72.0107 35.6571 68.8233C31.435 64.8727 27.0248 60.9581 22.0805 58.0401C20.1917 56.9222 18.1704 56.1456 16.1961 55.2163C14.8927 54.6013 13.5979 53.9638 12.209 53.6136C11.9911 53.443 11.756 53.2859 11.5124 53.1557C10.5979 52.6664 9.67489 52.415 8.69629 52.2399C9.17918 52.1187 9.66635 52.002 10.1621 51.9077C11.6706 51.9885 13.0851 52.2758 13.7902 52.5272C19.5806 54.5609 24.9394 57.7617 29.7641 61.6584C35.6528 66.4171 41.1783 71.7593 45.9388 77.7615C46.2892 78.2059 46.6482 78.6548 47.0072 79.1082C48.9131 81.5055 50.9259 84.0599 52.7805 86.731C53.3916 87.6019 53.9813 88.4863 54.5412 89.3797C56.2206 92.0329 57.6564 94.7848 58.6051 97.6085Z" fill="#D69C25"/>
</g>
</g>
<path id="Vector_4" d="M53.8703 87.1219C51.9003 85.5283 50.6439 89.0703 50.5883 90.6595C50.4858 93.7481 52.3789 99.9523 53.2464 101.524C52.7207 101.214 52.1823 100.917 51.6353 100.639C50.6182 100.123 49.6055 99.5976 48.5927 99.0769C49.0371 97.2991 50.161 93.5596 47.9431 88.4732C47.5713 87.6203 47.003 86.5204 46.0158 86.3947C44.6441 86.2241 44.8834 87.7325 45.0586 88.6797C45.3577 90.3048 46.7466 95.7997 47.2594 98.39C45.2252 97.3485 43.1954 96.3025 41.157 95.27C41.3835 91.7235 41.6399 87.4138 39.4818 84.3925C38.0673 82.4127 36.8238 84.6573 36.781 86.2016C36.7041 88.9715 37.8622 91.9075 39.3365 94.3542C38.375 93.8738 37.4135 93.3935 36.452 92.9221C36.2768 92.8368 36.1058 92.7515 35.9306 92.6662C36.187 90.9333 36.6058 89.2948 36.2725 87.5125C35.9434 85.7572 34.8666 84.3476 33.5162 83.315C32.9179 82.8616 32.2555 82.2197 31.4478 82.3184C30.3154 82.4531 31.0547 83.5799 31.4308 84.2847C32.2299 85.7841 32.9606 87.3644 33.5974 88.9356C33.9435 89.8065 34.2982 90.6101 34.7127 91.4182C34.8195 91.6247 34.9221 91.93 35.0247 92.2352C33.6486 91.5798 32.2512 90.9513 30.8453 90.3497C30.2727 87.4048 29.5547 83.8493 27.1574 81.8964C25.5805 80.6215 25.0463 82.7404 25.3412 84.0109C25.7984 85.9817 27.042 87.8357 28.4864 89.3711C27.871 89.1242 27.2514 88.8817 26.6317 88.6438C24.9822 85.5776 22.9908 81.7483 19.6362 80.5003C17.5038 79.7057 17.6448 82.2466 18.3927 83.535C19.132 84.7965 20.1918 85.8829 21.4011 86.7987C21.1191 86.7044 20.8328 86.6147 20.5464 86.5249C19.8627 86.3094 19.179 86.1253 18.4909 85.9592C17.4311 83.1579 16.1363 79.7595 13.4355 78.2736C11.6706 77.3039 11.4954 79.4902 11.9997 80.6888C12.7945 82.5878 14.3885 84.2219 16.1107 85.4744C15.0509 85.2903 13.9911 85.1467 12.927 85.021C11.739 82.902 10.286 80.3476 7.93996 79.5081C6.39727 78.9604 6.51692 80.7472 7.06819 81.654C7.86731 82.9649 9.17069 84.0064 10.5724 84.7741C9.40146 84.6573 8.23482 84.5451 7.06392 84.4104C6.2477 83.7056 5.3332 83.0322 4.5298 82.4621C3.57684 81.7932 2.41875 81.1961 1.24357 81.6001C-0.303397 82.1254 -0.350405 83.3734 0.820503 84.4508C1.35468 84.9402 1.97859 85.205 2.64951 85.3352C2.06406 85.6046 1.54698 85.9906 1.25211 86.453C0.952977 86.9244 0.923064 87.324 1.06836 87.6382C1.30767 88.1724 2.04696 88.4598 2.78626 88.4283C4.09391 88.3745 5.27764 87.5619 6.44 87.0142C6.80324 86.8436 7.18357 86.7224 7.57245 86.6147C8.10235 86.4665 8.64934 86.3408 9.15788 86.1612C9.93136 86.2376 10.7006 86.3184 11.4698 86.3992C11.4698 86.3992 11.4698 86.3992 11.474 86.3992C9.58094 86.7314 7.58527 87.4676 6.25625 88.8054C5.51695 89.5462 4.99987 91.2566 6.62376 91.1039C9.23052 90.857 11.2903 88.5181 12.9697 86.7044L12.9655 86.5698C13.3159 86.6102 13.6706 86.6596 14.0253 86.7044C14.0466 86.7089 14.0637 86.7089 14.0808 86.7089C15.8842 86.9558 17.679 87.2836 19.4695 87.7774H19.4738C18.8285 87.9345 18.2089 88.159 17.6405 88.4642C16.6107 89.0209 15.5167 90.7134 17.3329 91.095C19.6704 91.5888 22.0379 90.4934 24.119 89.3127C26.4053 90.1387 28.6787 91.0411 30.9179 92.0108C28.6531 91.7504 26.1702 91.912 24.2386 92.958C23.1318 93.5551 21.9609 95.3687 23.9096 95.7818C27.0377 96.4417 30.2214 94.4485 32.7811 92.9401L32.8025 92.8548C33.8452 93.3261 34.8836 93.8155 35.9093 94.3183C36.4135 94.5652 36.9178 94.8166 37.4178 95.068H37.422C34.2982 94.6325 30.8966 94.7358 28.2813 96.0197C26.7899 96.7514 25.2472 99.0589 27.9351 99.6695C32.2256 100.644 36.499 98.2149 39.9433 96.3564C39.9433 96.3564 39.9433 96.3564 39.9476 96.3564C41.3664 97.0836 42.7766 97.8289 44.1911 98.5606C41.3279 99.1532 35.3238 100.006 33.4093 100.446C32.5119 100.653 30.465 101.389 31.3026 102.781C31.7684 103.548 33.5418 103.862 34.3623 103.867C36.1913 103.876 42.4262 101.694 46.379 99.6874C46.379 99.6874 46.3791 99.6874 46.3833 99.6874C47.3918 100.204 48.4046 100.711 49.4217 101.205C49.7978 101.389 50.1695 101.577 50.5371 101.77C46.2252 102.255 37.8707 103.791 36.0375 104.962C35.1059 105.559 33.7256 106.785 34.2768 108.073C34.8452 109.411 36.8708 108.828 37.9648 108.801C40.4903 108.729 47.8277 105.497 49.1012 104.697C50.0883 104.078 50.9858 103.207 51.9216 102.538C51.9344 102.547 51.9515 102.556 51.9644 102.565C52.772 103.036 53.5583 103.53 54.3275 104.042C54.2677 104.073 54.2036 104.105 54.1395 104.136C50.9046 105.681 43.8407 108.513 41.6527 109.618C40.6356 110.134 38.3835 111.615 39.7596 113.034C40.5202 113.815 42.7296 113.667 43.7167 113.429C45.7637 112.94 51.8874 109.025 56.1053 105.609C56.1822 105.546 56.2591 105.483 56.3318 105.42C58.7847 107.176 61.1521 109.057 63.6948 110.852C64.464 111.395 65.3358 110.188 64.5666 109.645C60.8915 107.05 57.5967 104.132 53.7976 101.829C55.5839 96.7425 54.7634 87.8402 53.8703 87.1219Z" fill="#03EADA"/>
<g id="Group_8">
<g id="Group_9">
<path id="Vector_5" d="M78.9337 111.75C78.797 112.316 77.4209 112.338 76.8782 112.469C75.3825 112.823 73.9595 113.425 72.451 113.775C70.5536 114.224 68.5665 114.875 66.7674 115.647C66.5879 115.723 66.4084 115.804 66.2289 115.898C65.5922 116.217 64.9726 116.626 64.5196 117.146C63.9256 117.833 63.6136 118.7 63.9256 119.8C64.4341 121.6 67.1691 122.991 68.6178 123.809C70.5622 124.913 72.6518 126.022 74.0407 127.862C75.0407 129.173 75.3398 130.946 74.8783 132.581C74.1817 135.036 72.5877 136.033 70.3955 136.792C67.652 137.752 64.7333 137.222 61.947 136.787C59.1522 136.347 56.1651 135.472 53.4814 134.538C51.2251 133.743 48.9645 132.706 46.7509 131.692C48.1568 130.758 49.5072 129.739 50.8234 128.581C52.3447 127.238 53.9472 125.178 51.1909 124.199C49.6439 123.642 47.7209 124.28 46.1825 124.787C43.9518 125.541 41.6869 126.349 39.6314 127.521C39.4006 127.66 39.1613 127.791 38.922 127.903C38.4861 127.66 38.0545 127.409 37.6229 127.149C35.8238 126.044 34.123 124.846 32.4692 123.589C33.6358 122.677 35.0033 121.995 35.8922 121.784C37.2298 121.461 39.6741 121.317 40.2681 119.844C41.1143 117.744 38.9391 117.452 37.5033 117.389C35.5375 117.317 33.8495 118.242 32.0162 118.843C31.371 119.054 30.747 119.283 30.1402 119.535C29.0078 120.006 27.7258 119.853 26.76 119.068L26.7429 119.054C24.6532 117.348 21.9054 115.167 19.1106 115.045C18.8072 115.032 18.5038 115.041 18.2047 115.081C17.0722 115.221 16.0722 115.593 15.068 116.069C15.4441 115.638 15.8329 115.216 16.2346 114.803C16.2389 114.803 16.2389 114.803 16.2389 114.803C19.6576 111.283 24.0165 108.473 28.2984 106.345C28.3155 106.336 28.3283 106.327 28.3497 106.323C29.4693 105.766 30.7983 105.977 31.7641 106.794C32.0419 107.032 32.3325 107.266 32.6316 107.499C33.8794 108.473 35.8324 110.422 37.4947 110.17C38.3067 110.044 38.546 109.47 38.499 108.765C38.4349 107.786 37.8195 106.561 37.4135 105.941C37.1144 105.483 36.7341 105.129 36.3238 104.805C35.9221 104.496 35.4905 104.217 35.076 103.917C35.3367 103.831 35.5931 103.746 35.8537 103.652H35.858C37.6742 103.023 39.4476 102.291 41.3237 101.775C41.6399 101.685 41.9604 101.605 42.2852 101.519C43.9903 101.066 45.7124 100.626 47.4261 100.235C47.6312 100.186 47.8363 100.141 48.0372 100.096C48.2508 100.339 48.4559 100.59 48.6525 100.846C48.926 101.192 49.191 101.546 49.4474 101.91C49.8405 102.462 50.2166 103.019 50.5969 103.575C50.879 103.988 51.161 104.397 51.443 104.796C51.5413 104.936 51.6439 105.084 51.7422 105.227C52.2806 106.022 52.7934 106.884 53.3447 107.723C54.5199 109.51 55.8446 111.189 57.8659 111.845C59.5155 112.379 60.7376 112.213 61.2804 110.381C61.3915 110 61.4556 109.627 61.4684 109.268C61.4983 108.473 61.3103 107.728 60.9898 107.01C60.806 106.597 60.5795 106.193 60.3231 105.789C59.0027 103.724 57.2335 102.381 55.4301 100.832C55.0626 100.514 54.6823 100.217 54.2977 99.9346C54.0242 99.7325 53.7464 99.535 53.4686 99.342C53.7977 99.2342 54.131 99.1265 54.4686 99.0232C55.007 98.8526 55.554 98.691 56.1053 98.5339C56.4771 98.4262 56.8574 98.2915 57.242 98.1478C57.6865 97.9772 58.1394 97.7932 58.601 97.6091C59.8274 97.1288 61.0795 96.6933 62.2974 96.7651C63.7803 96.8459 65.5281 97.874 66.8016 98.6282C69.5323 100.24 71.6348 102.332 73.8569 104.617C75.3056 106.107 76.8141 107.692 77.8696 109.506C78.126 109.95 79.0705 111.194 78.9337 111.75Z" fill="#95455C"/>
</g>
<g id="Group_10">
<path id="Vector_6" d="M86.8395 126.74C81.5063 122.578 74.233 120.495 68.0152 118.3C66.8571 117.892 65.6905 117.506 64.5239 117.142C59.6736 115.633 54.7335 114.52 49.708 113.802C48.0115 113.559 46.3022 113.33 44.5885 113.133C42.8877 112.935 41.1784 112.774 39.469 112.666C36.5845 112.487 33.6999 112.46 30.8368 112.697C28.4394 112.9 26.1147 113.501 23.7472 113.928C22.1874 114.21 20.6148 114.466 19.1234 115.045C18.82 115.032 18.5166 115.041 18.2175 115.081C17.085 115.22 16.0851 115.593 15.0808 116.069C15.4569 115.638 15.8457 115.216 16.2474 114.803C16.2517 114.803 16.2517 114.803 16.2517 114.803C17.6876 113.896 19.1533 113.245 19.9439 113.016C26.3967 111.149 33.1316 110.601 39.7895 111.023C39.8793 111.027 39.969 111.032 40.0587 111.041C42.4732 111.203 44.8877 111.432 47.2936 111.737C53.0968 112.469 58.8574 113.636 64.4598 115.355C65.0452 115.535 65.6349 115.719 66.2375 115.903C73.5322 118.134 81.8482 120.733 87.8608 125.429C88.6898 126.071 87.6728 127.395 86.8395 126.74Z" fill="#95455C"/>
</g>
</g>
</g>
</g>
<g id="Group_11">
<g id="Group_12">
<path id="Vector_7" d="M128.013 123.396L83.3438 136.877C79.6944 137.977 75.703 135.817 74.421 132.055L37.9306 24.5732C36.6528 20.8112 38.5759 16.8651 42.2253 15.7653L86.895 2.28397C90.5445 1.18409 94.5358 3.34343 95.8178 7.10545L132.308 114.588C133.586 118.35 131.663 122.296 128.013 123.396Z" fill="#60AECF"/>
<path id="Vector_8" d="M131.496 122.345L86.8266 135.826C83.1771 136.926 79.1858 134.767 77.9038 131.005L41.4176 23.5225C40.1399 19.7605 42.0629 15.8144 45.7124 14.7146L90.3821 1.22879C94.0315 0.128918 98.0229 2.28826 99.3049 6.05027L135.795 113.533C137.069 117.299 135.146 121.241 131.496 122.345Z" fill="url(#paint0_linear_46_1106)"/>
<path id="Vector_9" d="M130.612 107.521L110.929 113.46L78.4209 123.27C78.032 123.391 77.6089 123.162 77.4722 122.758L73.3057 110.489L65.9212 88.738V88.7335L54.0712 53.8339V53.8294L43.9902 24.1463C43.8535 23.7468 44.0586 23.3293 44.4432 23.208L95.6298 7.76493H95.6341L96.6341 7.45966C97.0187 7.34294 97.4417 7.57189 97.5785 7.97144L107.232 36.402L116.236 62.9112L126.646 93.555L131.069 106.587C131.201 106.991 131.001 107.409 130.612 107.521Z" fill="#23212B"/>
<g id="Group_13">
<path id="Vector_10" d="M107.241 36.4069L65.9212 88.7384L54.0711 53.8388V53.8343L95.634 7.76981H95.6383L96.6383 7.46454C97.0229 7.34782 97.446 7.57677 97.5827 7.97632L107.241 36.4069Z" fill="#23212B"/>
<path id="Vector_11" d="M126.642 93.5554L110.928 113.461L78.4208 123.27C78.032 123.391 77.6089 123.162 77.4722 122.758L73.3056 110.489L116.236 62.9116L126.642 93.5554Z" fill="#23212B"/>
</g>
<path id="Vector_12" d="M80.455 8.05227L57.9941 14.8311C57.7035 14.9209 57.3873 14.7458 57.2847 14.4495C57.1822 14.1487 57.336 13.8345 57.6266 13.7492L80.0875 6.97036C80.3781 6.88057 80.6943 7.05565 80.7969 7.35194C80.8995 7.65273 80.7456 7.96697 80.455 8.05227Z" fill="#F9FAFF"/>
<path id="Vector_13" d="M110.957 123.503C112.022 121.094 110.907 118.177 108.467 116.986C106.027 115.795 103.186 116.781 102.12 119.189C101.055 121.598 102.17 124.515 104.61 125.706C107.05 126.898 109.892 125.911 110.957 123.503Z" fill="#99ACE3"/>
</g>
<path id="Vector_14" d="M88.3693 93.1648L107.39 92.249C107.39 92.249 114.048 102.758 114.945 112.132L85.7326 121.012C85.7326 121.007 83.1045 104.572 88.3693 93.1648Z" fill="#382A4B"/>
<path id="Vector_15" d="M101.702 98.498C101.677 98.3588 101.471 98.4262 101.497 98.5653C101.839 100.437 102.031 102.318 102.001 104.222C101.989 105.012 102.036 106.354 101.818 107.046C101.903 107.822 101.518 108.253 100.664 108.343C100.301 108.365 99.9373 108.383 99.5698 108.388C99.4331 108.392 99.4416 108.617 99.5784 108.612C100.113 108.594 100.523 108.59 100.843 108.554C100.843 108.558 100.839 108.563 100.839 108.567C100.895 111.153 100.745 113.712 100.382 116.267C100.36 116.41 100.57 116.46 100.591 116.316C100.959 113.739 101.113 111.162 101.053 108.554C101.053 108.54 101.044 108.532 101.04 108.523C101.818 108.379 101.954 107.943 102.1 106.381C102.343 103.741 102.177 101.106 101.702 98.498Z" fill="#341D3F"/>
<path id="Vector_16" d="M106.365 95.3958C106.275 94.9513 106.185 94.5069 106.091 94.0624C106.061 93.9233 105.86 93.9906 105.886 94.1298C105.976 94.5742 106.065 95.0187 106.159 95.4631C106.168 95.499 106.185 95.517 106.206 95.5304C106.185 95.5259 106.159 95.5259 106.134 95.5439C106.031 95.6112 105.929 95.6651 105.822 95.728C105.689 95.297 105.561 94.866 105.429 94.435C105.386 94.2959 105.185 94.3677 105.224 94.5024C105.36 94.9468 105.493 95.3957 105.63 95.8402C102.1 97.8334 97.5614 97.371 93.5145 96.7021C93.4803 96.2038 93.4931 95.7055 93.5701 95.2072C93.5914 95.0635 93.382 95.0142 93.3607 95.1578C93.2837 95.6606 93.2666 96.1634 93.3008 96.6662C93.1513 96.6393 93.006 96.6168 92.8564 96.5899C92.8607 96.5764 92.8692 96.5674 92.8692 96.554C92.8735 96.1006 92.9248 95.6606 93.0273 95.2207C93.0615 95.0815 92.8521 95.0276 92.8179 95.1713C92.7111 95.6292 92.6598 96.0871 92.6556 96.5585C92.0402 96.4507 91.4376 96.343 90.8607 96.2442C90.724 96.2218 90.677 96.4417 90.8137 96.4642C91.6171 96.6034 92.459 96.7515 93.3179 96.8996C93.3179 96.9176 93.3179 96.9356 93.3222 96.9535C93.3393 97.0972 93.553 97.0882 93.5359 96.9445C93.5359 96.9401 93.5359 96.9401 93.5359 96.9356C97.6127 97.609 102.142 98.0534 105.711 96.0557C105.775 96.1455 105.933 96.0871 105.894 95.9614L105.89 95.9479C106.01 95.8761 106.134 95.8132 106.249 95.7369C106.335 95.6831 106.296 95.5708 106.224 95.5394C106.296 95.5529 106.386 95.4945 106.365 95.3958Z" fill="#341D3F"/>
<path id="Vector_17" d="M100.779 95.2342C100.531 95.1668 100.271 95.1713 100.104 95.4227C99.869 95.7819 100.237 96.1455 100.561 96.2173C100.907 96.2936 101.318 96.0916 101.331 95.6831C101.339 95.3599 101.053 95.1579 100.779 95.2342ZM101.044 95.8627C100.903 96.0512 100.625 96.0422 100.442 95.9345C100.215 95.8043 100.172 95.508 100.459 95.4272C100.536 95.4048 100.617 95.4138 100.694 95.4362C100.715 95.4542 100.741 95.4586 100.771 95.4586C100.856 95.4901 100.937 95.5305 101.01 95.5709C101.036 95.5843 101.057 95.5799 101.078 95.5754C101.113 95.6652 101.104 95.7819 101.044 95.8627Z" fill="#341D3F"/>
<g id="Group_14">
<g id="Group_15">
<path id="Vector_18" d="M107.193 58.7896C106.283 60.2621 106.42 62.1924 107.527 63.5033L119.18 77.2944C120.437 78.7803 122.689 78.6367 123.761 76.9981L132.197 64.1363L128.535 62.7042L122.099 70.0621L113.189 58.4619C111.608 56.4058 108.57 56.5674 107.193 58.7896Z" fill="#341D3F"/>
<g id="Group_16">
<path id="Vector_19" d="M130.868 64.8817C130.868 64.8279 130.859 64.7785 130.859 64.7246C130.859 64.6348 130.855 64.5451 130.855 64.4508C130.881 64.4059 130.898 64.352 130.902 64.2892C131.082 62.0266 130.996 59.7909 130.659 57.5552C130.633 56.8908 130.56 56.2354 130.351 55.7416C130.304 55.6249 130.176 55.544 130.056 55.5396C129.787 55.5306 129.624 55.5845 129.321 55.6383C129.231 55.6563 129.15 55.7236 129.099 55.8044C129.022 55.8403 128.962 55.9122 128.941 56.0199C128.522 58.1927 126.308 64.4957 128.488 66.4754C128.723 66.7942 129.069 67.0007 129.565 66.9872C130.629 66.9648 130.894 65.8335 130.868 64.8817Z" fill="#D69C25"/>
<path id="Vector_20" d="M130.052 58.1613C130.073 58.0176 129.86 58.0087 129.838 58.1478C129.492 60.4643 129.36 62.7897 129.441 65.1332C129.445 65.2768 129.659 65.2903 129.654 65.1466C129.573 62.8032 129.706 60.4823 130.052 58.1613Z" fill="#341D3F"/>
<path id="Vector_21" d="M130.8 64.1678L131.975 64.4237L133.641 61.8918C133.641 61.8918 134.748 60.2173 132.791 58.6999C131.633 57.802 130.129 57.5506 128.731 57.9008L127.62 58.1791C127.62 58.1791 126.761 59.297 130.142 59.1668C130.142 59.1668 127.548 58.9064 127.419 59.9928C127.419 59.9928 126.941 61.169 130.877 60.3071C130.877 60.3071 127.676 60.3744 127.364 61.6718C127.364 61.6718 127.266 62.8345 131.082 61.6718C130.975 61.6628 130.958 62.1342 130.8 64.1678Z" fill="#EBADAB"/>
<g id="Group_17">
<path id="Vector_22" d="M130.334 51.4184C130.573 51.4139 145.509 44.6665 145.509 44.6665L144.513 63.3284L130.159 57.0838C127.885 57.1287 127.898 51.4857 130.334 51.4184Z" fill="#F4E3B8"/>
<path id="Vector_23" d="M147.504 54.0579C147.227 59.261 145.983 63.4181 144.731 63.3418C143.739 63.2834 143.03 60.5809 142.923 56.8637C142.893 55.8985 142.906 54.866 142.962 53.7886C143.034 52.4014 143.175 51.0905 143.372 49.9099C143.902 46.6776 144.816 44.4554 145.735 44.5093C146.987 44.5856 147.778 48.8594 147.504 54.0579Z" fill="#D69C25"/>
<path id="Vector_24" d="M145.624 53.528C145.53 55.2968 144.363 56.693 142.923 56.8636C142.893 55.8984 142.906 54.8658 142.962 53.7884C143.034 52.4012 143.175 51.0903 143.372 49.9097C144.739 50.2868 145.714 51.7907 145.624 53.528Z" fill="#F4E3B8"/>
<path id="Vector_25" d="M130.359 57.263L128.881 57.1778C127.313 57.0835 126.112 55.6738 126.201 54.0263C126.291 52.3787 127.633 51.1172 129.201 51.2115L130.68 51.2968C128.817 53.2945 128.86 55.2833 130.359 57.263Z" fill="#D69C25"/>
<g id="Group_18">
<path id="Vector_26" d="M142.291 46.7001C138.62 48.2893 134.958 49.9055 131.304 51.5441C131.176 51.6024 131.274 51.7999 131.402 51.7461C135.052 50.103 138.714 48.4914 142.389 46.9022C142.517 46.8438 142.419 46.6463 142.291 46.7001Z" fill="#341D3F"/>
<path id="Vector_27" d="M143.91 61.9589C142.205 56.8456 142.962 51.1308 144.427 46.0669C144.466 45.9277 144.265 45.8559 144.222 45.9951C142.744 51.1038 141.979 56.8367 143.701 62.0038C143.748 62.143 143.957 62.0981 143.91 61.9589Z" fill="#341D3F"/>
<path id="Vector_28" d="M145.829 45.9278C145.774 45.7931 145.586 45.8963 145.637 46.031C146.064 47.0905 146.252 48.1904 146.214 49.3396C146.209 49.4833 146.423 49.4967 146.427 49.3531C146.47 48.1679 146.269 47.0231 145.829 45.9278Z" fill="#341D3F"/>
<path id="Vector_29" d="M146.68 47.4543C146.654 47.3107 146.444 47.3601 146.47 47.5037C146.735 48.9044 146.821 50.3095 146.718 51.7281C146.709 51.8718 146.923 51.8853 146.932 51.7416C147.034 50.2961 146.949 48.8729 146.68 47.4543Z" fill="#341D3F"/>
<path id="Vector_30" d="M144.278 51.4808C144.184 51.3775 144.021 51.5257 144.12 51.6289C144.829 52.3921 144.727 54.2193 144.192 55.0363C144.115 55.1575 144.295 55.2787 144.372 55.162C144.97 54.2462 145.06 52.3248 144.278 51.4808Z" fill="#341D3F"/>
<path id="Vector_31" d="M130.488 57.2764C128.949 55.9162 128.795 53.6895 130.073 52.0734C130.163 51.9611 129.983 51.8399 129.894 51.9477C128.535 53.6715 128.748 56.0284 130.368 57.465C130.475 57.5548 130.595 57.3662 130.488 57.2764Z" fill="#341D3F"/>
</g>
</g>
<path id="Vector_32" d="M131.535 58.6235C130.612 58.6235 129.718 58.8166 128.821 59.0276C128.689 59.059 128.731 59.279 128.868 59.2475C129.748 59.041 130.62 58.848 131.526 58.848C131.659 58.848 131.671 58.6235 131.535 58.6235Z" fill="#341D3F"/>
<path id="Vector_33" d="M131.3 59.8804C130.419 60.0196 129.548 60.2171 128.693 60.4775C128.56 60.5179 128.603 60.7379 128.74 60.6975C129.599 60.4371 130.466 60.2396 131.347 60.1004C131.479 60.0825 131.432 59.8625 131.3 59.8804Z" fill="#341D3F"/>
<path id="Vector_34" d="M132.842 60.6929C132.253 61.0251 131.65 61.308 131.022 61.5549C131.013 61.5594 131.013 61.5683 131.005 61.5728C130.941 61.5459 130.864 61.5683 130.868 61.6581C130.881 61.923 130.894 62.1923 130.902 62.4572C130.894 62.6772 130.881 62.8972 130.872 63.1216C130.868 63.2428 131.048 63.2922 131.082 63.162C131.099 63.0992 131.112 63.0408 131.129 62.978C131.129 62.978 131.133 62.978 131.133 62.9735C131.312 62.5605 131.462 62.1385 131.59 61.703C131.607 61.6491 131.582 61.5998 131.543 61.5773C132.018 61.3753 132.488 61.1553 132.941 60.8994C133.06 60.8231 132.962 60.6211 132.842 60.6929Z" fill="#341D3F"/>
</g>
</g>
<path id="Vector_35" d="M113.856 59.127L112.826 65.0528C112.121 69.1156 110.976 73.0752 109.411 76.8641L106.865 83.0324L106.92 96.1411C99.3904 100.55 88.3608 93.1647 88.3608 93.1647L90.2453 66.7677C90.9419 57.3582 94.5444 54.3818 97.1383 53.6366C98.5656 53.2281 100.027 53.0889 101.484 53.2146C101.613 53.2281 101.736 53.2415 101.865 53.2505C102.407 53.3134 102.937 53.4166 103.471 53.5558L106.843 54.4267C107.946 54.7095 109.014 55.1629 110.018 55.7645C110.031 55.769 110.048 55.7825 110.061 55.787C110.249 55.8992 110.433 56.0114 110.617 56.1371C111.805 56.9272 112.899 57.9328 113.856 59.127Z" fill="#95455C"/>
<path id="Vector_36" d="M110.031 55.7645C110.206 60.2942 109.185 63.9978 107.429 64.6084C105.309 65.3401 102.924 61.2638 102.1 55.5131C101.993 54.7454 101.912 53.9867 101.873 53.2505C102.416 53.3133 102.946 53.4166 103.48 53.5558L106.852 54.4267C107.959 54.7095 109.027 55.1629 110.031 55.7645Z" fill="#341D3F"/>
<g id="Group_19">
<path id="Vector_37" d="M101.681 89.1376L107.181 88.7964L109.014 92.7739C109.403 93.5326 109.775 94.3182 110.121 95.1308L110.745 95.2744C111.702 95.4854 112.599 95.9209 113.381 96.5359L115.232 97.968C115.535 98.2598 115.381 98.7671 114.898 98.6144L113.339 97.6851L114.228 98.8389C114.719 99.4898 115.168 100.172 115.578 100.895L116.206 102.026C116.33 102.403 115.907 102.749 115.595 102.439L113.616 99.7098L114.715 101.483L115.792 103.44C115.984 103.916 115.42 104.177 115.223 103.867L114.219 102.246L112.847 100.361L113.522 102.017C113.668 102.376 113.779 102.763 113.83 103.153L114.005 104.486C113.86 105.11 113.574 104.985 113.262 104.675L113.057 103.512C112.98 103.068 112.834 102.646 112.621 102.273L111.783 100.747L112.206 104.064C112.181 104.554 111.475 104.54 111.475 104.06C111.386 102.736 110.775 100.823 110.775 100.823C109.617 100.118 108.664 99.0544 108.044 97.766L107.202 96.0151L101.681 89.1376Z" fill="#EBADAB"/>
<path id="Vector_38" d="M100.937 60.9629L101.189 73.8606L109.484 94.1207L107.36 97.362L98.9587 85.3756C95.8776 80.9806 93.8478 75.7955 93.0529 70.2961L91.9547 62.7048C91.5743 60.0651 92.2709 57.3176 93.9717 55.3783C96.1169 52.9316 98.1553 53.2054 100.048 57.1515C100.608 58.3187 100.912 59.6296 100.937 60.9629Z" fill="#341D3F"/>
</g>
<path id="Vector_39" d="M109.758 51.6613L107.826 54.7993L107.424 55.4547C107.369 55.5535 105.138 58.6421 103.758 56.0877C103.044 54.7634 102.604 53.6456 102.711 53.4615L105.253 48.9587L106.907 46.0317L109.758 51.6613Z" fill="#EBADAB"/>
<path id="Vector_40" d="M109.758 51.6613L107.826 54.7993C106.343 53.4794 105.352 51.4099 105.258 49.0485L105.253 48.9587L106.907 46.0317L109.758 51.6613Z" fill="#E79092"/>
<path id="Vector_41" d="M112.792 51.1765C112.394 51.5266 111.958 51.8095 111.493 52.0339C111.253 52.1462 111.01 52.236 110.758 52.3078C108.407 52.9946 105.488 50.4717 104.027 47.6524C102.963 47.4279 101.801 47.0239 101.373 45.4123C101.04 44.1463 101.271 42.4134 102.249 42.2249C102.54 42.171 102.882 42.2563 103.219 42.4359C103.766 38.6873 106.044 34.3462 108.493 33.8793C111.702 33.2598 114.578 34.7233 115.544 43.7916C115.834 46.5256 114.723 49.502 112.792 51.1765Z" fill="#EBADAB"/>
<g id="Group_20">
<path id="Vector_42" d="M111.159 48.2315C111.493 48.4335 111.817 48.4964 112.091 48.438C112.249 48.4021 112.386 48.3213 112.501 48.2001C112.629 48.0654 112.711 47.8948 112.736 47.6928C112.8 47.3291 112.702 46.8667 112.45 46.3729L111.403 43.7871C111.364 43.6883 111.262 43.6434 111.159 43.6883C111.065 43.7332 111.023 43.85 111.065 43.9487L112.116 46.557C112.39 47.0867 112.424 47.4773 112.347 47.7197C112.326 47.805 112.287 47.8723 112.24 47.9217C112.061 48.1103 111.745 48.1058 111.416 47.9262C111.403 47.9217 111.386 47.9127 111.373 47.9038C111.283 47.8499 111.164 47.8813 111.108 47.9711C111.104 47.9801 111.099 47.9891 111.099 47.998C111.061 48.0833 111.082 48.1821 111.159 48.2315Z" fill="#341D3F"/>
</g>
<g id="Group_21">
<g id="Group_22">
<path id="Vector_43" d="M113.916 43.6654C113.984 44.0515 113.77 44.4196 113.437 44.4869C113.104 44.5543 112.775 44.2939 112.702 43.9078C112.634 43.5217 112.847 43.1536 113.181 43.0863C113.518 43.019 113.847 43.2793 113.916 43.6654Z" fill="#341D3F"/>
<path id="Vector_44" d="M109.693 43.9887C109.762 44.3747 109.548 44.7429 109.215 44.8102C108.881 44.8775 108.552 44.6171 108.48 44.2311C108.411 43.845 108.625 43.4769 108.958 43.4095C109.296 43.3422 109.625 43.6026 109.693 43.9887Z" fill="#341D3F"/>
<g id="Group_23">
<path id="Vector_45" d="M110.971 48.7472C110.92 48.6575 108.681 46.9695 108.54 46.9874C108.399 47.0099 108.305 47.1491 108.326 47.2972C108.433 48.02 109.087 49.3353 110.775 49.1513C110.916 49.1378 111.018 49.0031 111.005 48.855C111.005 48.8191 110.993 48.7832 110.971 48.7472Z" fill="white"/>
</g>
</g>
<g id="Group_24">
<path id="Vector_46" d="M112.198 41.6049C112.245 41.6543 112.322 41.6678 112.386 41.6408C113.433 41.165 113.877 42.1302 113.894 42.1706C113.937 42.2648 114.044 42.3052 114.129 42.2559C114.219 42.211 114.257 42.0942 114.215 42C114.01 41.5376 113.334 40.7923 112.249 41.2862C112.159 41.3266 112.112 41.4388 112.151 41.5376C112.163 41.5645 112.181 41.587 112.198 41.6049Z" fill="#341D3F"/>
</g>
<g id="Group_25">
<path id="Vector_47" d="M109.685 41.9596C109.638 42.0134 109.57 42.0359 109.497 42.0089C108.416 41.6274 108.052 42.6285 108.035 42.6689C108.001 42.7676 107.899 42.8125 107.805 42.7766C107.711 42.7362 107.664 42.6285 107.698 42.5297C107.864 42.0493 108.48 41.2503 109.599 41.6453C109.693 41.6767 109.745 41.7845 109.715 41.8877C109.715 41.9147 109.702 41.9371 109.685 41.9596Z" fill="#341D3F"/>
</g>
</g>
<path id="Vector_48" d="M100.42 95.1352C96.7708 95.436 93.3307 94.3766 90.4248 92.0331C90.2795 91.9164 90.0829 92.1364 90.2325 92.2531C93.194 94.6414 96.711 95.7413 100.433 95.436C100.617 95.4181 100.604 95.1173 100.42 95.1352Z" fill="#341D3F"/>
<path id="Vector_49" d="M101.232 93.802C98.9203 93.9052 95.4973 94.2958 93.5657 92.7246C93.4204 92.6078 93.2239 92.8278 93.3734 92.9445C95.3819 94.5786 98.869 94.2105 101.245 94.1028C101.429 94.0983 101.416 93.7975 101.232 93.802Z" fill="#341D3F"/>
<path id="Vector_50" d="M106.912 69.5197C105.518 72.5679 104.762 75.7867 104.634 79.1626C104.625 79.3557 104.912 79.3422 104.92 79.1492C105.048 75.8181 105.792 72.6666 107.168 69.6588C107.245 69.4882 106.993 69.3446 106.912 69.5197Z" fill="#341D3F"/>
<path id="Vector_51" d="M110.676 57.0257C110.595 58.6822 110.497 60.3387 109.98 61.9145C109.715 62.7225 109.352 63.7012 108.736 64.2983C106.548 66.4217 104.946 64.9582 103.749 63.3106C101.937 60.8236 100.878 57.0167 100.933 53.9146C100.937 53.7215 100.651 53.735 100.647 53.9281C100.587 57.3893 102.168 64.5407 105.997 65.6406C110.117 66.8257 110.835 59.6474 110.963 57.0122C110.971 56.8191 110.685 56.8326 110.676 57.0257Z" fill="#341D3F"/>
<g id="Group_26">
<path id="Vector_52" d="M114.296 104.437L142.009 101.784C142.62 101.725 143.107 101.227 143.175 100.585L145.137 82.9647C145.231 82.1072 144.551 81.3755 143.735 81.4518L116.022 84.1004C115.411 84.1588 114.924 84.6571 114.856 85.2991L112.894 102.919C112.796 103.781 113.475 104.518 114.296 104.437Z" fill="#D2E0E6"/>
<path id="Vector_53" d="M132.082 93.1058C132.197 94.4256 131.18 95.6018 129.808 95.732C128.441 95.8622 127.236 94.9015 127.12 93.5816C127.005 92.2618 128.022 91.0856 129.394 90.9554C130.761 90.8207 131.966 91.7859 132.082 93.1058Z" fill="#B2DEE8"/>
<path id="Vector_54" d="M114.094 106.208L140.306 103.701L140.155 101.962L113.943 104.469L114.094 106.208Z" fill="#B2DEE8"/>
<path id="Vector_55" d="M100.434 107.518L114.091 106.211L113.941 104.472L100.284 105.779L100.434 107.518Z" fill="#D2E0E6"/>
<g id="Group_27">
<path id="Vector_56" d="M117.057 85.0298C121.706 84.527 126.364 84.1319 131.03 83.8401C131.167 83.8311 131.176 84.0556 131.039 84.0646C126.372 84.3564 121.715 84.7514 117.065 85.2542C116.928 85.2677 116.92 85.0432 117.057 85.0298Z" fill="#341D3F"/>
<path id="Vector_57" d="M115.877 85.5013C115.89 85.3577 116.099 85.4115 116.086 85.5507C115.539 91.5394 115.027 97.5326 114.552 103.53C114.539 103.674 114.326 103.683 114.339 103.539C114.813 97.5236 115.326 91.508 115.877 85.5013Z" fill="#341D3F"/>
<path id="Vector_58" d="M129.663 90.8165C129.8 90.8389 129.748 91.0544 129.616 91.0364C126.441 90.5381 126.633 96.3248 129.851 95.6559C129.984 95.629 130.052 95.84 129.915 95.8714C128.475 96.1722 127.12 95.0768 127.056 93.519C126.988 91.8625 128.086 90.5696 129.663 90.8165Z" fill="#341D3F"/>
<path id="Vector_59" d="M101.151 106.816C105.155 106.43 109.155 106.049 113.159 105.663C113.296 105.649 113.305 105.874 113.168 105.887C109.164 106.273 105.164 106.655 101.16 107.041C101.023 107.054 101.014 106.83 101.151 106.816Z" fill="#341D3F"/>
</g>
</g>
<g id="Group_28">
<g id="Group_29">
<path id="Vector_60" d="M119.193 35.9307C118.629 36.1327 118.039 36.1731 117.471 35.9801C116.668 35.7062 116.33 34.9879 115.86 34.2831C115.044 33.0531 113.894 31.603 112.399 31.5985C111.659 31.594 111.031 31.7601 110.382 32.1058C109.864 32.3797 109.967 32.1687 109.57 31.7781C109.3 31.5132 108.882 31.2798 108.523 31.2035C107.078 30.8847 105.924 31.4324 104.92 32.5054C104.159 33.3179 103.672 34.3953 102.937 35.2483C102.279 36.007 101.262 36.6265 100.292 36.7567C100.895 37.1607 101.95 37.3583 102.869 37.3987C102.711 37.906 102.647 38.4671 102.642 38.9071C102.621 40.3302 102.694 41.8161 101.395 42.5209C102.108 42.4716 102.711 42.2246 103.224 42.4446C103.296 43.311 103.471 43.5086 103.702 44.3436C103.92 45.1382 104.412 46.4311 105.164 46.8037C105.309 45.1786 104.382 43.5265 105.531 42.09C106.48 40.8958 108.51 40.3751 108.911 38.7051C108.822 39.778 108.839 40.604 108.185 41.4974C109.822 41.5827 111.928 40.0608 112.689 38.5345C112.475 39.6523 113.001 40.2 113.693 40.9048C114.407 41.6321 114.911 42.3863 115.027 43.4547C115.3 43.1449 115.42 42.4985 115.424 41.8027C115.578 42.2516 115.74 42.6915 115.843 43.1045C116.048 43.9171 116.142 45.3851 115.89 46.1977C116.74 44.4109 117.578 42.5479 117.574 40.4738C117.569 39.0777 117.116 37.9733 116.497 36.7792C117.48 37.4481 118.518 36.8645 119.193 35.9307Z" fill="#D69C25"/>
</g>
<path id="Vector_61" d="M111.967 37.2504C111.599 38.8755 110.42 39.9664 109.044 40.6847C108.92 40.7475 109.035 40.9361 109.159 40.8732C110.587 40.128 111.796 38.9788 112.176 37.2998C112.206 37.1606 111.997 37.1112 111.967 37.2504Z" fill="#341D3F"/>
<path id="Vector_62" d="M115.104 40.9047C113.937 39.9171 113.035 38.8127 113.364 37.1292C113.39 36.9856 113.185 36.9362 113.155 37.0798C112.809 38.8351 113.719 40.0293 114.954 41.0708C115.065 41.1606 115.21 40.9945 115.104 40.9047Z" fill="#341D3F"/>
<path id="Vector_63" d="M115.339 36.3125C115.24 36.2137 115.095 36.3798 115.193 36.4786C117.189 38.4584 117.202 41.3001 116.159 43.8051C116.104 43.9353 116.292 44.043 116.347 43.9084C117.437 41.3046 117.403 38.3551 115.339 36.3125Z" fill="#341D3F"/>
<path id="Vector_64" d="M116.394 36.0027C114.903 35.3024 114.954 33.1565 113.42 32.4742C112.343 31.9983 111.249 32.3754 110.484 33.2508C110.39 33.3586 110.548 33.5112 110.642 33.4034C111.343 32.6088 112.352 32.2542 113.326 32.7031C114.116 33.0668 114.484 33.7806 114.86 34.5347C115.219 35.253 115.574 35.8591 116.296 36.2003C116.42 36.2586 116.522 36.0611 116.394 36.0027Z" fill="#341D3F"/>
<path id="Vector_65" d="M109.087 32.9228C108.305 32.1371 107.181 31.8139 106.155 32.2898C104.523 33.0485 104.313 35.3245 102.561 35.9665C102.433 36.0159 102.497 36.2269 102.625 36.182C103.463 35.8767 103.963 35.2886 104.463 34.5389C104.903 33.8835 105.275 33.1068 105.941 32.6669C106.92 32.0159 108.138 32.2898 108.937 33.0933C109.044 33.1876 109.185 33.0215 109.087 32.9228Z" fill="#341D3F"/>
<path id="Vector_66" d="M105.796 34.9562C104.92 35.4455 104.352 36.2222 103.997 37.1874C103.493 38.5566 103.762 41.0392 102.459 41.8966C102.343 41.9729 102.459 42.1615 102.574 42.0852C103.407 41.5375 103.531 40.6127 103.685 39.652C103.963 37.9012 104.288 36.0516 105.912 35.1447C106.031 35.0774 105.916 34.8889 105.796 34.9562Z" fill="#341D3F"/>
<path id="Vector_67" d="M109.552 35.8946C109.099 37.6543 108.202 39.1358 106.809 40.2402C106.168 40.7475 105.433 41.1021 104.933 41.78C104.065 42.9517 104.326 44.4421 104.591 45.7979C104.617 45.9371 104.822 45.8697 104.796 45.7306C104.467 44.065 104.399 42.6374 105.651 41.3849C106.241 40.7923 107.006 40.4242 107.612 39.8361C108.706 38.7722 109.382 37.4434 109.766 35.9439C109.796 35.8093 109.587 35.7554 109.552 35.8946Z" fill="#341D3F"/>
<path id="Vector_68" d="M109.441 34.189C106.805 34.2923 105.813 37.0936 105.194 39.3562C105.155 39.4954 105.365 39.5447 105.403 39.4056C105.993 37.2507 106.907 34.5123 109.45 34.4135C109.591 34.409 109.582 34.1845 109.441 34.189Z" fill="#341D3F"/>
<path id="Vector_69" d="M112.33 34.3461C111.967 34.0004 111.39 33.951 111.044 34.3416C110.95 34.4493 111.108 34.5975 111.202 34.4942C111.617 34.0274 112.211 34.4224 112.45 34.8713C112.693 35.3248 112.792 35.8814 112.864 36.3887C112.886 36.5324 113.099 36.5234 113.078 36.3797C112.98 35.6929 112.843 34.8309 112.33 34.3461Z" fill="#341D3F"/>
</g>
</g>
</g>
<g id="Group_30">
<g id="Group_31">
<g id="Group_32">
<path id="Vector_70" d="M82.5832 32.1822C83.3096 31.9982 83.737 31.1766 83.4677 30.4135C83.2413 29.776 82.5789 29.4348 81.9507 29.5964L77.3354 30.7771C77.4209 29.6548 77.3055 28.519 76.9679 27.4461C76.4936 25.9242 75.8056 25.188 74.8953 25.2732C74.3697 25.3226 74.015 25.8703 74.1389 26.409C74.4894 27.9264 74.4936 29.5111 74.1475 31.0285L73.7073 32.9679C73.5492 33.6727 73.1561 34.3012 72.6048 34.7322L74.0834 41.1024C75.2158 41.2236 76.3568 41.1428 77.4636 40.8645L82.4635 39.603C83.1387 39.4279 83.5575 38.7052 83.3908 37.9914C83.3139 37.6547 83.1173 37.3808 82.8652 37.2013C83.519 37.0127 83.9207 36.2989 83.7583 35.6031C83.6729 35.2394 83.4506 34.9476 83.1643 34.7681L83.1814 34.7636C83.8566 34.5885 84.2754 33.8657 84.113 33.1519C83.9506 32.4516 83.2583 32.0072 82.5832 32.1822Z" fill="white"/>
<path id="Vector_71" d="M73.545 42.1213L71.0707 42.7543C70.5194 42.8979 69.9553 42.5388 69.8186 41.9552L68.3998 35.8543C68.2631 35.2751 68.6092 34.6825 69.1605 34.5389L71.6348 33.9059C72.186 33.7622 72.7501 34.1259 72.8869 34.705L74.3056 40.8059C74.4424 41.385 74.1005 41.9776 73.545 42.1213Z" fill="#D69C25"/>
</g>
</g>
<path id="Vector_72" d="M72.2117 34.2475C71.6006 34.2745 71.0323 34.4361 70.481 34.7099C70.1605 34.8716 70.4639 35.3609 70.7844 35.1993C71.1434 35.0197 71.5237 34.9075 71.9168 34.8581C72.2117 36.0747 72.5023 37.2913 72.7972 38.5079C72.8869 38.8715 73.4168 38.6964 73.3271 38.3328C73.0322 37.1162 72.7416 35.9041 72.4467 34.6875C72.545 34.5124 72.4638 34.2341 72.2117 34.2475Z" fill="#341D3F"/>
<path id="Vector_73" d="M75.5492 25.7803C75.2885 25.5199 74.9167 25.9554 75.1774 26.2158C76.5748 27.6029 76.7628 29.6456 76.4808 31.5445C76.4253 31.9171 76.968 32.0473 77.0235 31.6747C77.3355 29.5558 77.0962 27.3201 75.5492 25.7803Z" fill="#341D3F"/>
<path id="Vector_74" d="M82.4593 31.4505C81.5362 31.6481 80.6217 31.8725 79.7158 32.1239C79.3696 32.2227 79.5363 32.7794 79.8824 32.6806C80.7926 32.4247 81.7072 32.2002 82.6259 32.0072C82.9763 31.9309 82.8097 31.3742 82.4593 31.4505Z" fill="#341D3F"/>
<path id="Vector_75" d="M82.5832 34.2966L80.7242 34.9117C80.3824 35.0239 80.549 35.5851 80.8909 35.4684L82.7498 34.8488C83.0917 34.7411 82.925 34.1799 82.5832 34.2966Z" fill="#341D3F"/>
<path id="Vector_76" d="M82.8524 36.8915L81.8182 37.2327C81.4764 37.3449 81.643 37.9061 81.9849 37.7893L83.0191 37.4481C83.3652 37.3314 83.1943 36.7748 82.8524 36.8915Z" fill="#341D3F"/>
</g>
</g>
</g>
<defs>
<linearGradient id="paint0_linear_46_1106" x1="64.0845" y1="11.7956" x2="135.591" y2="161.715" gradientUnits="userSpaceOnUse">
<stop offset="0.00388622" stop-color="#B2DEE8"/>
<stop offset="0.00883389" stop-color="#B3DEE8"/>
<stop offset="0.2452" stop-color="#CDE4ED"/>
<stop offset="0.4865" stop-color="#E0E9F1"/>
<stop offset="0.7349" stop-color="#EBEBF3"/>
<stop offset="1" stop-color="#EFECF4"/>
</linearGradient>
</defs>
</svg>
