<svg width="73" height="16" viewBox="0 0 73 16" fill="none" xmlns="http://www.w3.org/2000/svg">
<g id="rhisac-white 1" clip-path="url(#clip0_13_649)">
<path id="Vector" fill-rule="evenodd" clip-rule="evenodd" d="M38.1482 6.53011C39.629 6.53011 40.2812 5.10419 40.2812 3.73381C40.2812 2.38195 39.629 0.9375 38.1482 0.9375C36.6674 0.9375 36.0151 2.36344 36.0151 3.73381C36.0151 5.10419 36.6674 6.53011 38.1482 6.53011ZM38.1482 5.67825C37.2492 5.67825 37.0728 4.43753 37.0728 3.73381C37.0728 3.04862 37.2492 1.80788 38.1482 1.78936C39.0472 1.78936 39.2235 3.0301 39.2235 3.73381C39.2235 4.43753 39.0296 5.67825 38.1482 5.67825Z" fill="white"/>
<path id="Vector_2" fill-rule="evenodd" clip-rule="evenodd" d="M24.8917 2.41903C24.8917 2.82644 25.0328 3.21533 25.2443 3.56718L25.1561 3.65978C24.6802 4.01163 24.3452 4.43756 24.3452 5.06719C24.3452 6.01163 25.2267 6.54868 26.0376 6.54868C26.5488 6.54868 26.9895 6.40055 27.3774 6.06718C27.7828 6.32644 28.2412 6.51165 28.7171 6.49313L28.77 5.53016C28.5056 5.51164 28.2412 5.45609 27.9767 5.28942C28.2235 4.91904 28.3998 4.51163 28.488 4.06718L27.6594 3.86348C27.5889 4.1783 27.4831 4.47459 27.2892 4.7709C27.0071 4.51163 26.7603 4.19682 26.5135 3.80793C27.0424 3.43755 27.4479 2.93755 27.4479 2.23384C27.4479 1.51161 26.8309 0.956055 26.1786 0.956055C25.35 0.956055 24.8917 1.65976 24.8917 2.41903ZM25.6498 4.32645C25.8966 4.71534 26.2667 5.10423 26.6722 5.49312C26.4959 5.60423 26.3549 5.6783 26.161 5.69682C25.7379 5.69682 25.35 5.36349 25.35 4.91904C25.35 4.64126 25.4559 4.47459 25.6498 4.32645ZM26.1963 1.77088C26.4607 1.77088 26.6017 2.03013 26.6017 2.27088C26.6017 2.69681 26.3725 2.88199 26.0199 3.10422C25.8613 2.82644 25.7555 2.62273 25.7555 2.2894C25.7555 2.03014 25.9318 1.77088 26.1963 1.77088Z" fill="white"/>
<path id="Vector_3" fill-rule="evenodd" clip-rule="evenodd" d="M3.70201 2.60436C3.70201 1.91917 3.22604 1.03027 2.04492 1.03027H0V6.45624H1.0401V4.19696H1.81574L2.75007 6.45624H3.84304L2.82058 3.97474C3.34944 3.75251 3.70201 3.19696 3.70201 2.60436ZM1.56572 3.2712L1.56387 3.27119C1.54161 3.27111 1.51978 3.27103 1.49842 3.27103H1.0401V1.93769H1.42792C1.4607 1.93769 1.49429 1.93746 1.52843 1.93723C2.02668 1.93384 2.64429 1.92963 2.64429 2.62288C2.64429 3.27527 2.021 3.27292 1.56572 3.2712Z" fill="white"/>
<path id="Vector_4" d="M7.72109 1.95621H5.53515V3.25251H7.33329V4.17844H5.53515V5.54882H7.84451V6.47476H4.5127V1.03027H7.72109V1.95621Z" fill="white"/>
<path id="Vector_5" d="M12.0229 1.95621H10.6831V6.45624H9.643V1.95621H8.30322V1.03027H12.0229V1.95621Z" fill="white"/>
<path id="Vector_6" fill-rule="evenodd" clip-rule="evenodd" d="M16.0773 6.45624H15.0196L14.6847 5.10437H13.151L12.816 6.45624H11.7583L13.2215 1.03027H14.6141L16.0773 6.45624ZM13.9442 1.95621H13.909L13.3625 4.234H14.4731L13.9442 1.95621Z" fill="white"/>
<path id="Vector_7" d="M16.5181 6.45624V1.03027H17.5582V6.45624H16.5181Z" fill="white"/>
<path id="Vector_8" d="M19.4444 5.5303H21.5951V6.45624H18.4043V1.03027H19.4444V5.5303Z" fill="white"/>
<path id="Vector_9" d="M34.2349 1.03027V3.1414H32.5249V1.03027H31.4849V6.45624H32.5249V4.06733H34.2349V6.45624H35.275V1.03027H34.2349Z" fill="white"/>
<path id="Vector_10" d="M43.4193 2.62269C43.3136 2.25233 43.1197 1.86343 42.6966 1.86343C42.3616 1.86343 42.062 2.12269 42.062 2.49307C42.062 2.94609 42.4947 3.08286 42.9952 3.24101C43.6814 3.45781 44.4947 3.71483 44.4947 4.88197C44.4947 5.54864 44.0187 6.53011 42.7495 6.53011C41.7623 6.53011 41.0571 6.03014 40.8984 4.97456L41.9385 4.8079C42.0267 5.27086 42.2559 5.6042 42.7495 5.6042C43.1549 5.6042 43.4898 5.38197 43.4898 4.91901C43.4898 4.44435 43.0308 4.29473 42.5114 4.12548C41.8353 3.90515 41.0571 3.65154 41.0571 2.60418C41.0571 1.62269 41.8327 0.9375 42.7318 0.9375C43.6133 0.9375 44.2655 1.53009 44.3536 2.43751L43.4193 2.62269Z" fill="white"/>
<path id="Vector_11" fill-rule="evenodd" clip-rule="evenodd" d="M47.227 1.03027C48.4257 1.03027 48.9196 1.95621 48.9196 2.73399C48.9196 3.54881 48.4613 4.36363 46.9625 4.36363H46.2573V6.43773H45.2173V1.03027H47.227ZM46.4867 3.45622C46.5358 3.45622 46.5872 3.45692 46.639 3.45764C47.186 3.46518 47.8615 3.4745 47.8615 2.69695C47.8615 1.9194 47.186 1.92872 46.6394 1.93627L46.5975 1.93682L46.5439 1.93742L46.5146 1.93762L46.4867 1.93769H46.2753V3.4377H46.4867V3.45622Z" fill="white"/>
<path id="Vector_12" d="M49.5542 6.45624V1.03027H50.5942V6.45624H49.5542Z" fill="white"/>
<path id="Vector_13" d="M54.8429 1.95621H53.5032V6.45624H52.4632V1.95621H51.123V1.03027H54.8429V1.95621Z" fill="white"/>
<path id="Vector_14" fill-rule="evenodd" clip-rule="evenodd" d="M58.8968 6.45624H57.8392L57.5044 5.10437H55.9705L55.6357 6.45624H54.5781L56.0237 1.03027H57.4161L58.8968 6.45624ZM56.7465 1.95621H56.7113L56.1647 4.234H57.2751L56.7465 1.95621Z" fill="white"/>
<path id="Vector_15" d="M60.3608 5.5303H62.5116V6.45624H59.3208V1.03027H60.3608V5.5303Z" fill="white"/>
<path id="Vector_16" d="M63.1636 6.45624V1.03027H64.2036V6.45624H63.1636Z" fill="white"/>
<path id="Vector_17" d="M68.4523 1.95621H67.1121V6.45624H66.0721V1.95621H64.7324V1.03027H68.4523V1.95621Z" fill="white"/>
<path id="Vector_18" d="M71.3073 4.27103V6.45624H70.2673V4.27103L68.5752 1.03027H69.6679L70.7787 3.41918L71.9246 1.03027H72.9998L71.3073 4.27103Z" fill="white"/>
<path id="Vector_19" d="M50.6821 15.6781V7.86328H51.3873V15.6781H50.6821Z" fill="white"/>
<path id="Vector_20" d="M53.6086 13.345C53.6437 13.6968 53.7145 13.9931 53.8379 14.2339C53.9614 14.4746 54.12 14.6783 54.2962 14.8265C54.49 14.9746 54.7018 15.0857 54.9483 15.1598C55.1952 15.2339 55.4597 15.2709 55.7418 15.2709C56.0766 15.2709 56.3587 15.2339 56.6056 15.1413C56.8526 15.0487 57.0463 14.9376 57.1874 14.7894C57.346 14.6413 57.4519 14.4746 57.5222 14.2709C57.5929 14.0672 57.6281 13.8635 57.6281 13.6598C57.6281 13.3635 57.5573 13.1042 57.4339 12.9191C57.3109 12.7339 57.1342 12.5857 56.9229 12.4561C56.7115 12.345 56.4646 12.2338 56.2001 12.1598C55.9356 12.0857 55.6535 12.0116 55.3714 11.9561C55.0893 11.882 54.8072 11.8079 54.5432 11.7153C54.2786 11.6227 54.0317 11.4931 53.8204 11.345C53.6086 11.1783 53.4324 10.9746 53.3089 10.7338C53.1854 10.4931 53.1152 10.1598 53.1152 9.78941C53.1152 9.53014 53.1679 9.27088 53.2738 9.01161C53.3797 8.75235 53.5383 8.53011 53.7496 8.34496C53.9614 8.14124 54.2255 7.99307 54.5432 7.88197C54.8604 7.77088 55.2304 7.71533 55.6359 7.71533C56.059 7.71533 56.4294 7.77088 56.7291 7.90049C57.0463 8.03014 57.2933 8.19679 57.5046 8.4005C57.716 8.62274 57.857 8.86349 57.9629 9.14127C58.0688 9.419 58.1215 9.7153 58.1215 10.0487H57.4519C57.4519 9.75238 57.3987 9.49311 57.3108 9.27088C57.205 9.04864 57.0815 8.882 56.9053 8.73383C56.7291 8.60422 56.5349 8.49308 56.3235 8.43754C56.1118 8.36347 55.8828 8.34496 55.6359 8.34496C55.2835 8.34496 54.9839 8.4005 54.7369 8.49308C54.49 8.60422 54.2962 8.73383 54.1552 8.90052C54.0141 9.06716 53.9082 9.25236 53.8555 9.45608C53.8028 9.65975 53.7848 9.86347 53.8204 10.0672C53.8555 10.3265 53.9614 10.5301 54.1025 10.6783C54.2611 10.8264 54.4373 10.9561 54.6666 11.0487C54.878 11.1412 55.1249 11.2339 55.3894 11.2894C55.6003 11.3338 55.8112 11.3899 56.0311 11.4484C56.087 11.4632 56.1433 11.4781 56.2001 11.4931C56.4822 11.5672 56.7467 11.6413 56.9932 11.7339C57.2577 11.8265 57.487 11.9561 57.6808 12.1042C57.875 12.2709 58.0336 12.4746 58.1571 12.7153C58.2801 12.9561 58.3333 13.2709 58.3333 13.6598C58.3333 14.382 58.1039 14.9376 57.6281 15.345C57.1522 15.7339 56.4822 15.9376 55.6183 15.9376C55.2304 15.9376 54.878 15.882 54.5432 15.7895C54.2079 15.6968 53.9258 15.5302 53.6793 15.308C53.4324 15.0857 53.2562 14.8265 53.1152 14.5116C52.9741 14.1968 52.9214 13.8265 52.9214 13.4005H53.6086V13.345Z" fill="white"/>
<path id="Vector_21" fill-rule="evenodd" clip-rule="evenodd" d="M58.9326 15.6781L58.9394 15.6596H59.6554L60.5368 13.2151H63.9214L64.7852 15.6781H65.508L62.652 7.86328H61.8589L58.9394 15.6596H58.9326V15.6781ZM63.692 12.5855H60.7833L62.2289 8.49291L63.692 12.5855Z" fill="white"/>
<path id="Vector_22" d="M70.9732 8.71525C71.3788 8.99303 71.6429 9.47453 71.7839 10.1412V10.1227H72.5067C72.454 9.71523 72.3305 9.36339 72.1719 9.04857C72.0133 8.73376 71.8015 8.4745 71.555 8.27078C71.3081 8.06711 71.026 7.91893 70.6912 7.80784C70.3564 7.71521 70.0035 7.65967 69.6336 7.65967C69.1397 7.65967 68.6814 7.73373 68.2583 7.8819C67.8351 8.03003 67.4828 8.27078 67.1655 8.60411C66.8659 8.93748 66.6189 9.36339 66.4427 9.88192C66.2661 10.4004 66.1782 11.0301 66.1782 11.7708C66.1782 12.3264 66.2309 12.8449 66.3544 13.3449C66.4779 13.8449 66.6541 14.2893 66.9186 14.6597C67.1831 15.0301 67.5179 15.3264 67.9235 15.5486C68.329 15.7708 68.8224 15.882 69.3866 15.882C69.8976 15.882 70.3208 15.8079 70.6912 15.6597C71.0611 15.5116 71.3608 15.3079 71.6253 15.0486C71.8722 14.7894 72.0836 14.4931 72.2422 14.1597C72.3832 13.8264 72.5067 13.456 72.595 13.0856H71.8546C71.7839 13.4004 71.696 13.6782 71.555 13.9375C71.4139 14.1968 71.2553 14.4375 71.0611 14.6227C70.8674 14.8079 70.638 14.956 70.3739 15.0671C70.1094 15.1782 69.8273 15.2338 69.5101 15.2338C68.9986 15.2338 68.5755 15.1412 68.2407 14.9375C67.9059 14.7338 67.6238 14.4745 67.4296 14.1412C67.2358 13.8078 67.0948 13.4375 67.0069 13.0116C66.9186 12.5856 66.8834 12.1597 66.8834 11.7338C66.8834 11.2708 66.9186 10.8264 67.0245 10.419C67.1124 10.0115 67.271 9.64117 67.4828 9.32636C67.6941 9.01154 67.9586 8.75228 68.2759 8.56707C68.6107 8.38192 68.9986 8.28929 69.4393 8.28929C70.0743 8.28929 70.5853 8.43747 70.9732 8.71525Z" fill="white"/>
<path id="Vector_23" d="M46.2454 7.67822H0.0351562V8.80899C0.0351562 9.58566 0.640401 10.2152 1.38701 10.2152H47.5973V9.08447C47.5973 8.3078 46.9921 7.67822 46.2454 7.67822Z" fill="white"/>
</g>
<defs>
<clipPath id="clip0_13_649">
<rect width="73" height="15" fill="white" transform="translate(0 0.9375)"/>
</clipPath>
</defs>
</svg>
