<svg width="56" height="56" viewBox="0 0 56 56" fill="none" xmlns="http://www.w3.org/2000/svg">
<g id="MACH-2023-white 1" clip-path="url(#clip0_13_622)">
<g id="Clip path group">
<mask id="mask0_13_622" style="mask-type:luminance" maskUnits="userSpaceOnUse" x="0" y="0" width="56" height="56">
<g id="clip0_1_413">
<path id="Vector" d="M55.6665 0.9375H0.666504V55.9375H55.6665V0.9375Z" fill="white"/>
</g>
</mask>
<g mask="url(#mask0_13_622)">
<g id="Group">
<path id="Vector_2" d="M22.525 3.93717C22.6342 3.97028 22.7071 4.06298 22.7369 4.21528L23.2534 6.72822C23.2865 6.88052 23.2534 6.9964 23.1607 7.07255C23.1044 7.11891 23.0018 7.15864 22.8561 7.19174L22.8826 7.32418L24.6969 6.95336L24.6704 6.82093C24.5082 6.85404 24.3824 6.85073 24.2897 6.82093C24.197 6.79113 24.1374 6.70174 24.1076 6.55606L23.5911 4.04312C23.5613 3.88751 23.5911 3.77494 23.6805 3.7021C23.7368 3.65906 23.8427 3.61602 24.0049 3.57629L23.9785 3.44385L22.1641 3.81467L22.1906 3.9471C22.3462 3.92061 22.4588 3.9173 22.525 3.93717Z" fill="white"/>
<path id="Vector_3" d="M26.8556 6.78132C26.8722 6.72172 26.8887 6.67868 26.9086 6.64557C26.9284 6.61246 26.9682 6.59591 27.0211 6.59591C27.0377 6.59591 27.0543 6.59922 27.0774 6.60253C27.1006 6.60584 27.1238 6.61246 27.147 6.61909L27.2496 6.65882C27.3555 6.69855 27.4615 6.72834 27.5708 6.74821C27.6767 6.76476 27.7826 6.7747 27.8886 6.7747C28.3455 6.7747 28.6766 6.64888 28.8852 6.4105C29.0937 6.17212 29.1931 5.92049 29.1931 5.65231C29.1931 5.36427 29.0937 5.12258 28.8984 4.92393C28.7925 4.81798 28.6534 4.72196 28.4779 4.63588L28.0839 4.44054C27.7562 4.27831 27.5476 4.15581 27.4516 4.07303C27.3555 3.99026 27.3059 3.86445 27.3059 3.69891C27.3059 3.55985 27.3522 3.44066 27.4549 3.34133C27.5542 3.24201 27.6933 3.19235 27.8687 3.19235C28.1204 3.18903 28.3322 3.28505 28.5077 3.47708C28.6832 3.66911 28.809 3.89756 28.8785 4.16243H29.0275L29.0176 3.01025H28.8587C28.8454 3.06322 28.8289 3.10626 28.8057 3.14268C28.7825 3.1791 28.7428 3.19566 28.6865 3.19566C28.66 3.19566 28.5574 3.16586 28.3786 3.10957C28.1998 3.05329 28.0144 3.0268 27.8224 3.0268C27.4482 3.0268 27.1701 3.14268 26.988 3.36782C26.8059 3.59296 26.7199 3.83465 26.7199 4.0929C26.7232 4.3379 26.7927 4.53987 26.9318 4.70541C27.0708 4.87095 27.3092 5.03649 27.6436 5.20204L27.9813 5.37089C28.1932 5.47684 28.3322 5.55961 28.4018 5.62583C28.5077 5.72515 28.5607 5.85428 28.5607 6.0132C28.5607 6.14894 28.5143 6.27807 28.415 6.40388C28.3157 6.52969 28.1468 6.5926 27.9118 6.5926C27.6767 6.5926 27.4516 6.50652 27.2628 6.32773C27.0741 6.14894 26.9351 5.8609 26.849 5.46691H26.6934L26.7033 6.78132H26.8556Z" fill="white"/>
<path id="Vector_4" d="M32.2388 3.91707L32.8778 7.3107L33.0135 7.3405L34.8709 4.566C34.9603 4.42695 35.0464 4.33755 35.1225 4.2912C35.1987 4.24485 35.3013 4.2316 35.4304 4.24485L35.4569 4.11904L34.3577 3.87403L34.3279 3.99984C34.5034 4.04951 34.616 4.09586 34.6689 4.13228C34.7219 4.1687 34.7385 4.23492 34.7153 4.33424C34.7053 4.37397 34.6855 4.42363 34.6491 4.48654C34.6292 4.52296 34.606 4.55938 34.5828 4.5958L33.5201 6.19163L33.1261 4.10248C33.1194 4.07268 33.1194 4.0462 33.1194 4.02302C33.1194 3.99984 33.1228 3.97336 33.1294 3.94687C33.1459 3.8641 33.1857 3.81775 33.2453 3.80781C33.3049 3.79788 33.4307 3.81113 33.6161 3.84092L33.6459 3.71842L31.9176 3.33105L31.8911 3.45686C32.007 3.49328 32.0898 3.54626 32.1328 3.61247C32.1759 3.67869 32.2123 3.78133 32.2388 3.91707Z" fill="white"/>
<path id="Vector_5" d="M33.646 3.71533V3.71864H33.6526L33.646 3.71533Z" fill="white"/>
<path id="Vector_6" d="M28.1665 0.9375C13.0028 0.9375 0.666504 13.2738 0.666504 28.4375C0.666504 43.6012 13.0028 55.9375 28.1665 55.9375C43.3302 55.9375 55.6665 43.6012 55.6665 28.4375C55.6665 13.2738 43.3302 0.9375 28.1665 0.9375ZM28.1665 55.2753C13.367 55.2753 1.32868 43.237 1.32868 28.4375C1.32868 13.638 13.367 1.59967 28.1665 1.59967C42.966 1.59967 55.0043 13.638 55.0043 28.4375C55.0043 43.237 42.966 55.2753 28.1665 55.2753Z" fill="white"/>
<path id="Vector_7" d="M13.9132 46.4122L14.0126 46.5015L14.8502 45.5745L14.741 45.4752C14.6946 45.5083 14.6383 45.5348 14.5721 45.5447C14.5092 45.5546 14.4496 45.5381 14.3999 45.4917C14.3801 45.4752 14.3139 45.3593 14.2013 45.1441H14.2079C14.092 44.9289 13.953 44.7468 13.7874 44.5978C13.4034 44.2502 12.9663 44.0846 12.4763 44.0979C11.9565 44.1111 11.4996 44.3362 11.109 44.7667C10.715 45.2037 10.5494 45.6805 10.609 46.2036C10.662 46.6737 10.8871 47.0876 11.2778 47.4418C11.5327 47.6736 11.8274 47.816 12.1618 47.8656C12.3472 47.8954 12.5988 47.8921 12.9101 47.859L12.8803 47.6537C12.6121 47.6736 12.3969 47.6736 12.238 47.6471C11.9598 47.6008 11.7181 47.4882 11.5129 47.3028C11.1785 47.0015 11.1056 46.624 11.2944 46.1705C11.3937 45.9288 11.5725 45.6639 11.8307 45.3792C12.1817 44.9951 12.5161 44.7369 12.8339 44.6077C13.1518 44.4819 13.4464 44.5349 13.7113 44.7766C13.9464 44.9918 14.0589 45.2865 14.0523 45.6705C14.0457 45.8758 13.9993 46.1241 13.9132 46.4122Z" fill="white"/>
<path id="Vector_8" d="M15.7042 46.293L15.6347 46.4088C15.7638 46.4949 15.8466 46.5645 15.8797 46.6241C15.9393 46.7201 15.9327 46.8359 15.8532 46.9717L14.5388 49.2065C14.4593 49.339 14.3633 49.4019 14.2508 49.4019C14.1746 49.3986 14.072 49.3621 13.9362 49.2893L13.8667 49.4052L13.8799 49.4118L16.575 50.9977L17.3265 50.1468L17.1974 50.0707C16.8663 50.2991 16.575 50.4183 16.3234 50.4216C16.0717 50.4282 15.7969 50.3421 15.5023 50.17C15.3466 50.0773 15.2539 50.0011 15.2241 49.9349C15.1943 49.8687 15.2109 49.7859 15.2672 49.6899L15.9227 48.5708C16.1843 48.7264 16.3333 48.8887 16.373 49.0542C16.4094 49.2231 16.3697 49.4482 16.2472 49.7296L16.3631 49.7992L17.2802 48.2398L17.1643 48.1702C16.959 48.402 16.7836 48.541 16.6313 48.5841C16.479 48.6271 16.2737 48.5708 16.0121 48.4119L16.6412 47.3458C16.6909 47.2564 16.7438 47.2101 16.8001 47.2035C16.8564 47.1968 16.9524 47.2366 17.0948 47.3193C17.4656 47.5378 17.6874 47.7431 17.7636 47.9352C17.8397 48.1272 17.8199 48.3887 17.704 48.7198L17.8165 48.786L18.3628 47.8557L15.7042 46.293Z" fill="white"/>
<path id="Vector_9" d="M21.8263 49.3226C21.6409 49.1802 21.3793 49.0511 21.0416 48.9352L19.4094 48.3823L19.3663 48.5114C19.5352 48.5843 19.6378 48.6505 19.6742 48.7068C19.7272 48.7929 19.7206 48.9319 19.6544 49.1273L18.8929 51.3687C18.83 51.5574 18.7571 51.67 18.6744 51.7031C18.5916 51.7362 18.4658 51.7296 18.2903 51.6799H18.2969L18.2539 51.8124L19.9656 52.3951L20.0086 52.266C19.8332 52.1964 19.7272 52.1236 19.6875 52.0408C19.6478 51.9581 19.661 51.8289 19.7206 51.6501L20.0583 50.6569L20.7006 52.6434L21.7568 53.001L21.7965 52.8785C21.7501 52.8586 21.7137 52.8387 21.6872 52.8156C21.6608 52.7924 21.6376 52.756 21.6243 52.7063L21.0383 50.8986C21.2303 50.9284 21.429 50.9085 21.631 50.8456C21.8958 50.7595 22.0779 50.5774 22.1706 50.3026C22.2998 49.9318 22.1839 49.604 21.8263 49.3226ZM21.2866 50.0543C21.1807 50.3755 21.0383 50.5542 20.8661 50.594C20.694 50.6337 20.4424 50.6006 20.108 50.4913L20.545 49.2034C20.5715 49.1273 20.6112 49.0776 20.6642 49.0577C20.7205 49.0379 20.8132 49.0511 20.9489 49.0975C21.2005 49.1802 21.3396 49.3358 21.3661 49.561C21.3826 49.6934 21.3562 49.859 21.2899 50.0543H21.2866Z" fill="white"/>
<path id="Vector_10" d="M23.5278 50.7989L23.6801 50.8188C23.7629 50.4447 23.9416 50.2063 24.2131 50.1004C24.3621 50.0441 24.5641 50.0308 24.8256 50.0573L24.4482 52.8517C24.4217 53.047 24.3687 53.1695 24.2926 53.2258C24.2131 53.2821 24.0741 53.2953 23.8655 53.2688L23.8456 53.4046L25.7361 53.6595L25.7527 53.5238C25.5375 53.4973 25.3984 53.4443 25.3388 53.3715C25.2792 53.2986 25.2627 53.1629 25.2892 52.9676L25.6666 50.1732C25.9315 50.2162 26.1235 50.2825 26.246 50.3752C26.4645 50.5407 26.5705 50.8188 26.5705 51.2095L26.7228 51.2294L26.8618 50.1599L23.6768 49.7295L23.5278 50.7989Z" fill="white"/>
<path id="Vector_11" d="M29.4115 53.2194L29.3287 50.627C29.3221 50.4681 29.3717 50.3588 29.4744 50.3025C29.534 50.2694 29.6499 50.2462 29.8121 50.233V50.0972L27.9448 50.1568V50.2926C28.107 50.2959 28.2196 50.3125 28.2825 50.3423C28.3884 50.3919 28.4414 50.4946 28.448 50.6535L28.5308 53.2459C28.5341 53.4048 28.4844 53.5141 28.3785 53.5736C28.3123 53.6101 28.2063 53.6299 28.054 53.6399H28.0606V53.7756L29.9247 53.716V53.5803C29.7591 53.5869 29.6333 53.5637 29.5472 53.5174C29.4611 53.4677 29.4181 53.3684 29.4115 53.2194Z" fill="white"/>
<path id="Vector_12" d="M30.855 50.0341L30.8815 50.1666C31.0404 50.1467 31.1497 50.1467 31.2159 50.1666C31.3218 50.1997 31.3914 50.2924 31.4212 50.4447L31.9244 52.9841C31.9542 53.1364 31.9244 53.249 31.8383 53.3218C31.7821 53.3715 31.6794 53.4145 31.5304 53.4476L31.5569 53.5801L33.4474 53.2059L33.4209 53.0735C33.2256 53.1166 33.0766 53.1265 32.974 53.1C32.8713 53.0735 32.8051 52.9808 32.772 52.8186L32.5303 51.5969C32.815 51.5406 33.0203 51.5671 33.1561 51.6763C33.2885 51.7823 33.4011 51.9776 33.4938 52.2524L33.6262 52.2259L33.2753 50.4513L33.1428 50.4778C33.1461 50.7625 33.1097 50.9744 33.0336 51.1201C32.9574 51.2658 32.7786 51.3651 32.4939 51.4148L32.2522 50.1997C32.2323 50.1037 32.239 50.0341 32.2754 49.9911C32.3085 49.9481 32.4045 49.9116 32.5568 49.8818C32.9707 49.7991 33.2686 49.809 33.4474 49.9083C33.6262 50.011 33.7818 50.2162 33.9109 50.5308L34.0401 50.5043L33.8315 49.4448L30.855 50.0341Z" fill="white"/>
<path id="Vector_13" d="M37.4304 51.7826C37.3344 51.7627 37.2615 51.6832 37.2086 51.5442L36.3014 49.114C36.2484 48.965 36.2583 48.8458 36.3378 48.7598C36.3875 48.7068 36.4868 48.6505 36.6424 48.5843L36.5961 48.4585L34.8413 49.114L34.8876 49.2398C35.0399 49.1935 35.1525 49.1703 35.222 49.1802C35.3379 49.1935 35.4207 49.2729 35.477 49.4219L36.3842 51.8521C36.4404 52.0011 36.4272 52.1203 36.3444 52.2097C36.2915 52.2626 36.1954 52.3189 36.0564 52.3752L36.1027 52.5043L37.8542 51.8488L37.8078 51.723C37.6522 51.7826 37.5264 51.7991 37.4304 51.7826Z" fill="white"/>
<path id="Vector_14" d="M41.5756 48.6406C41.612 49.0412 41.569 49.3524 41.4498 49.5742C41.3273 49.7961 41.1187 49.9914 40.824 50.1636C40.6684 50.253 40.5558 50.296 40.483 50.2894C40.4102 50.2828 40.3473 50.2331 40.291 50.1338L39.642 49.0114C39.9069 48.8558 40.1221 48.8061 40.2844 48.8558C40.4499 48.9054 40.6254 49.0511 40.8108 49.2961L40.9267 49.2266L40.0195 47.6605L39.9036 47.7301C40.0062 48.0214 40.0393 48.2433 40.0029 48.3956C39.9665 48.5479 39.8142 48.7002 39.5493 48.8492L38.9302 47.7764C38.8805 47.6903 38.864 47.6208 38.8872 47.5678C38.9103 47.5149 38.9898 47.4487 39.1322 47.3659C39.503 47.1507 39.791 47.0547 39.9963 47.0845C40.2016 47.1143 40.4201 47.2599 40.6519 47.5248L40.7644 47.4586L40.2248 46.5249L37.5562 48.0711L37.6257 48.1903C37.7615 48.1208 37.8674 48.0843 37.9336 48.0843C38.0495 48.081 38.1488 48.1439 38.225 48.2797L39.5229 50.5244C39.599 50.6569 39.6089 50.7694 39.5493 50.8688C39.5129 50.935 39.4268 51.0045 39.2977 51.0873L39.3672 51.2065L42.0755 49.6371L41.7047 48.5644L41.5756 48.6406Z" fill="white"/>
<path id="Vector_15" d="M43.9096 44.1905C43.4163 44.1574 42.923 44.3626 42.4297 44.7997L41.208 45.8856L41.2974 45.9883C41.4099 45.9055 41.4993 45.8525 41.5622 45.8393C41.6715 45.8128 41.7708 45.8525 41.8635 45.9552L43.615 47.9284C43.711 48.0344 43.7375 48.1436 43.6944 48.2529C43.6713 48.3125 43.6117 48.392 43.5156 48.488L43.605 48.5873L44.8698 47.4649C45.3267 47.061 45.5618 46.5975 45.5783 46.0777C45.5949 45.6175 45.4393 45.2036 45.1181 44.8427C44.7572 44.4388 44.3533 44.2203 43.9063 44.1905H43.9096ZM44.6844 47.3921C44.5983 47.4682 44.5255 47.5013 44.4659 47.4881H44.4625C44.403 47.4748 44.3334 47.4285 44.2573 47.349L42.5091 45.3791C42.4363 45.2996 42.3966 45.2334 42.3933 45.187C42.3833 45.1142 42.433 45.0314 42.5356 44.9387C42.8535 44.6606 43.221 44.6242 43.6448 44.8328C43.9096 44.9619 44.1646 45.1705 44.4162 45.4519C44.84 45.9287 45.0486 46.3194 45.0453 46.6206C45.0419 46.9252 44.9194 47.1802 44.6844 47.3921Z" fill="white"/>
<path id="Vector_16" d="M51.2132 28.0338C50.8325 27.2955 49.9716 27.1266 48.5513 27.11C48.4817 26.0142 48.3228 24.9447 48.0844 23.9018C48.4817 23.4217 48.6539 23.137 48.6539 22.7066C48.6539 21.9087 47.8858 20.8856 47.7302 20.6903C47.3726 20.2334 46.9986 19.8858 46.6045 19.6441C43.3135 12.7674 36.2845 8.00635 28.1663 8.00635C17.6742 8.00635 9.00641 15.9558 7.86747 26.1499C7.61916 26.6035 7.38409 27.0405 7.19206 27.4047C6.68881 28.3549 6.17231 29.3681 5.7717 30.1825C5.05986 31.6327 5.02344 31.8082 5.02344 32.1061C5.02344 32.8345 5.5598 33.6291 6.02001 34.0893C6.53651 34.6058 7.12253 34.8773 7.71517 34.8773C8.04957 34.8773 8.35086 34.778 8.6687 34.5429C11.271 42.8366 19.0283 48.869 28.1663 48.869C37.8936 48.869 46.0483 42.0354 48.0977 32.9173C48.2831 32.9372 48.4321 32.9504 48.5612 32.9504C48.7267 32.9504 48.9817 32.9339 49.2465 32.7981C49.9915 32.414 50.7266 31.1692 50.806 31.0301C51.4814 29.8614 51.6204 28.8251 51.2132 28.0338ZM48.3261 27.1067C47.5415 27.1067 46.5614 27.1531 45.4854 27.2425C46.2171 26.1267 46.9819 25.1997 47.5481 24.5375C47.7169 25.3785 47.8295 26.2393 47.8858 27.1134C48.0348 27.1134 48.1871 27.1067 48.3261 27.1067ZM40.9065 21.0048C40.486 20.6804 39.6616 20.1407 38.8869 20.1407C38.1982 20.1407 37.7479 20.5479 36.7944 22.0378C36.5924 22.3557 36.3772 22.7066 36.162 23.0774C36.0263 22.849 35.9038 22.6669 35.8409 22.5709C35.2549 21.7034 34.4503 20.7068 33.4306 20.7068C32.0301 20.7068 30.6627 21.4419 29.4873 22.8059C29.4443 22.1404 29.0172 21.4419 28.2127 20.73C27.6829 20.2632 26.9115 19.7037 26.2361 19.7037C25.6136 19.7037 25.1071 20.0612 24.7329 20.7731C24.1933 20.8591 23.7298 21.2763 23.0278 22.1272C22.8226 21.6902 22.4418 21.2598 21.8889 20.8492C21.5512 20.5976 20.6804 20.0116 19.8726 20.0116C19.227 20.0116 18.6509 20.3228 18.1178 20.9585H18.0616C17.3828 20.9585 16.9458 21.369 16.0486 22.5874C15.8466 22.1603 15.4129 21.7564 14.6911 21.3127C13.9164 20.836 13.3005 20.5943 12.8635 20.5943C11.9596 20.5943 11.612 21.4253 11.4829 21.7398C11.367 22.0213 11.2313 22.4119 11.0823 22.9019C11.0823 22.9119 11.0756 22.9185 11.0756 22.9284C10.9399 22.8788 10.7975 22.8523 10.6353 22.8523C9.85399 22.8523 9.42689 23.4615 8.78458 24.5342C9.15209 22.7066 9.77784 20.9684 10.6122 19.3593H44.8034C44.1875 19.5977 43.6711 20.2797 43.0254 21.3591C42.7606 21.7994 42.4791 22.306 42.1944 22.8556C42.1249 22.2298 41.6912 21.6074 40.9032 21.0048H40.9065ZM41.2641 24.7991C41.2144 24.9017 41.168 25.0043 41.1217 25.1103C40.678 26.0969 40.2874 27.0505 39.9563 27.951C39.5159 28.0272 39.0921 28.1066 38.6783 28.1894C39.4563 26.971 40.3503 25.8917 41.0025 25.107C41.0952 24.9977 41.1814 24.8918 41.2608 24.7958H41.2641V24.7991ZM45.3596 18.7005H10.973C11.3405 18.0515 11.7444 17.4225 12.1815 16.8232H44.1412C44.5782 17.4258 44.9855 18.0515 45.3563 18.7005H45.3596ZM46.4621 19.5679C46.4224 19.5447 46.3793 19.5249 46.3396 19.505C46.3793 19.5249 46.4224 19.548 46.4621 19.5679ZM38.9961 11.9165H17.3398V11.9993H39.1252C40.1119 12.6581 41.0323 13.4064 41.8832 14.2275H14.4461C16.5915 12.1549 19.2005 10.5656 22.1041 9.62536H34.2252C35.927 10.175 37.5294 10.9497 38.9961 11.9165ZM33.957 9.54258H22.3756C24.2098 8.97974 26.1533 8.67514 28.1663 8.67514C30.1793 8.67514 32.1261 8.97974 33.957 9.54258ZM14.2772 14.393H42.052C42.7142 15.0486 43.3333 15.7505 43.9028 16.4954H12.4331C12.9993 15.7538 13.6118 15.0486 14.2772 14.393ZM9.20506 34.0264C9.25141 33.9701 9.29776 33.9172 9.34743 33.8576C9.55932 34.2052 9.86723 34.5562 10.2745 34.9071C10.7015 35.2779 11.5359 35.8971 12.3139 35.8971C12.6814 35.8971 13.3171 35.7514 13.6813 34.8343C13.8435 34.6886 13.9627 34.5065 14.0356 34.3045C14.0985 34.1986 14.2143 34.0132 14.3666 33.7847C14.5289 34.3377 14.9063 34.831 15.4658 35.2084C16.0254 35.5892 16.7306 35.8143 17.3497 35.8143C18.4655 35.8143 19.0482 35.0528 19.0482 34.2979C19.0482 33.947 19.0647 33.5861 19.1012 33.2219C19.2899 33.3312 19.5051 33.3974 19.76 33.3974C20.5844 33.3974 21.2367 32.7484 21.5644 32.1591C22.1869 32.0465 22.7133 31.9836 23.1868 31.9671C23.3854 32.4405 23.7463 32.8875 24.2363 33.2716C24.8389 33.7417 25.5474 34.0331 26.0871 34.0331C26.8916 34.0331 27.5008 33.4437 27.5008 32.6657V32.5266C27.6101 32.5531 27.716 32.5796 27.812 32.6061C27.9743 32.6491 28.1166 32.6855 28.2425 32.7153C28.9212 33.6589 29.7588 34.1721 30.6263 34.1721C30.7587 34.1721 30.8878 34.1688 31.0169 34.1622C31.0269 34.182 31.0368 34.2052 31.0468 34.2251L31.0567 34.2449C31.3646 34.8442 31.8215 35.1455 32.4208 35.1455C32.6128 35.1455 32.8015 35.1124 32.9968 35.0528C33.1359 35.2349 33.2518 35.364 33.2849 35.4038C34.0067 36.2149 34.7946 36.6453 35.5694 36.6453C36.1819 36.6453 36.5593 36.3705 36.7646 36.1421C37.2679 35.5858 37.195 34.9005 37.1189 34.1721C37.0924 33.9139 37.0626 33.6126 37.0427 33.2649C37.5592 33.0994 38.0989 32.957 38.6584 32.8411C38.6088 33.2649 38.5955 33.5828 38.5955 33.8079C38.5955 34.6721 39.2875 35.4302 39.698 35.8044C39.9397 36.0229 40.7906 36.7413 41.5819 36.7413H41.6283C42.7738 36.7413 43.1016 35.9004 43.1877 35.5395C43.2804 35.1521 43.2969 34.6224 43.2969 33.5066C43.2969 33.1689 43.3201 32.818 43.3665 32.467C45.0318 32.5101 46.4787 32.7087 47.3825 32.8312L47.4355 32.8378C47.0779 34.4039 46.5316 35.8971 45.8264 37.3009H10.5029C9.9798 36.258 9.53946 35.1654 9.20506 34.0264ZM17.2802 44.9324H39.0524C37.6387 45.8694 36.0958 46.6309 34.4569 47.1805H21.8657C20.2302 46.6276 18.6906 45.8661 17.2769 44.9324H17.2802ZM33.7981 41.4295C33.7285 41.3765 33.6259 41.3467 33.4902 41.3467H32.8479V40.7574L33.5166 40.125H32.3347V39.3039H34.8542V39.9463L34.0431 40.6581L34.2053 40.6912C34.4503 40.7442 34.649 40.8534 34.798 41.0223H34.7847C34.9337 41.1944 35.0065 41.403 35.0065 41.658C35.0065 41.8798 34.9469 42.0784 34.8311 42.2506C34.7119 42.4261 34.5463 42.5585 34.3311 42.6545C34.1159 42.7505 33.8643 42.8002 33.5762 42.8002C33.3114 42.8002 33.0498 42.7572 32.7916 42.6744C32.5333 42.5916 32.3148 42.4791 32.1393 42.3433L32.5433 41.5785C32.8479 41.8334 33.1624 41.9626 33.4869 41.9626C33.7617 41.9626 33.9007 41.8599 33.9007 41.658C33.9007 41.5586 33.8676 41.4825 33.7981 41.4295ZM29.7456 40.2177C29.7025 40.1846 29.6463 40.1714 29.5701 40.1714C29.441 40.1714 29.2953 40.2111 29.1331 40.2906C28.9708 40.37 28.802 40.476 28.6331 40.615L28.2127 39.794C28.7358 39.4364 29.249 39.2576 29.7489 39.2576C29.984 39.2576 30.1959 39.2973 30.3879 39.3768C30.5766 39.4562 30.7289 39.5655 30.8382 39.7046C30.9474 39.8436 31.0037 40.0058 31.0037 40.1846C31.0037 40.3634 30.9441 40.5588 30.8282 40.7475C30.709 40.9362 30.5435 41.1348 30.3283 41.3501L29.7986 41.8765H31.0534V42.7505H28.3517V42.0321L29.5502 40.7905C29.6264 40.7111 29.6893 40.6349 29.7356 40.5554C29.7853 40.476 29.8085 40.4098 29.8085 40.3535C29.8085 40.2939 29.7886 40.2508 29.7456 40.2177ZM27.1466 41.0289C27.1466 41.5917 27.0108 42.0255 26.7393 42.3301C26.4678 42.6347 26.0771 42.787 25.5706 42.787C25.064 42.787 24.67 42.6347 24.3985 42.3334C24.1271 42.0321 23.9913 41.5951 23.9913 41.0289C23.9913 40.4627 24.1271 40.029 24.3985 39.7277C24.67 39.4264 25.0607 39.2741 25.5706 39.2741C26.0805 39.2741 26.4678 39.4264 26.7393 39.7277C27.0108 40.0356 27.1466 40.4661 27.1466 41.0289ZM21.4982 40.2177C21.4552 40.1846 21.3989 40.1714 21.3228 40.1714C21.1936 40.1714 21.048 40.2111 20.8857 40.2906C20.7235 40.37 20.5546 40.476 20.3858 40.615L19.9653 39.794C20.4884 39.4364 21.0016 39.2576 21.5015 39.2576C21.7366 39.2576 21.9485 39.2973 22.1405 39.3768C22.3293 39.4562 22.4816 39.5655 22.5908 39.7046C22.7001 39.8436 22.7564 40.0058 22.7564 40.1846C22.7564 40.3634 22.6968 40.5588 22.5809 40.7475C22.4617 40.9362 22.2961 41.1348 22.0809 41.3501L21.5512 41.8765H22.806V42.7505H20.1044V42.0321L21.3029 40.7905C21.379 40.7111 21.4419 40.6349 21.4883 40.5554C21.538 40.476 21.5611 40.4098 21.5611 40.3535C21.5611 40.2939 21.5413 40.2508 21.4982 40.2177ZM22.124 47.2633H34.2119C32.3049 47.8791 30.2753 48.2135 28.1663 48.2135C26.0573 48.2135 24.031 47.8791 22.124 47.2633ZM48.5446 31.0963C48.293 31.2221 45.6112 30.5699 42.211 30.6162C42.0355 31.3513 41.9295 32.1094 41.9295 32.8875C41.9295 34.9435 41.8733 34.9005 41.4362 34.9005C40.9992 34.9005 39.6749 33.841 39.6749 33.1921C39.6749 32.5034 39.8106 31.6625 40.0324 30.7487C38.5988 30.9076 37.1089 31.2254 35.6687 31.7916C35.6654 31.8843 35.6588 31.9737 35.6588 32.0664C35.6588 33.9735 36.119 34.8045 35.427 34.8045C34.4934 34.8045 33.4173 33.2782 33.3941 32.8743C32.1758 33.4768 32.1592 33.3676 31.9937 33.0497C31.9175 32.9041 31.9506 32.5531 32.0566 32.1558C31.5831 32.2684 31.0865 32.3346 30.4839 32.3346C29.8813 32.3346 29.2589 31.7519 28.7954 30.9142C28.7821 30.9506 28.7589 30.9738 28.7258 30.9738C28.4378 30.9738 27.4114 30.6063 25.9348 30.3547C26.0076 31.2619 26.1367 31.6724 26.1367 32.0532C26.1367 32.5763 24.0807 31.5665 24.0807 30.4706C24.0807 30.3977 24.0873 30.2852 24.0939 30.1461C23.8357 30.1329 23.5741 30.1229 23.3027 30.1229C22.4253 30.1229 21.5148 30.2686 20.6738 30.4408C20.5348 30.6328 20.4321 30.795 20.3725 30.9076C20.1938 31.2552 19.8627 31.5565 19.6177 31.5565C19.4985 31.5565 19.2568 31.189 19.0383 30.8083C18.6244 30.901 18.2602 30.9771 17.9722 31.0069C17.7934 31.8744 17.6841 32.7716 17.6841 33.6854C17.6841 34.3575 15.4658 33.8079 15.3665 32.6392C15.3665 32.3114 15.7473 30.209 16.3465 27.855C14.5289 30.5467 12.6152 33.3444 12.3934 33.7814V33.7881C12.3801 33.8079 12.3735 33.8278 12.3735 33.8344C12.3735 33.8543 12.3669 33.8708 12.3503 33.8841C12.294 33.9933 12.2378 34.0562 12.1748 34.0562C11.6352 34.0562 10.099 32.8411 10.099 32.1525C10.099 31.3215 10.5029 29.1562 10.9995 26.9677L10.5162 28.6297C10.5162 28.6297 8.30451 33.0398 7.57612 33.0398C6.84773 33.0398 6.11272 31.881 6.11272 31.4936C6.11272 31.1857 10.0493 23.4648 10.4963 23.4648C10.6188 23.4648 11.3438 24.0541 11.6749 24.2064C12.1285 22.498 12.5457 21.2068 12.7245 21.2068C13.1019 21.2068 14.8169 22.1901 14.8169 22.5675C14.8169 22.945 13.0026 27.6464 13.0026 28.4907V28.547C14.4428 26.2757 17.4788 21.5677 17.9225 21.5677C18.0914 21.5677 18.3099 21.6074 18.5383 21.6736C18.929 21.0214 19.3329 20.6208 19.7335 20.6208C20.3394 20.6208 21.8459 21.6471 21.8459 22.2961C21.8459 22.7397 19.909 25.2295 18.6774 28.5734C18.9091 28.5105 19.1839 28.4476 19.5084 28.3814C21.1009 25.8751 24.2992 21.3657 24.8091 21.3657C24.9846 21.3657 25.1766 21.4518 25.362 21.5809C25.5871 20.8095 25.8355 20.3129 26.097 20.3129C26.4943 20.3129 28.1233 21.5677 28.1233 22.2961C28.1233 22.796 26.693 25.6864 26.1235 27.7623C26.5175 27.7524 26.9214 27.749 27.3452 27.749C27.4975 27.749 27.8154 28.2556 28.1166 28.8648C28.0802 28.6165 28.0604 28.3649 28.0604 28.1165C28.0604 26.1234 30.2886 21.316 33.2882 21.316C34.0265 21.316 35.523 23.8488 35.523 24.3124C35.523 24.7759 34.9867 25.3553 34.7549 25.3553C34.5232 25.3553 35.3608 24.2395 34.7682 24.2395C33.4306 24.2395 29.7787 25.1434 29.7787 28.8747C29.7787 29.921 30.1197 30.4441 30.4409 30.4441C30.762 30.4441 33.7186 28.878 33.7186 27.5703C33.7186 26.8121 34.245 27.2226 34.6887 27.8815C36.1587 24.3157 38.3935 20.7433 38.7478 20.7433C39.3537 20.7433 40.8469 21.816 40.8469 22.4219C40.8469 22.9053 37.5625 25.9281 36.2216 29.3681C37.6056 28.9906 39.1651 28.6761 40.7244 28.4211C42.1381 24.3256 44.5551 19.8593 45.1775 19.8593C46.2237 19.8593 47.2865 21.6869 47.2865 22.0842C47.2865 22.359 44.6941 24.7527 43.1148 28.0801C46.7038 27.6398 49.7763 27.5769 49.9816 27.9709V27.9808C50.4649 28.9112 48.9751 30.8745 48.5446 31.0963ZM33.8113 26.5836C33.2187 26.6929 32.6558 27.1928 32.6393 28.1463C32.5929 28.2589 32.3579 28.5933 31.7189 29.0635C31.5268 29.2025 31.3315 29.3316 31.1494 29.4442C31.1626 28.2821 31.6328 27.4213 32.5797 26.8121C32.9571 26.5704 33.3445 26.4081 33.6855 26.3022C33.7153 26.3949 33.755 26.4909 33.8113 26.5836Z" fill="white"/>
<path id="Vector_17" d="M24.2993 27.8185C24.3788 27.1133 24.4715 26.3319 24.5841 25.5439C23.9682 26.3021 23.273 27.1431 22.624 27.9377C23.1405 27.8913 23.6967 27.8516 24.2993 27.8185Z" fill="white"/>
<path id="Vector_18" d="M37.0098 7.2349C37.3111 7.2349 37.5528 6.9932 37.5528 6.69191C37.5528 6.39063 37.3111 6.14893 37.0098 6.14893C36.7085 6.14893 36.4668 6.39063 36.4668 6.69191C36.4668 6.9932 36.7085 7.2349 37.0098 7.2349Z" fill="white"/>
<path id="Vector_19" d="M47.5385 41.4888C47.2373 41.4888 46.9956 41.7305 46.9956 42.0318C46.9956 42.3331 47.2373 42.5748 47.5385 42.5748C47.8398 42.5748 48.0815 42.3331 48.0815 42.0318C48.0815 41.7305 47.8398 41.4888 47.5385 41.4888Z" fill="white"/>
<path id="Vector_20" d="M8.6128 41.4888C8.31152 41.4888 8.06982 41.7305 8.06982 42.0318C8.06982 42.3331 8.31152 42.5748 8.6128 42.5748C8.91409 42.5748 9.15579 42.3331 9.15579 42.0318C9.15579 41.7305 8.91409 41.4888 8.6128 41.4888Z" fill="white"/>
<path id="Vector_21" d="M19.0122 7.2349C19.3135 7.2349 19.5552 6.9932 19.5552 6.69191C19.5552 6.39063 19.3135 6.14893 19.0122 6.14893C18.7109 6.14893 18.4692 6.39063 18.4692 6.69191C18.4692 6.9932 18.7109 7.2349 19.0122 7.2349Z" fill="white"/>
<path id="Vector_22" d="M25.8156 40.1846C25.7593 40.125 25.6765 40.0952 25.5739 40.0952C25.4713 40.0952 25.3885 40.125 25.3289 40.1846H25.3256C25.266 40.2442 25.2229 40.3402 25.1965 40.4727C25.17 40.6051 25.1567 40.7905 25.1567 41.0256C25.1567 41.2607 25.17 41.4461 25.1965 41.5818C25.2229 41.7142 25.266 41.8136 25.3256 41.8732C25.3852 41.9328 25.468 41.9626 25.5706 41.9626C25.6732 41.9626 25.7527 41.9328 25.8123 41.8732C25.8719 41.8136 25.9149 41.7176 25.9414 41.5818C25.9679 41.4461 25.9811 41.264 25.9811 41.0256C25.9811 40.7872 25.9679 40.6051 25.9414 40.4727C25.9149 40.3402 25.8719 40.2442 25.8156 40.1846Z" fill="white"/>
</g>
</g>
</g>
</g>
<defs>
<clipPath id="clip0_13_622">
<rect width="55" height="55" fill="white" transform="translate(0.666504 0.9375)"/>
</clipPath>
</defs>
</svg>
