<svg width="141" height="32" viewBox="0 0 141 32" fill="none" xmlns="http://www.w3.org/2000/svg">
<g id="bc-logo-dark 1" clip-path="url(#clip0_54_721)">
<g id="Page-1">
<g id="Style-Guide---Navigation-Elements">
<path id="BG---Logo-Main" fill-rule="evenodd" clip-rule="evenodd" d="M41.1936 18.8578C40.6423 18.1099 39.7048 17.4983 38.5694 17.4983C36.4665 17.4983 34.95 19.1031 34.95 21.277C34.95 23.4517 36.4665 25.0563 38.5694 25.0563C39.5518 25.0563 40.4701 24.6374 40.9504 24.22C40.9827 24.1919 40.9992 24.1515 40.9992 24.1088V22.9296C40.9992 22.8558 40.9393 22.7954 40.8651 22.7954H38.1606C38.053 22.7954 37.9658 22.7081 37.9658 22.6007V20.8509C37.9658 20.7432 38.053 20.6558 38.1606 20.6558H43.0098V18.0587L41.4441 18.9162C41.3608 18.962 41.2501 18.9343 41.1936 18.8578ZM18.4295 20.0865H21.3181C22.1453 20.0865 22.6625 19.6203 22.6625 18.8786C22.6625 18.1708 22.1453 17.6707 21.3181 17.6707H18.4295C18.3304 17.6707 18.2505 17.7511 18.2505 17.85V19.9074C18.2505 20.0062 18.3304 20.0865 18.4295 20.0865ZM30.1734 26.863C30.1734 26.9518 30.1016 27.0234 30.0132 27.0234H27.8866C27.7978 27.0234 27.726 26.9518 27.726 26.863V15.6744C27.726 15.586 27.7978 15.514 27.8866 15.514H30.0132C30.1016 15.514 30.1734 15.586 30.1734 15.6744V26.863ZM42.3986 0.0748221L21.3079 15.514H21.8524C24.0413 15.514 25.1613 16.9113 25.1613 18.447C25.1613 19.6418 24.5377 20.5243 23.7008 20.9144C23.5618 20.9794 23.5668 21.1764 23.7089 21.2345C24.6845 21.6341 25.3857 22.6793 25.3857 23.9C25.3857 25.643 24.248 27.0234 22.0422 27.0234H15.9822C15.8831 27.0234 15.8028 26.9433 15.8028 26.8441V19.5437L0.158045 30.9964C-0.141648 31.2161 0.0131932 31.6916 0.38512 31.6916H42.6257C42.8378 31.6916 43.0099 31.5192 43.0099 31.3069V25.5145C41.8795 26.5698 40.3934 27.2307 38.5691 27.2307C35.1914 27.2307 32.4338 24.9014 32.4338 21.2772C32.4338 17.636 35.1914 15.324 38.5691 15.324C40.6931 15.324 42.1158 16.2874 43.0099 17.4641V0.385239C43.0099 0.0705614 42.6526 -0.110981 42.3986 0.0748221ZM18.4295 24.8662H21.4214C22.3347 24.8662 22.8861 24.3831 22.8861 23.5549C22.8861 22.8305 22.3697 22.2434 21.4214 22.2434H18.4295C18.3304 22.2434 18.2505 22.3239 18.2505 22.4227V24.6871C18.2505 24.7859 18.3304 24.8662 18.4295 24.8662ZM55.2686 24.5171L53.9503 23.8328C53.8654 23.7885 53.7582 23.8209 53.7067 23.9016C53.1492 24.7768 52.1207 25.4266 51.003 25.4266C48.8087 25.4266 47.1796 23.6666 47.1796 21.2677C47.1796 18.8349 48.8087 17.1091 51.003 17.1091C52.1199 17.1091 53.1481 17.7427 53.706 18.6298C53.7578 18.7125 53.8662 18.7444 53.9522 18.6979L55.2605 17.9843C55.36 17.9301 55.395 17.8058 55.3339 17.7096C54.5063 16.4055 53.1358 15.3145 51.003 15.3145C47.7278 15.3145 45.1843 17.7135 45.1843 21.2677C45.1843 24.8053 47.7278 27.2212 51.003 27.2212C53.1335 27.2212 54.4882 26.1013 55.3439 24.7964C55.4088 24.6976 55.3731 24.5714 55.2686 24.5171ZM62.14 25.4266C59.8935 25.4266 58.4622 23.6321 58.4622 21.2678C58.4622 18.8869 59.8935 17.1092 62.14 17.1092C64.3696 17.1092 65.8174 18.8869 65.8174 21.2678C65.8174 23.6321 64.3696 25.4266 62.14 25.4266ZM60.5685 15.5158C58.0968 16.1771 56.4654 18.4045 56.4654 21.2678C56.4654 24.702 58.8119 27.2213 62.14 27.2213C64.974 27.2213 67.1134 25.3759 67.6713 22.6907C68.5799 18.3179 64.7458 14.3987 60.5685 15.5158ZM81.6194 15.5046H79.0966C78.9844 15.5046 78.8837 15.573 78.8426 15.6777L75.7915 23.5751L72.7231 15.6769C72.682 15.573 72.5814 15.5046 72.4692 15.5046H69.946C69.8714 15.5046 69.8107 15.5654 69.8107 15.6401V26.8789C69.8107 26.9535 69.8714 27.0143 69.946 27.0143H71.6923C71.7668 27.0143 71.8275 26.9535 71.8275 26.8789V18.1274L75.3366 26.9531C75.3512 26.99 75.3869 27.0143 75.4265 27.0143H76.1565C76.1961 27.0143 76.2318 26.99 76.2464 26.9531L79.7383 18.1274V26.8789C79.7383 26.9535 79.7986 27.0143 79.8735 27.0143H81.6194C81.6943 27.0143 81.7546 26.9535 81.7546 26.8789V15.6401C81.7546 15.5654 81.6943 15.5046 81.6194 15.5046ZM107.407 15.5046H99.9467C99.8318 15.5046 99.7388 15.5977 99.7388 15.7127V26.8062C99.7388 26.9212 99.8318 27.0143 99.9467 27.0143H107.407C107.522 27.0143 107.615 26.9212 107.615 26.8062V25.4451C107.615 25.3301 107.522 25.2369 107.407 25.2369H101.963C101.849 25.2369 101.756 25.1439 101.756 25.0289V22.2352C101.756 22.1202 101.849 22.027 101.963 22.027H107.287C107.402 22.027 107.495 21.9336 107.495 21.819V20.4579C107.495 20.3429 107.402 20.2498 107.287 20.2498H101.963C101.849 20.2498 101.756 20.1568 101.756 20.0418V17.4901C101.756 17.375 101.849 17.2819 101.963 17.2819H107.407C107.522 17.2819 107.615 17.1884 107.615 17.0738V15.7127C107.615 15.5977 107.522 15.5046 107.407 15.5046ZM115.273 20.9401H112.704C112.59 20.9401 112.498 20.8478 112.498 20.7339V17.4878C112.498 17.374 112.59 17.2817 112.704 17.2817H115.273C116.41 17.2817 117.237 17.9895 117.237 19.094C117.237 20.2153 116.41 20.9401 115.273 20.9401ZM116.855 22.4334C118.142 22.1087 119.305 21.0055 119.305 19.1109C119.305 16.9712 117.806 15.5048 115.531 15.5048H110.687C110.573 15.5048 110.481 15.5971 110.481 15.711V26.8079C110.481 26.9218 110.573 27.0144 110.687 27.0144H112.292C112.405 27.0144 112.498 26.9218 112.498 26.8079V22.9235C112.498 22.8097 112.59 22.7174 112.704 22.7174H114.397C114.47 22.7174 114.537 22.7559 114.574 22.8186L116.988 26.9128C117.025 26.9755 117.092 27.0144 117.165 27.0144H119.02C119.181 27.0144 119.281 26.837 119.195 26.6997C118.663 25.8484 117.202 23.511 116.721 22.742C116.644 22.6205 116.716 22.4684 116.855 22.4334ZM135.143 17.2817H140.598C140.709 17.2817 140.8 17.1909 140.8 17.0786V15.7076C140.8 15.5957 140.709 15.5045 140.598 15.5045H133.126C133.015 15.5045 132.923 15.5957 132.923 15.7076V26.811C132.923 26.9234 133.015 27.0141 133.126 27.0141H140.598C140.709 27.0141 140.8 26.9234 140.8 26.811V25.4399C140.8 25.328 140.709 25.2372 140.598 25.2372H135.143C135.031 25.2372 134.94 25.146 134.94 25.0341V22.2302C134.94 22.1178 135.031 22.027 135.143 22.027H140.477C140.589 22.027 140.68 21.9362 140.68 21.8239V20.4528C140.68 20.3409 140.589 20.2497 140.477 20.2497H135.143C135.031 20.2497 134.94 20.1589 134.94 20.0466V17.4848C134.94 17.3725 135.031 17.2817 135.143 17.2817ZM130.866 24.4694L129.548 23.785C129.463 23.7407 129.356 23.7731 129.304 23.8539C128.747 24.729 127.718 25.3787 126.6 25.3787C124.406 25.3787 122.777 23.6188 122.777 21.2199C122.777 18.7871 124.406 17.0613 126.6 17.0613C127.717 17.0613 128.745 17.6949 129.303 18.582C129.355 18.6647 129.464 18.6966 129.55 18.6501L130.858 17.9364C130.957 17.8822 130.992 17.7576 130.931 17.6618C130.104 16.3577 128.733 15.2666 126.6 15.2666C123.325 15.2666 120.782 17.6657 120.782 21.2199C120.782 24.7575 123.325 27.1734 126.6 27.1734C128.73 27.1734 130.086 26.0535 130.941 24.7487C131.006 24.6498 130.97 24.5236 130.866 24.4694ZM96.5083 15.5046H93.9855C93.8733 15.5046 93.7726 15.573 93.7315 15.6777L90.6804 23.5751L87.612 15.6769C87.5709 15.573 87.4702 15.5046 87.358 15.5046H84.8348C84.7603 15.5046 84.6996 15.5654 84.6996 15.6401V26.8789C84.6996 26.9535 84.7603 27.0143 84.8348 27.0143H86.5811C86.6557 27.0143 86.7164 26.9535 86.7164 26.8789V18.1274L90.2255 26.9531C90.2401 26.99 90.2758 27.0143 90.3154 27.0143H91.0454C91.085 27.0143 91.1207 26.99 91.1353 26.9531L94.6271 18.1274V26.8789C94.6271 26.9535 94.6874 27.0143 94.7624 27.0143H96.5083C96.5832 27.0143 96.6435 26.9535 96.6435 26.8789V15.6401C96.6435 15.5654 96.5832 15.5046 96.5083 15.5046Z" fill="#34313F"/>
</g>
</g>
</g>
<defs>
<clipPath id="clip0_54_721">
<rect width="140.8" height="32" fill="white"/>
</clipPath>
</defs>
</svg>
