<svg width="74" height="15" viewBox="0 0 74 15" fill="none" xmlns="http://www.w3.org/2000/svg">
<g id="national-retail-federation-white 1" clip-path="url(#clip0_13_674)">
<path id="Vector" d="M54.2948 0.302246H53.4014V1.02493H54.2948V0.302246Z" fill="white"/>
<path id="Vector_2" d="M54.2716 1.34033H53.4229V4.21007H54.2716V1.34033Z" fill="white"/>
<path id="Vector_3" d="M44.2719 0.462402H43.48V4.21011H44.3279V1.82803L46.2197 4.21011H46.9513V0.462402H46.1025V2.76978L44.2719 0.462402Z" fill="white"/>
<path id="Vector_4" fill-rule="evenodd" clip-rule="evenodd" d="M47.6294 3.37508V3.38599C47.6294 3.95339 48.0923 4.26395 48.6567 4.26395C49.0697 4.26395 49.3541 4.11875 49.5607 3.89968V4.21023H50.3814V2.54496C50.3814 2.1597 50.2808 1.84326 50.0577 1.62923C49.8459 1.42611 49.5108 1.30859 49.0478 1.30859C48.5395 1.30859 48.2157 1.39925 47.8867 1.53858L48.0985 2.1597C48.3723 2.06317 48.6007 2.00442 48.9245 2.00442C49.3489 2.00442 49.5667 2.19159 49.5667 2.52901V2.57686C49.3541 2.50803 49.1363 2.45935 48.8352 2.45935C48.1265 2.45935 47.6294 2.74892 47.6294 3.37508ZM49.5773 3.05445V3.19882C49.5773 3.49259 49.3095 3.70159 48.9131 3.70327C48.6392 3.70327 48.4494 3.57484 48.4494 3.35494V3.34403C48.4494 3.08718 48.6725 2.94785 49.0356 2.94785C49.2421 2.94785 49.432 2.99066 49.5773 3.05445Z" fill="white"/>
<path id="Vector_5" d="M51.2145 3.39707V2.03733H50.8574V1.3415H51.2145V0.60791H52.0632V1.3415H52.7668V2.03733H52.0632V3.26362C52.0632 3.45079 52.1473 3.54228 52.3371 3.54228C52.4938 3.54228 52.6329 3.50451 52.7554 3.44072V4.09374C52.5769 4.1953 52.3704 4.25993 52.086 4.25993C51.5662 4.25909 51.2145 4.061 51.2145 3.39707Z" fill="white"/>
<path id="Vector_6" fill-rule="evenodd" clip-rule="evenodd" d="M54.8711 2.79158V2.78067C54.8711 1.95643 55.5632 1.28662 56.4952 1.28662C57.4216 1.28662 58.1077 1.94551 58.1077 2.76976V2.78067C58.1077 3.60491 57.4156 4.27387 56.4836 4.27387C55.5571 4.27471 54.8711 3.61583 54.8711 2.79158ZM57.2707 2.79158V2.78067C57.2707 2.35764 56.9518 1.98832 56.4836 1.98832C55.9984 1.98832 55.7075 2.34672 55.7075 2.76976V2.78067C55.7075 3.20371 56.0264 3.57302 56.4941 3.57302C56.9809 3.57302 57.2707 3.21462 57.2707 2.79158Z" fill="white"/>
<path id="Vector_7" d="M59.5562 1.34034H58.7065V4.21008H59.5551V2.60944C59.5551 2.22418 59.7615 2.02609 60.0853 2.02609C60.4091 2.02609 60.5991 2.22418 60.5991 2.60944V4.20924H61.4482V2.35176C61.4482 1.69371 61.0733 1.28662 60.4322 1.28662C60.0024 1.28662 59.751 1.50653 59.5562 1.74743V1.34034Z" fill="white"/>
<path id="Vector_8" fill-rule="evenodd" clip-rule="evenodd" d="M61.9961 3.38599V3.37508C61.9961 2.74892 62.4928 2.45935 63.202 2.45935C63.5027 2.45935 63.7206 2.50803 63.9331 2.57686V2.52901C63.9331 2.19159 63.7152 2.00442 63.2909 2.00442C62.967 2.00442 62.7387 2.06317 62.4648 2.1597L62.253 1.53858C62.5823 1.39925 62.9061 1.30859 63.4144 1.30859C63.8771 1.30859 64.2124 1.42611 64.4243 1.62923C64.6471 1.84326 64.7481 2.1597 64.7481 2.54496V4.21023H63.927V3.89968C63.7206 4.11875 63.4363 4.26395 63.023 4.26395C62.4588 4.26395 61.9961 3.95339 61.9961 3.38599ZM63.9435 3.19882V3.05445C63.7986 2.99066 63.6087 2.94785 63.4023 2.94785C63.0389 2.94785 62.8156 3.08718 62.8156 3.34403V3.35494C62.8156 3.57484 63.0055 3.70327 63.2794 3.70327C63.6762 3.70159 63.9435 3.49259 63.9435 3.19882Z" fill="white"/>
<path id="Vector_9" d="M66.3554 0.302246H65.5068V4.21027H66.3554V0.302246Z" fill="white"/>
<path id="Vector_10" fill-rule="evenodd" clip-rule="evenodd" d="M43.479 5.61182H45.265C45.762 5.61182 46.147 5.74527 46.4034 5.99204C46.6213 6.20105 46.7385 6.49568 46.7385 6.84905V6.85991C46.7385 7.4651 46.3981 7.84448 45.9011 8.0216L46.8558 9.36036H45.8512L45.0138 8.1609H44.3383V9.36036H43.479V5.61182ZM45.2089 7.43239C45.6272 7.43239 45.8679 7.21833 45.8679 6.9019V6.89098C45.8679 6.53762 45.6115 6.3555 45.1924 6.3555H44.3383V7.43151H45.2089V7.43239Z" fill="white"/>
<path id="Vector_11" fill-rule="evenodd" clip-rule="evenodd" d="M47.2153 7.93012V7.94099C47.2153 8.81896 47.8786 9.42415 48.7781 9.42333C49.3198 9.42333 49.7214 9.22019 50.0006 8.88779L49.5149 8.4757C49.2804 8.68465 49.0739 8.77028 48.7895 8.77028C48.4097 8.77028 48.142 8.57724 48.058 8.2079H50.1397L50.142 8.17667C50.1466 8.11257 50.1511 8.0495 50.1511 7.9939C50.1511 7.18058 49.6934 6.43604 48.6942 6.43604C47.8235 6.43604 47.2153 7.11087 47.2153 7.93012ZM48.6942 7.08991C49.0511 7.08991 49.2752 7.33586 49.325 7.70009H48.0466C48.114 7.33081 48.3424 7.08991 48.6942 7.08991Z" fill="white"/>
<path id="Vector_12" d="M50.8619 8.54647V7.18675H50.5049V6.49089H50.8619V5.75732H51.7107V6.49089H52.4142V7.18675H51.7107V8.41304C51.7107 8.60021 51.7947 8.6917 51.9846 8.6917C52.1412 8.6917 52.2804 8.65394 52.4029 8.59016V9.24316C52.2244 9.3447 52.0179 9.40935 51.7335 9.40935C51.2137 9.40853 50.8619 9.21044 50.8619 8.54647Z" fill="white"/>
<path id="Vector_13" fill-rule="evenodd" clip-rule="evenodd" d="M52.8394 8.52451V8.53543C52.8394 9.10286 53.3032 9.41341 53.8667 9.41341C54.2797 9.41341 54.5641 9.26818 54.7706 9.04912V9.35968H55.5912V7.6944C55.5912 7.30914 55.4908 6.99272 55.2674 6.77866C55.0559 6.57552 54.7207 6.45801 54.2578 6.45801C53.7494 6.45801 53.4256 6.54868 53.0966 6.68804L53.3084 7.30914C53.5823 7.2126 53.8106 7.15387 54.1344 7.15387C54.5588 7.15387 54.7767 7.34103 54.7767 7.67843V7.72629C54.5641 7.65746 54.3462 7.60877 54.0452 7.60877C53.3364 7.60877 52.8394 7.89836 52.8394 8.52451ZM54.7872 8.20386V8.34827C54.7872 8.64285 54.5195 8.85104 54.1231 8.85268C53.8492 8.85268 53.6593 8.7243 53.6593 8.50437V8.49345C53.6593 8.23663 53.8824 8.09727 54.2456 8.09727C54.452 8.09727 54.642 8.14008 54.7872 8.20386Z" fill="white"/>
<path id="Vector_14" d="M56.3174 5.45166H57.2109V6.17434H56.3174V5.45166Z" fill="white"/>
<path id="Vector_15" d="M56.3394 6.48975H57.1885V9.35947H56.3394V6.48975Z" fill="white"/>
<path id="Vector_16" d="M58.8301 5.45166H57.981V9.35966H58.8301V5.45166Z" fill="white"/>
<path id="Vector_17" d="M43.479 10.7622H46.4542V11.5117H44.3383V12.3091H46.2021V13.0587H44.3383V14.5091H43.479V10.7622Z" fill="white"/>
<path id="Vector_18" fill-rule="evenodd" clip-rule="evenodd" d="M46.7754 13.0795V13.0904C46.7754 13.9692 47.4395 14.5735 48.3382 14.5727C48.8799 14.5727 49.2815 14.3695 49.5606 14.0372L49.075 13.6251C48.8405 13.8341 48.634 13.9197 48.3496 13.9197C47.9698 13.9197 47.7021 13.7266 47.618 13.3573H49.6998C49.7005 13.3469 49.7013 13.3365 49.702 13.326C49.7066 13.2619 49.7111 13.1989 49.7111 13.1433C49.7111 12.3299 49.2535 11.5854 48.2542 11.5854C47.3835 11.5854 46.7754 12.2603 46.7754 13.0795ZM48.2542 12.2393C48.6112 12.2393 48.8353 12.4852 48.8851 12.8495H47.6067C47.6741 12.4802 47.9024 12.2393 48.2542 12.2393Z" fill="white"/>
<path id="Vector_19" fill-rule="evenodd" clip-rule="evenodd" d="M50.1812 13.0805V13.0696C50.1812 12.1111 50.834 11.5865 51.5427 11.5865C51.9951 11.5865 52.2743 11.7846 52.4747 12.0145V10.6011H53.3234V14.5091H52.4747V14.097C52.2682 14.3647 51.9838 14.5628 51.5427 14.5628C50.8453 14.5628 50.1812 14.0382 50.1812 13.0805ZM52.486 13.0805V13.0696C52.486 12.5928 52.157 12.2773 51.7606 12.2773C51.3642 12.2773 51.0291 12.5878 51.0291 13.0696V13.0805C51.0291 13.5572 51.3642 13.8728 51.7606 13.8728C52.157 13.8728 52.486 13.5564 52.486 13.0805Z" fill="white"/>
<path id="Vector_20" fill-rule="evenodd" clip-rule="evenodd" d="M53.9331 13.0795V13.0904C53.9331 13.9692 54.5964 14.5735 55.4957 14.5727C56.0374 14.5727 56.4392 14.3695 56.7186 14.0372L56.2328 13.6251C55.9985 13.8341 55.7915 13.9197 55.5072 13.9197C55.1276 13.9197 54.8598 13.7266 54.7758 13.3573H56.8574C56.858 13.3469 56.8591 13.3365 56.8596 13.326C56.8646 13.2619 56.869 13.1989 56.869 13.1433C56.869 12.3299 56.4112 11.5854 55.4117 11.5854C54.5413 11.5854 53.9331 12.2603 53.9331 13.0795ZM55.4112 12.2393C55.7679 12.2393 55.9919 12.4852 56.0418 12.8495H54.7635C54.8309 12.4802 55.0593 12.2393 55.4112 12.2393Z" fill="white"/>
<path id="Vector_21" d="M57.4761 11.6403H58.3252V12.2187C58.4981 11.8225 58.7775 11.5656 59.2797 11.5866V12.4377H59.2352C58.6715 12.4377 58.3252 12.7643 58.3252 13.4491V14.5093H57.4761V11.6403Z" fill="white"/>
<path id="Vector_22" fill-rule="evenodd" clip-rule="evenodd" d="M59.5142 13.6739V13.6848C59.5142 14.253 59.9774 14.5628 60.5416 14.5628C60.955 14.5628 61.2393 14.4176 61.4456 14.1985V14.509H62.2662V12.8438C62.2662 12.4585 62.1658 12.1421 61.9424 11.9281C61.7311 11.7249 61.3957 11.6074 60.933 11.6074C60.4242 11.6074 60.1009 11.698 59.7716 11.8374L59.9834 12.4585C60.2573 12.362 60.4857 12.3032 60.8095 12.3032C61.2338 12.3032 61.4517 12.4904 61.4517 12.8278V12.8757C61.2393 12.8069 61.0214 12.7582 60.72 12.7582C60.0114 12.7582 59.5142 13.0477 59.5142 13.6739ZM61.4621 13.3533V13.4976C61.4621 13.7923 61.1943 14.0013 60.798 14.0021C60.5241 14.0021 60.3342 13.8737 60.3342 13.6538V13.6429C60.3342 13.386 60.5576 13.2467 60.9204 13.2467C61.1273 13.2467 61.3172 13.2895 61.4621 13.3533Z" fill="white"/>
<path id="Vector_23" d="M63.098 13.6959V12.3361H62.7412V11.6403H63.098V10.9067H63.9471V11.6403H64.6507V12.3361H63.9471V13.5625C63.9471 13.7496 64.0311 13.8411 64.221 13.8411C64.3774 13.8411 64.5168 13.8033 64.6392 13.7395V14.3926C64.4608 14.4941 64.2539 14.5587 63.9696 14.5587C63.4498 14.5579 63.098 14.3598 63.098 13.6959Z" fill="white"/>
<path id="Vector_24" d="M66.1782 10.6011H65.2847V11.3237H66.1782V10.6011Z" fill="white"/>
<path id="Vector_25" d="M66.1557 11.6401H65.3066V14.5099H66.1557V11.6401Z" fill="white"/>
<path id="Vector_26" fill-rule="evenodd" clip-rule="evenodd" d="M66.7554 13.0904V13.0795C66.7554 12.2552 67.4475 11.5854 68.3795 11.5854C69.306 11.5854 69.9921 12.2443 69.9921 13.0686V13.0795C69.9921 13.9037 69.2999 14.5727 68.368 14.5727C67.4415 14.5735 66.7554 13.9155 66.7554 13.0904ZM69.1556 13.0904V13.0795C69.1556 12.6565 68.8372 12.2871 68.3691 12.2871C67.8833 12.2871 67.593 12.6455 67.593 13.0686V13.0795C67.593 13.5025 67.9113 13.8718 68.3795 13.8718C68.8652 13.8727 69.1556 13.5134 69.1556 13.0904Z" fill="white"/>
<path id="Vector_27" d="M71.441 11.6401H70.5913V14.5099H71.4404V12.9092C71.4404 12.524 71.6468 12.3259 71.9706 12.3259C72.2945 12.3259 72.4844 12.524 72.4844 12.9092V14.509H73.3329V12.6516C73.3329 11.9935 72.9586 11.5864 72.317 11.5864C71.8872 11.5864 71.6364 11.8063 71.441 12.0472V11.6401Z" fill="white"/>
<path id="Vector_28" d="M9.2209 7.90011C6.97985 4.25397 4.61199 0.460938 4.61199 0.460938H0.333008V14.526H4.3731V6.81817L8.98197 14.5268C8.98197 14.5268 9.07473 14.526 9.2209 14.5243V14.5268H13.261V0.460938H9.2209V7.90011Z" fill="white"/>
<path id="Vector_29" d="M40.4819 0.460938V3.72266H33.2925V6.59659H38.8701V9.85832H33.2925V14.5268H29.2524V0.460938H40.4819Z" fill="white"/>
<path id="Vector_30" d="M28.3234 14.5292L24.9789 9.4578C25.0778 9.3982 25.8723 8.67972 26.3869 8.1073C27.093 7.32165 27.801 6.33373 27.864 4.90601C27.9681 2.54827 26.2565 0.374347 22.4212 0.444013H15.0664V14.509H19.1065V3.68895H22.1079C23.3925 3.68895 23.9394 4.12961 23.9394 4.88334C23.9394 5.28455 23.7749 5.81587 22.1867 7.33592C21.5846 7.91256 20.2397 9.1422 20.2397 9.1422L20.2344 9.14725L23.8108 14.5283L28.3234 14.5292Z" fill="white"/>
<path id="Vector_31" fill-rule="evenodd" clip-rule="evenodd" d="M34.7128 13.2056H34.2954V14.1054H34.5028V13.8158H34.6664L34.866 14.1054H35.1075L34.8782 13.783C34.9972 13.7411 35.0804 13.6504 35.0804 13.5053V13.5002C35.0804 13.4205 35.0541 13.3524 35.0025 13.3038C34.9368 13.2408 34.8397 13.2056 34.7128 13.2056ZM34.8712 13.517C34.8712 13.5917 34.8152 13.6454 34.7102 13.6454H34.5037V13.381H34.7059C34.8082 13.381 34.8712 13.4255 34.8712 13.5119V13.517Z" fill="white"/>
<path id="Vector_32" fill-rule="evenodd" clip-rule="evenodd" d="M33.7773 13.68V13.6851C33.7773 14.1459 34.1624 14.5269 34.6568 14.5269C35.1512 14.5269 35.5415 14.1417 35.5415 13.6809V13.6758C35.5415 13.215 35.1564 12.834 34.662 12.834C34.1676 12.834 33.7773 13.2192 33.7773 13.68ZM35.4391 13.6758V13.6809C35.4391 14.0947 35.1031 14.4338 34.6577 14.4338C34.214 14.4338 33.8798 14.0997 33.8798 13.6859V13.6809C33.8798 13.2671 34.2158 12.928 34.662 12.928C35.1057 12.928 35.4391 13.262 35.4391 13.6758Z" fill="white"/>
</g>
<defs>
<clipPath id="clip0_13_674">
<rect width="73" height="14.2707" fill="white" transform="translate(0.333008 0.302246)"/>
</clipPath>
</defs>
</svg>
