<svg width="115" height="137" viewBox="0 0 115 137" fill="none" xmlns="http://www.w3.org/2000/svg">
<g id="Frame" clip-path="url(#clip0_46_2553)">
<g id="Group">
<g id="Group_2">
<path id="Vector" d="M58.35 0L5.58001 14.64C-5.73999 60.49 -1.25999 109.18 32.13 130.88C73.88 110.85 97.75 62.78 104.82 16.84L58.35 0Z" fill="url(#paint0_linear_46_2553)"/>
<path id="Vector_2" d="M108.96 48.4001C109.07 48.0401 109.17 47.6801 109.27 47.3301C109.55 46.3701 109.82 45.4201 110.08 44.4601C110.2 44.0201 110.32 43.5801 110.44 43.1401C110.54 42.7701 110.64 42.4001 110.74 42.0401C110.83 41.6801 110.91 41.3301 111 40.9701C111.24 40.0301 111.47 39.0901 111.69 38.1401C111.84 37.5101 111.99 36.8901 112.13 36.2601C112.35 35.3001 112.56 34.3301 112.76 33.3701C112.89 32.7701 113.02 32.1801 113.14 31.5801C113.35 30.5301 113.55 29.4801 113.75 28.4301C113.84 27.9201 113.94 27.4201 114.04 26.9101C114.32 25.3601 114.58 23.8101 114.82 22.2601L104.84 16.8301C104.6 18.3801 104.34 19.9301 104.06 21.4801C103.97 21.9901 103.87 22.4901 103.77 23.0001C103.57 24.0501 103.38 25.1001 103.16 26.1501C103.04 26.7501 102.91 27.3401 102.78 27.9401C102.58 28.9001 102.37 29.8701 102.15 30.8301C102.01 31.4601 101.86 32.0801 101.71 32.7101C101.49 33.6501 101.25 34.6001 101.02 35.5401C100.84 36.2701 100.65 36.9901 100.46 37.7201C100.34 38.1601 100.22 38.6001 100.1 39.0401C99.84 40.0001 99.57 40.9601 99.29 41.9101C99.19 42.2701 99.09 42.6301 98.98 42.9801C98.6 44.2801 98.2 45.5701 97.79 46.8601C97.72 47.0801 97.64 47.3101 97.57 47.5301C97.25 48.5401 96.91 49.5401 96.57 50.5501C96.08 51.9901 95.57 53.4201 95.05 54.8501C94.99 55.0201 94.93 55.1901 94.87 55.3601C94.28 56.9501 93.67 58.5301 93.04 60.1001C92.8 60.7101 92.54 61.3101 92.29 61.9201C91.96 62.7201 91.63 63.5201 91.29 64.3101C91.02 64.9401 90.74 65.5601 90.46 66.1901C90.12 66.9601 89.77 67.7401 89.41 68.5101C89.08 69.2301 88.73 69.9501 88.39 70.6601C88.12 71.2201 87.85 71.7901 87.58 72.3501C87.21 73.1001 86.83 73.8401 86.45 74.5901C86.18 75.1301 85.91 75.6601 85.63 76.2001C85.08 77.2501 84.51 78.3001 83.94 79.3301C83.85 79.4901 83.77 79.6501 83.68 79.8101C83.01 81.0101 82.32 82.2001 81.62 83.3801C81.45 83.6701 81.27 83.9501 81.1 84.2401C80.58 85.1101 80.05 85.9701 79.51 86.8301C79.27 87.2001 79.04 87.5801 78.8 87.9501C78.26 88.7901 77.71 89.6301 77.15 90.4601C76.97 90.7301 76.79 91.0001 76.61 91.2701C75.89 92.3301 75.16 93.3701 74.41 94.4001C73.34 95.8801 72.25 97.3301 71.13 98.7601C70.83 99.1401 70.53 99.5101 70.23 99.8901C69.37 100.97 68.49 102.03 67.59 103.07C67.19 103.53 66.8 104 66.4 104.46C66.18 104.72 65.95 104.97 65.72 105.22C64.95 106.08 64.17 106.93 63.38 107.77C63.28 107.87 63.19 107.98 63.09 108.09C62.21 109.01 61.32 109.92 60.41 110.81C60.17 111.04 59.93 111.27 59.7 111.5C58.96 112.21 58.22 112.92 57.46 113.61C57.23 113.82 57.01 114.03 56.79 114.23C55.85 115.08 54.89 115.92 53.93 116.73C53.69 116.93 53.44 117.13 53.2 117.33C52.44 117.96 51.66 118.59 50.88 119.2C50.55 119.46 50.21 119.72 49.87 119.98C49.19 120.5 48.5 121.01 47.8 121.52C47.36 121.84 46.93 122.16 46.49 122.47C45.79 122.97 45.07 123.45 44.36 123.92C43.95 124.2 43.54 124.48 43.12 124.75C42.63 125.07 42.12 125.37 41.63 125.68C40.82 126.18 40.01 126.68 39.19 127.16C38.65 127.47 38.11 127.77 37.57 128.08C36.78 128.52 35.99 128.96 35.18 129.38C34.18 129.9 33.18 130.43 32.15 130.92L42.13 136.35C42.91 135.98 43.69 135.59 44.45 135.2C44.69 135.08 44.92 134.94 45.15 134.82C45.95 134.4 46.75 133.96 47.53 133.52C48.07 133.22 48.62 132.92 49.15 132.6C49.97 132.12 50.78 131.62 51.59 131.12C51.97 130.88 52.36 130.66 52.73 130.42C52.85 130.34 52.96 130.26 53.08 130.19C53.5 129.92 53.91 129.64 54.32 129.36C55.04 128.88 55.75 128.4 56.45 127.91C56.89 127.6 57.33 127.28 57.76 126.96C58.15 126.68 58.54 126.4 58.93 126.12C59.23 125.89 59.53 125.66 59.82 125.43C60.16 125.17 60.5 124.91 60.83 124.65C61.61 124.04 62.38 123.41 63.15 122.78C63.39 122.58 63.64 122.38 63.88 122.18C63.96 122.12 64.04 122.05 64.11 121.99C65 121.24 65.87 120.46 66.74 119.68C66.97 119.48 67.19 119.27 67.41 119.06C67.84 118.66 68.28 118.27 68.71 117.86C69.03 117.56 69.33 117.25 69.65 116.95C69.89 116.72 70.13 116.49 70.37 116.25C71.24 115.39 72.11 114.52 72.96 113.63C72.99 113.6 73.02 113.56 73.05 113.53C73.15 113.43 73.25 113.32 73.34 113.21C74.13 112.37 74.91 111.52 75.68 110.66C75.91 110.41 76.13 110.15 76.36 109.9C76.56 109.68 76.76 109.46 76.95 109.23C77.15 108.99 77.35 108.74 77.55 108.51C78.44 107.46 79.32 106.4 80.18 105.33C80.37 105.09 80.58 104.86 80.77 104.62C80.88 104.48 80.98 104.34 81.08 104.21C82.2 102.78 83.3 101.33 84.36 99.8501C84.4 99.8001 84.44 99.7501 84.47 99.7001C85.18 98.7201 85.87 97.7201 86.55 96.7201C86.73 96.4501 86.91 96.1701 87.1 95.9001C87.44 95.4001 87.78 94.8901 88.11 94.3901C88.32 94.0601 88.53 93.7301 88.74 93.4001C88.98 93.0301 89.22 92.6601 89.45 92.2801C89.99 91.4201 90.52 90.5601 91.04 89.6901C91.21 89.4001 91.39 89.1201 91.56 88.8301C91.62 88.7401 91.67 88.6501 91.73 88.5501C92.37 87.4601 93 86.3601 93.62 85.2501C93.71 85.0901 93.79 84.9301 93.88 84.7701C94.38 83.8601 94.89 82.9501 95.37 82.0301C95.44 81.9001 95.5 81.7701 95.57 81.6401C95.85 81.1101 96.12 80.5701 96.4 80.0301C96.78 79.2901 97.16 78.5501 97.53 77.8001C97.81 77.2401 98.07 76.6801 98.34 76.1101C98.58 75.6001 98.83 75.1001 99.07 74.5901C99.17 74.3801 99.26 74.1701 99.36 73.9601C99.72 73.1901 100.06 72.4201 100.41 71.6401C100.69 71.0101 100.97 70.3901 101.24 69.7601C101.58 68.9701 101.91 68.1701 102.24 67.3701C102.44 66.8901 102.65 66.4201 102.84 65.9401C102.89 65.8101 102.94 65.6901 102.99 65.5601C103.62 63.9901 104.24 62.4101 104.82 60.8201C104.88 60.6501 104.94 60.4801 105 60.3101C105.52 58.8801 106.03 57.4501 106.52 56.0101C106.58 55.8501 106.64 55.6801 106.69 55.5201C106.97 54.6801 107.24 53.8401 107.52 52.9901C107.59 52.7701 107.67 52.5401 107.74 52.3201C108.19 51.0001 108.58 49.7001 108.96 48.4001Z" fill="url(#paint1_linear_46_2553)"/>
<path id="Vector_3" d="M56.8 7.75977L10.6 20.5798C6.00997 41.6498 5.27997 61.6898 8.49997 78.8098C12.17 98.3198 20.68 113 33.81 122.5C50.61 113.66 64.9 99.4798 76.33 80.2998C86.36 63.4598 93.62 43.5798 97.48 22.4798L56.8 7.75977Z" fill="url(#paint2_linear_46_2553)"/>
<path id="Vector_4" d="M72.42 14.3799C62.72 34.8499 51.7 54.7999 37.55 72.5499C30.6 81.2599 22.98 89.3499 14.85 96.8999C19.28 107.13 25.63 115.36 33.87 121.45C50.31 112.67 64.33 98.6799 75.54 79.8499C85.35 63.3799 92.57 43.7599 96.44 23.0799L72.42 14.3799Z" fill="url(#paint3_linear_46_2553)"/>
<g id="Group_3">
<path id="Vector_5" d="M66.15 41.5798L71.3 49.6698L37.3 81.4398L36.06 80.6798L30.58 51.2098L31.82 51.9698L40.48 65.5598L64.91 40.8198L66.15 41.5798Z" fill="url(#paint4_linear_46_2553)"/>
</g>
<g id="Group_4">
<path id="Vector_6" d="M64.91 40.8198L70.06 48.8998L36.06 80.6798L22.25 58.9998L30.58 51.2098L39.24 64.7998L64.91 40.8198Z" fill="url(#paint5_linear_46_2553)"/>
</g>
</g>
</g>
</g>
<defs>
<linearGradient id="paint0_linear_46_2553" x1="1.36017e-05" y1="65.4366" x2="104.825" y2="65.4366" gradientUnits="userSpaceOnUse">
<stop offset="0.00450562" stop-color="#A1F9FF"/>
<stop offset="0.999" stop-color="#00EEFF"/>
</linearGradient>
<linearGradient id="paint1_linear_46_2553" x1="93.3559" y1="20.7407" x2="54.5465" y2="138.247" gradientUnits="userSpaceOnUse">
<stop offset="0.00301753" stop-color="#0079A4"/>
<stop offset="0.999" stop-color="#00EEFF"/>
</linearGradient>
<linearGradient id="paint2_linear_46_2553" x1="76.0363" y1="93.3407" x2="32.8216" y2="23.5724" gradientUnits="userSpaceOnUse">
<stop offset="0.00450562" stop-color="#A1F9FF"/>
<stop offset="1" stop-color="white"/>
</linearGradient>
<linearGradient id="paint3_linear_46_2553" x1="78.3392" y1="91.8414" x2="56.7319" y2="62.9448" gradientUnits="userSpaceOnUse">
<stop offset="0.00450562" stop-color="#A1F9FF"/>
<stop offset="1" stop-color="white"/>
</linearGradient>
<linearGradient id="paint4_linear_46_2553" x1="44.1671" y1="52.3635" x2="65.4752" y2="79.2892" gradientUnits="userSpaceOnUse">
<stop offset="0.00301753" stop-color="#0079A4"/>
<stop offset="0.999" stop-color="#00EEFF"/>
</linearGradient>
<linearGradient id="paint5_linear_46_2553" x1="22.245" y1="60.7477" x2="70.0617" y2="60.7477" gradientUnits="userSpaceOnUse">
<stop offset="0.00450562" stop-color="#A1F9FF"/>
<stop offset="0.999" stop-color="#00EEFF"/>
</linearGradient>
<clipPath id="clip0_46_2553">
<rect width="114.8" height="136.31" fill="white"/>
</clipPath>
</defs>
</svg>
