<svg width="91" height="24" viewBox="0 0 91 24" fill="none" xmlns="http://www.w3.org/2000/svg">
<g id="Ted-Baker-White" clip-path="url(#clip0_148_433)">
<g id="Page-1">
<g id="Merchants">
<path id="Ted-Baker-White_2" fill-rule="evenodd" clip-rule="evenodd" d="M23.7248 23.101H25.6169V22.5831H24.3073V19.4744H23.7248V23.101ZM32.8216 21.3252C32.8157 20.7969 32.6066 20.292 32.2392 19.9186C31.8755 19.6224 31.4384 19.4011 30.9289 19.4011C30.4195 19.4011 29.91 19.6224 29.5459 19.9186C29.1788 20.2922 28.9699 20.7971 28.9639 21.3252C28.9639 21.8428 29.1822 22.287 29.5459 22.6578C29.9095 23.0276 30.4195 23.25 30.9289 23.25C31.4384 23.25 31.875 23.0276 32.2392 22.6578C32.6033 22.287 32.8216 21.8428 32.8216 21.3252ZM32.2392 21.3252C32.2392 21.695 32.0938 21.9907 31.8026 22.2869C31.5735 22.5264 31.2581 22.6602 30.9295 22.6571C30.5659 22.6571 30.2017 22.5094 29.9835 22.2869C29.7652 21.9907 29.6198 21.6944 29.6198 21.3252C29.6198 20.9549 29.7652 20.5853 29.9835 20.3628C30.2017 20.0666 30.5659 19.9186 30.9295 19.9186C31.2936 19.9186 31.5843 20.0666 31.8026 20.3628C32.0938 20.5853 32.2392 20.9543 32.2392 21.3252ZM36.6786 23.101H37.261V20.5847C37.334 20.7325 37.4793 20.8808 37.6252 21.0286L39.9538 23.2489V19.4744H39.3714V21.9906C39.2985 21.8428 39.1531 21.6946 39.0078 21.5468L36.6791 19.3264L36.6786 23.101ZM43.9557 23.101H44.7569C45.4112 23.101 45.9212 23.1748 46.3578 22.8051C46.7943 22.4347 47.0121 21.9902 47.0121 21.3248C47.0121 20.6584 46.7943 20.1408 46.3578 19.8446C45.9212 19.4743 45.4112 19.4744 44.7569 19.4744H43.9557V23.101ZM44.5381 22.5831V19.9933H44.7574C45.2664 19.9933 45.703 19.9934 45.9942 20.2148C46.2854 20.511 46.4307 20.8071 46.4307 21.3252C46.4307 21.7692 46.2854 22.1391 45.9942 22.3616C45.703 22.6577 45.2664 22.5831 44.7574 22.5831H44.5381ZM54.5809 21.3252C54.5809 20.8065 54.3631 20.2889 53.9984 19.9186C53.6343 19.6224 53.1983 19.4011 52.6883 19.4011C52.1059 19.4011 51.6693 19.6224 51.3062 19.9186C50.9387 20.292 50.7297 20.7969 50.7238 21.3252C50.7238 21.8428 50.9415 22.287 51.3062 22.6578C51.6698 23.0276 52.1793 23.25 52.6883 23.25C53.1983 23.25 53.6338 23.0276 53.9984 22.6578C54.3631 22.287 54.5809 21.8428 54.5809 21.3252ZM53.9989 21.3252C53.9989 21.695 53.8536 21.9907 53.5624 22.2869C53.3447 22.5094 52.98 22.6571 52.6893 22.6571C52.3257 22.6571 51.9616 22.5094 51.7428 22.2869C51.4526 21.9907 51.3792 21.6944 51.3792 21.3252C51.3792 20.9549 51.4526 20.5853 51.7428 20.3628C51.9616 20.0666 52.3262 19.9186 52.6893 19.9186C52.9805 19.9186 53.3447 20.0666 53.5624 20.3628C53.8531 20.5853 53.9989 20.9543 53.9989 21.3252ZM58.4385 23.101H59.0209V20.5847C59.0933 20.7325 59.2386 20.8808 59.3121 21.0286L61.6407 23.2489V19.4744H61.1307V21.9906C60.9853 21.8428 60.9129 21.6946 60.7671 21.5468L58.4385 19.3264V23.101ZM2.54741 4.30261H4.1488V3.11865H0V4.30261H1.60139V11.9253H2.54741V4.30261ZM10.334 11.9253H13.6821V10.5934H11.2805V7.78088H13.6821V6.52295H11.2805V4.30261H13.6821V3.11865H10.334V11.9253ZM20.2319 11.9253H21.5415C22.6334 11.9253 23.5066 11.9251 24.3073 11.0372C24.9621 10.2971 25.3262 9.11301 25.3262 7.48499C25.3262 5.9306 24.9621 4.74686 24.3073 3.93311C23.5795 3.11882 22.7058 3.11865 21.5415 3.11865H20.2319V11.9253ZM21.2504 10.5934V4.37695H21.541C22.4876 4.37695 23.1424 4.37681 23.6519 4.96912C24.0885 5.56141 24.3067 6.37528 24.3067 7.48572C24.3067 8.59615 24.0885 9.48419 23.6519 10.0023C23.1424 10.6683 22.4876 10.5945 21.541 10.5945H21.2504V10.5934ZM39.8803 11.9253H41.4088C42.2095 11.9253 42.7919 11.8518 43.2285 11.2595C43.5197 10.8156 43.7374 10.1495 43.7374 9.40942C43.7374 8.22482 43.3009 7.41104 42.5731 7.2627C43.1555 6.96654 43.4462 6.37468 43.4462 5.4126C43.4462 4.59832 43.2279 3.93229 42.8643 3.5625C42.5002 3.19271 41.9912 3.11829 41.4088 3.11829H39.8803V11.9253ZM40.8269 10.6677V7.9292H41.191C41.5547 7.9292 41.9183 7.8548 42.2824 8.07678C42.5737 8.29876 42.719 8.74278 42.719 9.33508C42.719 9.77904 42.5736 10.2231 42.3554 10.4451C42.1371 10.667 41.7005 10.667 41.191 10.667L40.8269 10.6677ZM40.8269 6.81921V4.30261H41.191C42.0641 4.30261 42.5007 4.52483 42.5007 5.63525C42.5007 6.52317 42.0641 6.81921 41.191 6.81921H40.8269ZM54.1443 11.9253H55.1633L52.2523 2.74841L49.3412 11.9253H50.3602L51.0879 9.63135H53.4165L54.1443 11.9253ZM51.4521 8.44739L52.0345 6.44897C52.1069 6.227 52.1799 5.9309 52.2523 5.48694C52.3257 5.9309 52.3976 6.227 52.47 6.44897L53.1254 8.44739H51.4521ZM61.1307 11.9253H62.1497V7.41101L64.4783 11.9253H65.7879L63.0962 7.04114L65.4972 3.11865H64.2605L62.1497 6.74524V3.11865H61.1307V11.9253ZM71.7553 11.9253H75.1764V10.5934H72.7743V7.78088H75.1764V6.52295H72.7743V4.30261H75.1764V3.11865H71.7553V11.9253ZM82.5993 8.00317H82.7447L84.7102 11.9257H85.8745L83.7636 7.92957C84.7102 7.78122 85.1457 6.9677 85.1457 5.56165C85.1457 4.74736 84.9279 4.00699 84.5633 3.63721C84.1997 3.19325 83.6902 3.11938 83.0354 3.11938H81.7251V11.9264H82.5982V8.00317H82.5993ZM82.6717 6.89355V4.37695H82.8905C83.7636 4.37695 84.1272 4.59899 84.1272 5.63525C84.1272 6.74516 83.6907 6.89355 82.8905 6.89355H82.6717ZM89.221 0.75C88.3479 0.75 87.6212 1.41665 87.6212 2.30457C87.6212 3.11885 88.3479 3.85876 89.221 3.85876C90.0222 3.85876 90.75 3.11885 90.75 2.30457C90.75 1.41665 90.0222 0.75 89.221 0.75ZM89.1492 0.972656H89.2215C89.8769 0.972656 90.3869 1.565 90.3869 2.30457C90.3869 3.04468 89.8769 3.5625 89.2215 3.5625C88.4948 3.5625 87.9848 3.04468 87.9848 2.30457C87.9848 1.565 88.4214 1.04683 89.1492 0.972656ZM88.5667 1.4165V3.19299H88.8579V2.37854H89.1492L89.6581 3.19299H89.9493L89.4403 2.37854C89.7315 2.37854 89.8769 2.1565 89.8769 1.86035C89.8769 1.5642 89.6581 1.4165 89.2945 1.4165H88.5667ZM88.8579 2.15662V1.63843H89.2215C89.5138 1.63843 89.5857 1.71271 89.5857 1.93469C89.5857 2.08249 89.5133 2.15698 89.2945 2.15698L88.8579 2.15662Z" fill="white"/>
</g>
</g>
</g>
<defs>
<clipPath id="clip0_148_433">
<rect width="90.75" height="22.5" fill="white" transform="translate(0 0.75)"/>
</clipPath>
</defs>
</svg>
